<?xml version="1.0" standalone="no"?>
<!DOCTYPE svg PUBLIC "-//W3C//DTD SVG 1.1//EN" "http://www.w3.org/Graphics/SVG/1.1/DTD/svg11.dtd" >
<svg xmlns="http://www.w3.org/2000/svg">
<metadata></metadata>
<defs>
<font id="pf_beausans_probbook" horiz-adv-x="1818" >
<font-face units-per-em="1000" ascent="750" descent="-250" />
<missing-glyph horiz-adv-x="275" />
<glyph unicode="fj" horiz-adv-x="568" d="M503 78q0 -135 -46 -202t-130 -96q-13 -4 -18 8l-20 60q-3 12 11 18q62 29 83 76t21 115v390h-210v-431q0 -11 -3.5 -13.5t-14.5 -2.5h-62q-11 0 -14.5 2.5t-3.5 13.5v431h-72q-16 0 -16 16v26q0 15 16 19l72 16v49q0 165 195 165q82 0 158 -21q13 -4 8 -18l-11 -50 q-3 -12 -17 -9q-61 14 -129 14q-63 0 -84 -22.5t-21 -56.5v-50h290q11 0 14.5 -2.5t3.5 -13.5v-431z" />
<glyph unicode="ffj" horiz-adv-x="860" d="M486 525h291q11 0 14.5 -2.5t3.5 -13.5v-431q0 -135 -46 -202t-130 -96q-13 -4 -18 8l-20 60q-3 12 11 18q62 29 83 76t21 115v390h-210v-431q0 -11 -3.5 -13.5t-14.5 -2.5h-62q-11 0 -14.5 2.5t-3.5 13.5v431h-194v-431q0 -11 -3.5 -13.5t-14.5 -2.5h-62 q-11 0 -14.5 2.5t-3.5 13.5v431h-72q-16 0 -16 16v26q0 15 16 19l72 16v37q0 165 195 165q67 0 153 -20q49 36 139 36q82 0 158 -21q13 -4 8 -18l-11 -50q-3 -12 -17 -9q-61 14 -129 14q-106 0 -106 -79v-54zM195 525h193v52q0 33 7 57q-64 8 -95 8q-63 0 -84 -22.5 t-21 -56.5v-38z" />
<glyph unicode="ff" horiz-adv-x="636" d="M291 728q68 0 141 -17q37 31 105 31q61 0 105 -14q13 -4 8 -18l-11 -52q-3 -12 -17 -9q-34 6 -70 6q-66 0 -66 -59v-71h121q10 0 13 -3.5t3 -12.5v-46q0 -16 -16 -16h-121v-431q0 -11 -3.5 -13.5t-14.5 -2.5h-63q-11 0 -14.5 2.5t-3.5 13.5v431h-193v-431 q0 -11 -3.5 -13.5t-14.5 -2.5h-62q-11 0 -14.5 2.5t-3.5 13.5v431h-72q-16 0 -16 16v26q0 15 16 19l72 16v39q0 165 195 165zM387 594q0 22 3 42q-45 8 -90 8q-63 0 -84 -22.5t-21 -56.5v-40h192v69z" />
<glyph unicode="fi" horiz-adv-x="568" d="M422 0q-11 0 -14.5 2.5t-3.5 13.5v431h-210v-431q0 -11 -3.5 -13.5t-14.5 -2.5h-62q-11 0 -14.5 2.5t-3.5 13.5v431h-72q-16 0 -16 16v26q0 15 16 19l72 16v47q0 165 195 165q82 0 158 -21q13 -4 8 -18l-11 -50q-3 -12 -17 -9q-61 14 -129 14q-63 0 -84 -22.5t-21 -56.5 v-48h292q10 0 13 -3.5t3 -12.5v-493q0 -11 -3.5 -13.5t-14.5 -2.5h-63z" />
<glyph unicode="fl" horiz-adv-x="615" d="M194 16q0 -11 -3.5 -13.5t-14.5 -2.5h-62q-11 0 -14.5 2.5t-3.5 13.5v431h-72q-16 0 -16 16v26q0 15 16 19l72 16v49q0 165 195 165q78 0 142 -17l53 12q11 0 14.5 -2.5t3.5 -13.5v-595q0 -26 7 -35t26 -9q14 0 36 2q9 1 11.5 -1t3.5 -10l6 -44q1 -9 -0.5 -12.5 t-10.5 -8.5q-27 -12 -82 -12q-53 0 -75 24t-22 79v549q-61 10 -104 10q-63 0 -84 -22.5t-21 -56.5v-50h125q16 0 16 -16v-46q0 -6 -1 -9t-4.5 -5t-10.5 -2h-126v-431z" />
<glyph unicode="ffi" horiz-adv-x="860" d="M714 0q-11 0 -14.5 2.5t-3.5 13.5v431h-210v-431q0 -11 -3.5 -13.5t-14.5 -2.5h-62q-11 0 -14.5 2.5t-3.5 13.5v431h-194v-431q0 -11 -3.5 -13.5t-14.5 -2.5h-62q-11 0 -14.5 2.5t-3.5 13.5v431h-72q-16 0 -16 16v26q0 15 16 19l72 16v34q0 165 195 165q67 0 153 -20 q49 36 139 36q82 0 158 -21q13 -4 8 -18l-11 -50q-3 -12 -17 -9q-61 14 -129 14q-106 0 -106 -79v-51h293q10 0 13 -3.5t3 -12.5v-493q0 -11 -3.5 -13.5t-14.5 -2.5h-63zM195 525h193v49q0 33 7 57q-64 8 -95 8q-63 0 -84 -22.5t-21 -56.5v-35z" />
<glyph unicode="ffl" horiz-adv-x="907" d="M486 16q0 -11 -3.5 -13.5t-14.5 -2.5h-62q-11 0 -14.5 2.5t-3.5 13.5v431h-194v-431q0 -11 -3.5 -13.5t-14.5 -2.5h-62q-11 0 -14.5 2.5t-3.5 13.5v431h-72q-16 0 -16 16v26q0 15 16 19l72 16v38q0 165 195 165q69 0 153 -20q49 36 139 36q78 0 142 -17l53 12 q11 0 14.5 -2.5t3.5 -13.5v-600q0 -26 7 -35t26 -9q14 0 36 2q9 1 11.5 -1t3.5 -10l6 -44q1 -9 -0.5 -12.5t-10.5 -8.5q-27 -12 -82 -12q-53 0 -75 24t-22 79v554q-61 10 -104 10q-106 0 -106 -79v-55h126q16 0 16 -16v-46q0 -6 -1 -9t-4.5 -5t-10.5 -2h-126v-431zM195 525 h193v53q0 33 7 57q-62 8 -95 8q-63 0 -84 -22.5t-21 -56.5v-39z" />
<glyph unicode="ft" horiz-adv-x="679" d="M668 21q2 -14 -9 -18q-44 -14 -111 -14q-77 0 -110 33.5t-33 106.5v318h-210v-431q0 -11 -3.5 -13.5t-14.5 -2.5h-63q-11 0 -14.5 2.5t-3.5 13.5v431h-72q-16 0 -16 16v26q0 15 16 19l72 16v64q0 148 150 148q61 0 105 -14q13 -4 8 -18l-11 -52q-3 -12 -17 -9 q-34 6 -70 6q-66 0 -66 -59v-65h214l19 102q2 10 5.5 13.5t15.5 7.5l37 14q17 5 17 -14v-123h105q16 0 16 -16v-46q0 -6 -1 -9t-4.5 -5t-10.5 -2h-105v-312q0 -33 14.5 -46.5t47.5 -13.5q29 0 76 7q15 4 17 -9z" />
<glyph unicode=" "  horiz-adv-x="275" />
<glyph unicode="&#x09;" horiz-adv-x="275" />
<glyph unicode="&#xa0;" horiz-adv-x="275" />
<glyph unicode="!" horiz-adv-x="275" d="M171 233q-1 -11 -5.5 -14.5t-18.5 -3.5h-23q-18 0 -20 15l-22 452q-2 18 17 18h76q20 0 18 -18zM212 65q0 -31 -21 -52.5t-53 -21.5t-53 21t-21 53q0 31 21.5 52.5t52.5 21.5q32 0 53 -21t21 -53z" />
<glyph unicode="&#x22;" horiz-adv-x="371" d="M143 451q-2 -12 -6 -15t-18 -3h-23q-18 0 -20 15l-25 237q-2 18 17 18h83q20 0 18 -18zM294 451q-2 -12 -6 -15t-18 -3h-23q-19 0 -20 15l-26 237q0 18 18 18h83q20 0 18 -18z" />
<glyph unicode="#" horiz-adv-x="595" d="M356 201l37 181h-140l-38 -181h141zM49 140q-14 0 -11 15l6 31q2 9 5 12t12 3h86l37 181h-89q-9 0 -11 3t-1 12l7 31q2 9 5 12t12 3h90l26 127q2 9 4.5 11t10.5 2h38q19 0 15 -13l-26 -127h141l26 127q2 9 4.5 11t10.5 2h38q19 0 15 -13l-26 -127h83q15 0 14 -15l-7 -31 q-2 -9 -5 -12t-12 -3h-85l-38 -181h85q16 0 13 -15l-6 -31q-4 -15 -16 -15h-88l-26 -127q-2 -9 -4.5 -11t-10.5 -2h-39q-8 0 -12 2.5t-2 10.5l25 127h-140l-26 -127q-2 -9 -4.5 -11t-10.5 -2h-39q-19 0 -15 13l26 127h-85z" />
<glyph unicode="$" horiz-adv-x="595" d="M363 -98q0 -7 -2 -10.5t-5 -4t-11 -0.5h-15q-7 0 -10 0.5t-5.5 4t-2.5 10.5v858q0 6 1 9t4 4t5 1.5t8 0.5h15q8 0 11 -0.5t5 -4t2 -10.5v-79q69 -9 121 -34q12 -4 7 -16l-23 -63q-4 -11 -13 -7q-58 19 -92 25v-212q38 -17 63 -31t51.5 -36.5t39.5 -53t13 -69.5 q0 -79 -46 -127.5t-121 -61.5v-93zM226 760q0 6 1 9t4 4t5 1.5t8 0.5h15q8 0 11 -0.5t5 -4t2 -10.5v-858q0 -7 -2 -10.5t-5 -4t-11 -0.5h-15q-7 0 -10 0.5t-5.5 4t-2.5 10.5v92q-95 12 -162 49q-13 5 -5 20l24 59q6 12 18 7q52 -25 125 -39v240q-73 32 -107.5 71.5 t-34.5 99.5q0 67 37 113t105 63v83zM433 179q0 55 -70 93v-183q70 24 70 90zM182 509q0 -44 44 -73v141q-44 -21 -44 -68z" />
<glyph unicode="%" horiz-adv-x="900" d="M858 203q0 -97 -44.5 -153t-134.5 -56q-88 0 -132.5 55t-44.5 153q0 97 45 153t134 56q177 0 177 -208zM776 202q0 62 -22.5 102t-74.5 40q-50 0 -72 -40t-22 -101q0 -143 96 -143q50 0 72.5 41t22.5 101zM390 470q0 -97 -44.5 -153t-134.5 -56q-88 0 -132.5 55 t-44.5 153q0 97 45 153t134 56q177 0 177 -208zM308 469q0 62 -22.5 102t-74.5 40q-50 0 -72 -40t-22 -101q0 -143 96 -143q50 0 72.5 41t22.5 101zM279 -6q-9 -16 -24 -16h-35q-19 0 -10 16l409 684q9 16 22 16h39q17 0 8 -16z" />
<glyph unicode="&#x26;" horiz-adv-x="740" d="M405 170q-56 67 -126 157q-115 -71 -115 -157q0 -97 98 -97q38 0 77.5 28.5t65.5 68.5zM566 0q-17 0 -27 11l-78 88q-90 -111 -209 -111q-86 0 -134 46t-48 127q0 70 43.5 131t110.5 100q-73 85 -73 159q0 72 49.5 116.5t121.5 44.5q73 0 120 -40.5t47 -105.5 q0 -67 -37 -112t-98 -84q23 -31 59.5 -75t38.5 -46q70 130 174 156q21 6 42 7q10 0 12 -9l9 -55q4 -12 -12 -14q-64 -11 -101 -50.5t-66 -104.5q40 -49 83 -97q18 -22 56 -64q4 -4 2.5 -11t-9.5 -7h-76zM396 558q0 29 -19 52t-54 23t-56 -21.5t-21 -55.5q0 -50 59 -123 q91 59 91 125z" />
<glyph unicode="'" horiz-adv-x="220" d="M143 451q-2 -12 -6 -15t-18 -3h-23q-18 0 -20 15l-25 237q-2 18 17 18h83q20 0 18 -18z" />
<glyph unicode="(" horiz-adv-x="295" d="M239 -80q-9 -7 -17 1q-192 186 -192 399q0 219 191 404q9 9 18 2l35 -24q8 -6 1 -14q-68 -80 -101.5 -167t-33.5 -195q0 -114 34 -201.5t101 -165.5q8 -8 0 -13z" />
<glyph unicode=")" horiz-adv-x="300" d="M68 726q9 7 17 -1q192 -186 192 -399q0 -217 -191 -404q-9 -9 -18 -2l-35 24q-8 6 -1 14q68 80 101.5 167t33.5 195q0 114 -34 201.5t-101 165.5q-8 8 0 13z" />
<glyph unicode="*" horiz-adv-x="484" d="M291 494l81 -97q10 -12 -2 -21l-34 -26q-15 -13 -24 3l-65 109l-67 -111q-9 -15 -19 -5l-39 30q-12 8 -3 20l82 98l-118 31q-15 5 -11 19l13 42q4 16 21 8l115 -48l-11 130q-1 6 2 9t11 3h47q15 0 13 -13l-11 -129l116 49q15 6 20 -7l14 -45q5 -16 -8 -17z" />
<glyph unicode="+" horiz-adv-x="595" d="M68 297q-11 0 -13.5 3.5t-2.5 14.5v59q0 7 1 10.5t4.5 5.5t10.5 2h181v185q0 10 4 13t14 3h62q11 0 14.5 -2.5t3.5 -13.5v-185h180q10 0 13 -4t3 -14v-59q0 -11 -2.5 -14.5t-13.5 -3.5h-180v-186q0 -11 -3.5 -13.5t-14.5 -2.5h-62q-7 0 -10.5 1t-5.5 4.5t-2 10.5v186 h-181z" />
<glyph unicode="," horiz-adv-x="251" d="M134 -108q-4 -12 -7 -15t-14 -3h-34q-11 0 -16 3.5t-4 11.5l15 242q2 18 18 18h97q11 0 15.5 -5.5t2.5 -12.5z" />
<glyph unicode="-" horiz-adv-x="365" d="M66 232q-11 0 -13.5 3.5t-2.5 14.5v76q0 7 1 10.5t4.5 5.5t10.5 2h233q10 0 13 -4t3 -14v-76q0 -11 -2.5 -14.5t-13.5 -3.5h-233z" />
<glyph unicode="." horiz-adv-x="275" d="M217 67q0 -33 -22.5 -56t-57.5 -23q-33 0 -56 22.5t-23 56.5t23 57t56 23q35 0 57.5 -22.5t22.5 -57.5z" />
<glyph unicode="/" horiz-adv-x="442" d="M116 -80q-4 -16 -23 -16h-62q-19 0 -14 16l314 842q4 16 22 16h65q17 0 12 -16z" />
<glyph unicode="0" horiz-adv-x="595" d="M563 337q0 -162 -66 -255t-201 -93q-132 0 -198.5 92t-66.5 254q0 161 68 254.5t199 93.5q265 0 265 -346zM464 335q0 53 -8.5 97.5t-26.5 83.5t-52 61.5t-81 22.5q-61 0 -99.5 -40t-52 -95.5t-13.5 -127.5q0 -53 8 -97.5t26 -84t52 -62t81 -22.5q46 0 79.5 22.5 t51.5 61.5t26.5 83.5t8.5 96.5z" />
<glyph unicode="1" horiz-adv-x="595" d="M489 18q0 -11 -2.5 -14.5t-13.5 -3.5h-337q-11 0 -13.5 3.5t-2.5 14.5v52q0 11 2.5 14.5t13.5 3.5h118v486l-114 -18q-16 -4 -16 13v47q0 17 17 22l151 44q23 8 41 0.5t18 -30.5v-564h122q11 0 13.5 -3.5t2.5 -14.5v-52z" />
<glyph unicode="2" horiz-adv-x="595" d="M134 0q-44 0 -61.5 17t-17.5 60q0 33 22 78t64 88q58 62 155 122q65 37 90.5 67t25.5 67q0 44 -34 68t-97 24q-84 0 -151 -52q-15 -12 -25 1l-35 46q-7 13 5 23q94 74 212 74q96 0 161 -46t65 -132q0 -69 -40.5 -117.5t-124.5 -97.5q-149 -88 -189 -202h339 q11 0 13.5 -3.5t2.5 -14.5v-52q0 -11 -2.5 -14.5t-13.5 -3.5h-364z" />
<glyph unicode="3" horiz-adv-x="595" d="M269 -11q-147 0 -227 66q-10 8 -2 20l33 50q9 14 27 2q71 -48 159 -48q77 0 114.5 34t37.5 94q0 44 -35.5 75t-104.5 31h-30q-15 0 -21.5 6t-6.5 22v29q0 30 25 30h25q62 0 95.5 27t33.5 75q0 46 -36.5 68.5t-88.5 22.5q-91 0 -155 -46q-16 -12 -27 3l-31 44q-8 12 2 19 q38 34 98.5 52.5t120.5 18.5q94 0 156 -45.5t62 -125.5q0 -55 -29.5 -95.5t-76.5 -58.5v-5q55 -8 90.5 -50.5t35.5 -104.5q0 -91 -66.5 -150.5t-177.5 -59.5z" />
<glyph unicode="4" horiz-adv-x="595" d="M75 148q-53 0 -53 49v12q0 34 22 64l284 370q34 43 61 43h32q30 0 42 -12.5t12 -42.5v-399h69q11 0 14.5 -3.5t3.5 -13.5v-49q0 -10 -3.5 -13.5t-14.5 -3.5h-69v-133q0 -10 -4 -13t-14 -3h-63q-10 0 -13.5 2.5t-3.5 13.5v132h-302zM377 552l-2 2l-242 -318l2 -4h242v320z " />
<glyph unicode="5" horiz-adv-x="595" d="M543 221q0 -108 -71 -171t-189 -63q-156 0 -233 67q-10 8 -2 20l33 50q9 14 27 2q71 -48 172 -48q76 0 120 37.5t44 100.5q0 61 -40.5 90.5t-99.5 29.5q-14 0 -26.5 -1t-21.5 -2t-20.5 -3.5t-17.5 -4t-18 -6.5t-16.5 -6.5t-19 -8t-19.5 -8.5q-24 -10 -45 0l-15 6 q-31 13 -27 48l25 257q3 31 21 47.5t43 16.5h333q11 0 14 -4t3 -14v-52q0 -10 -3 -14t-14 -4h-302l-20 -188q62 28 158 28q97 0 162 -55.5t65 -146.5z" />
<glyph unicode="6" horiz-adv-x="595" d="M561 215q0 -111 -73 -168.5t-178 -57.5q-130 0 -201 83t-71 231q0 83 18 150.5t55.5 120.5t101.5 82.5t150 29.5q71 0 115 -18q16 -6 10 -21l-17 -54q-5 -14 -23 -9q-38 14 -87 14q-93 0 -147.5 -55t-67.5 -148q73 26 175 26q103 0 171.5 -52t68.5 -154zM461 207 q0 57 -35.5 91.5t-104.5 34.5q-95 0 -183 -26q-1 -20 -1 -36q0 -86 49 -141t126 -55q70 0 109.5 34.5t39.5 97.5z" />
<glyph unicode="7" horiz-adv-x="595" d="M473 672q49 0 49 -41v-27q0 -28 -16 -56l-285 -532q-9 -16 -26 -16h-71q-9 0 -12.5 6.5t1.5 16.5l299 561h-354q-11 0 -13.5 3.5t-2.5 14.5v52q0 11 2.5 14.5t13.5 3.5h415z" />
<glyph unicode="8" horiz-adv-x="595" d="M546 187q0 -76 -64 -137t-185 -61q-123 0 -187 55.5t-64 142.5q0 58 35 106.5t89 66.5v3q-49 19 -73.5 58t-24.5 77q0 85 64 136.5t161 51.5q101 0 162 -51.5t61 -128.5q0 -38 -25.5 -81.5t-72.5 -61.5v-3q61 -18 92.5 -65t31.5 -108zM422 494q0 47 -33 76t-94 29 q-60 0 -92.5 -31.5t-32.5 -76.5q0 -41 36.5 -68t88.5 -27q50 0 88.5 28.5t38.5 69.5zM445 196q0 56 -42.5 87.5t-106.5 31.5q-60 0 -104.5 -34t-44.5 -89q0 -50 36.5 -84.5t112.5 -34.5q78 0 113.5 36.5t35.5 86.5z" />
<glyph unicode="9" horiz-adv-x="595" d="M31 460q0 111 72.5 168.5t178.5 57.5q130 0 201 -83t71 -231q0 -83 -18 -150.5t-55.5 -120.5t-102 -82.5t-150.5 -29.5q-70 0 -114 18q-16 6 -11 21l18 54q2 6 3 8t5.5 4t11.5 -1q42 -16 89 -16q93 0 148.5 55t67.5 148q-73 -26 -166 -26q-104 0 -176.5 52.5t-72.5 153.5 zM131 468q0 -55 38 -90.5t101 -35.5q95 0 183 26q2 13 2 36q0 84 -52.5 140t-122.5 56q-61 0 -105 -36t-44 -96z" />
<glyph unicode=":" horiz-adv-x="273" d="M216 457q0 -33 -23 -56t-57 -23q-33 0 -55.5 22.5t-22.5 56.5q0 33 22.5 56t55.5 23q35 0 57.5 -22.5t22.5 -56.5zM216 70q0 -34 -23 -56.5t-57 -22.5q-33 0 -55.5 22.5t-22.5 55.5t22.5 56.5t55.5 23.5q35 0 57.5 -22.5t22.5 -56.5z" />
<glyph unicode=";" horiz-adv-x="267" d="M228 457q0 -33 -23 -56t-56 -23q-34 0 -56.5 22.5t-22.5 56.5q0 33 22.5 56t56.5 23t56.5 -22.5t22.5 -56.5zM140 -108q-4 -12 -7 -15t-14 -3h-34q-11 0 -16 3.5t-4 11.5l15 242q2 18 18 18h97q11 0 15.5 -5.5t2.5 -12.5z" />
<glyph unicode="&#x3c;" horiz-adv-x="595" d="M525 596q17 9 17 -12v-56q0 -18 -15 -27l-347 -155l342 -149q12 -7 16 -12.5t4 -17.5v-62q0 -6 -4 -9.5t-12 -0.5l-448 203q-9 4 -13 6.5t-8 7.5t-5 12v34q0 14 5.5 20.5t20.5 13.5z" />
<glyph unicode="=" horiz-adv-x="595" d="M518 406q0 -11 -2.5 -14.5t-13.5 -3.5h-409q-11 0 -13.5 3.5t-2.5 14.5v54q0 7 1 10.5t4.5 5.5t10.5 2h409q10 0 13 -4t3 -14v-54zM518 228q0 -11 -2.5 -14.5t-13.5 -3.5h-409q-11 0 -13.5 3.5t-2.5 14.5v54q0 7 1 10.5t4.5 5.5t10.5 2h409q10 0 13 -4t3 -14v-54z" />
<glyph unicode="&#x3e;" horiz-adv-x="595" d="M516 392q15 -7 20.5 -13.5t5.5 -20.5v-34q-1 -7 -5 -12t-8 -7.5t-13 -6.5l-448 -203q-8 -3 -12 0.5t-4 9.5v62q0 12 4 17.5t16 12.5l342 149l-347 155q-15 9 -15 27v56q0 21 17 12z" />
<glyph unicode="?" horiz-adv-x="531" d="M265 707q100 0 160.5 -45.5t60.5 -131.5q0 -52 -28 -92t-78 -83q-4 -3 -15.5 -13t-15.5 -13.5t-14 -12.5t-14 -13.5t-12 -13t-11.5 -14t-8.5 -13t-7.5 -14t-4 -14t-1.5 -15.5v-19q0 -15 -15 -15h-69q-15 0 -15 14v25q0 14 2 27.5t8 26t10 22t14.5 22t15.5 18.5t19.5 18.5 t18.5 16.5t20.5 17t19.5 15q26 22 40 36t26.5 38t12.5 50q0 33 -26.5 59.5t-92.5 26.5q-84 0 -151 -52q-15 -12 -25 1l-31 48q-7 13 5 23q41 33 99 51.5t103 18.5zM302 65q0 -32 -22 -54.5t-55 -22.5q-32 0 -54.5 22t-22.5 55q0 32 23.5 54.5t56.5 22.5q25 0 49.5 -18.5 t24.5 -58.5z" />
<glyph unicode="@" horiz-adv-x="984" d="M649 254q0 -69 64 -69q55 0 84.5 44t29.5 117q0 139 -85 224t-227 85q-157 0 -256 -95t-99 -235q0 -146 94.5 -236t244.5 -90q68 0 129 22q18 5 22 -9l12 -34q4 -15 -14 -23q-67 -28 -152 -28q-190 0 -303 109.5t-113 287.5q0 173 125 288t310 115q179 0 284 -103 t105 -275q0 -105 -57 -171.5t-148 -66.5q-51 0 -82.5 18t-40.5 47q-58 -46 -128 -46q-145 0 -145 127q0 60 42.5 102.5t135.5 42.5h82v9q0 36 -17 54t-64 18q-45 0 -107 -16q-20 -5 -23 10l-9 38q-5 14 13 22q57 21 137 21q156 0 156 -142v-162zM485 327q-18 0 -31 -2 t-29.5 -8t-25.5 -21t-9 -39q0 -56 74 -56q51 0 99 34v92h-78z" />
<glyph unicode="A" horiz-adv-x="629" d="M524 0q-9 0 -13 0.5t-8 4t-6 11.5l-47 142h-271l-47 -142q-6 -16 -24 -16h-77q-22 0 -14 21l222 637q9 26 20 34.5t37 9.5h33q29 0 40 -9t20 -35l223 -637q3 -9 -0.5 -15t-12.5 -6h-75zM359 442l-45 142h-5l-42 -137l-61 -198h214z" />
<glyph unicode="B" horiz-adv-x="654" d="M492 217q0 55 -34.5 88t-99.5 33h-179v-243h178q72 0 103.5 37t31.5 85zM179 425h177q40 0 72.5 22t32.5 75q0 40 -26.5 63t-71.5 23h-184v-183zM489 385q54 -21 82 -69t28 -106q0 -92 -66.5 -151t-164.5 -59h-239q-29 0 -41.5 12.5t-12.5 41.5v593q0 29 12.5 41.5 t41.5 12.5l223 1q100 0 158.5 -42t58.5 -130q0 -44 -22.5 -81.5t-57.5 -56.5v-7z" />
<glyph unicode="C" horiz-adv-x="606" d="M375 86q75 0 154 34q19 8 26 -9l21 -48q5 -15 4 -18.5t-9 -9.5q-75 -46 -214 -46q-145 0 -223.5 87t-78.5 264q0 167 85.5 268.5t224.5 101.5q106 0 186 -41q14 -7 5 -25l-25 -52q-7 -13 -20 -8q-70 29 -142 29q-70 0 -118.5 -41t-69 -100.5t-20.5 -131.5 q0 -254 214 -254z" />
<glyph unicode="D" horiz-adv-x="682" d="M521 353q0 255 -214 255h-127v-514h130q115 0 163 68.5t48 190.5zM129 0q-29 0 -41.5 12.5t-12.5 41.5v593q0 29 12.5 41.5t41.5 12.5l183 1q153 0 234 -92t81 -255q0 -164 -76 -259.5t-229 -95.5h-193z" />
<glyph unicode="E" horiz-adv-x="588" d="M548 23q0 -13 -4 -18t-17 -5h-278q-174 0 -174 176v348q0 76 43 126.5t131 50.5h274q13 0 17 -5t4 -18v-48q0 -13 -3.5 -17.5t-17.5 -4.5h-274q-38 0 -54.5 -16.5t-16.5 -52.5v-123h312q12 0 16 -5t4 -18v-42q0 -12 -4 -17.5t-16 -5.5h-312v-166q0 -68 71 -68h278 q14 0 17.5 -4.5t3.5 -18.5v-48z" />
<glyph unicode="F" horiz-adv-x="580" d="M178 21q0 -14 -4.5 -17.5t-18.5 -3.5h-57q-13 0 -18 4t-5 17v503q0 78 40.5 127.5t133.5 49.5h275q13 0 17 -5t4 -18v-47q0 -14 -3.5 -18.5t-17.5 -4.5h-275q-38 0 -54.5 -16t-16.5 -52v-132h311q12 0 16 -5t4 -18v-43q0 -12 -4 -17.5t-16 -5.5h-311v-298z" />
<glyph unicode="G" horiz-adv-x="658" d="M367 83q79 0 130 20v214q-9 1 -26 1q-81 2 -151 -30q-11 -6 -16.5 -5.5t-10.5 8.5l-21 51q-7 15 7 24q71 45 173 45q46 0 73 -4q42 -8 57.5 -27t15.5 -62v-248q0 -18 -15 -29q-82 -52 -226 -52q-145 0 -223.5 87.5t-78.5 265.5q0 169 83 268.5t226 99.5q114 0 194 -41 q14 -7 5 -25l-25 -57q-7 -13 -20 -8q-70 29 -152 29q-106 0 -155.5 -77t-49.5 -191q0 -57 9 -100t30.5 -80t63.5 -57t103 -20z" />
<glyph unicode="H" horiz-adv-x="694" d="M515 679q0 13 5 17t18 4h58q14 0 18.5 -3.5t4.5 -17.5v-658q0 -14 -4.5 -17.5t-18.5 -3.5h-58q-13 0 -18 4t-5 17v303h-336v-303q0 -14 -4.5 -17.5t-18.5 -3.5h-58q-13 0 -18 4t-5 17v658q0 13 5 17t18 4h58q14 0 18.5 -3.5t4.5 -17.5v-266h336v266z" />
<glyph unicode="I" horiz-adv-x="275" d="M86 679q0 13 5 17t18 4h58q14 0 18.5 -3.5t4.5 -17.5v-658q0 -14 -4.5 -17.5t-18.5 -3.5h-58q-13 0 -18 4t-5 17v658z" />
<glyph unicode="J" horiz-adv-x="567" d="M384 679q0 13 5 17t18 4h58q14 0 18.5 -3.5t4.5 -17.5q0 -130 -0.5 -231.5t-0.5 -172.5q0 -286 -263 -286q-123 0 -208 49q-8 6 -9.5 9.5t3.5 16.5l26 52q8 14 24 5q80 -38 167 -38q84 0 121 48t37 149z" />
<glyph unicode="K" horiz-adv-x="639" d="M75 679q0 13 5 17t18 4h56q14 0 18.5 -3.5t4.5 -17.5v-326l4 -2l104 131l169 205q13 13 34 13h85q9 0 11.5 -5t-2.5 -11l-193 -235l241 -427q12 -22 -10 -22h-72q-18 0 -25.5 3t-15.5 17l-190 343l-140 -174v-168q0 -14 -4.5 -17.5t-18.5 -3.5h-56q-13 0 -18 4t-5 17v658 z" />
<glyph unicode="L" horiz-adv-x="558" d="M75 681q0 13 5 17t18 4h57q14 0 18.5 -3.5t4.5 -17.5v-511q0 -76 77 -76h277q10 0 13 -4t3 -14v-57q0 -7 -1 -10.5t-4.5 -6t-10.5 -2.5h-286q-92 0 -131.5 49t-39.5 127v505z" />
<glyph unicode="M" horiz-adv-x="818" d="M644 516h-6l-57 -149l-96 -241q-10 -27 -20.5 -35.5t-36.5 -8.5h-38q-26 0 -36.5 8.5t-20.5 35.5l-97 237l-56 141h-6v-483q0 -14 -4.5 -17.5t-18.5 -3.5h-53q-13 0 -18 4t-5 17v625q0 28 11.5 41.5t42.5 13.5h31q24 0 36.5 -8.5t23.5 -34.5l129 -326l58 -152h4l57 149 l130 329q11 26 23.5 34.5t36.5 8.5h31q31 0 42.5 -13.5t11.5 -41.5v-625q0 -14 -4.5 -17.5t-18.5 -3.5h-53q-13 0 -18 4t-5 17v495z" />
<glyph unicode="N" horiz-adv-x="700" d="M524 680q0 13 5 17t18 4h55q14 0 18.5 -3.5t4.5 -17.5v-625q0 -29 -12 -42t-42 -13h-30q-22 0 -33 8.5t-27 34.5l-220 367l-82 142h-3v-531q0 -14 -4.5 -17.5t-18.5 -3.5h-55q-13 0 -18 4t-5 17v625q0 29 12 42t42 13h30q22 0 33 -8.5t27 -34.5l217 -363l85 -146h3v531z " />
<glyph unicode="O" horiz-adv-x="712" d="M657 353q0 -177 -77.5 -270.5t-226.5 -93.5q-147 0 -222.5 90.5t-75.5 269.5q0 169 84.5 265.5t216.5 96.5q145 0 223 -94.5t78 -263.5zM552 349q0 57 -8 101.5t-28.5 84.5t-60 61.5t-96.5 21.5q-97 0 -148.5 -75t-51.5 -190q0 -131 44.5 -201t150.5 -70q55 0 95 22 t61.5 60.5t31.5 84t10 100.5z" />
<glyph unicode="P" horiz-adv-x="613" d="M75 648q0 29 12.5 41.5t41.5 12.5h233q97 0 158.5 -58.5t61.5 -151.5q0 -25 -5 -51t-20.5 -56.5t-39.5 -54t-65 -39.5t-94 -16h-181v-254q0 -14 -4.5 -17.5t-18.5 -3.5h-56q-13 0 -18 4t-5 17v627zM475 485q0 48 -31.5 85t-106.5 37h-159v-241h162q69 0 102 31.5t33 87.5 z" />
<glyph unicode="Q" horiz-adv-x="712" d="M657 353q0 -177 -77.5 -270.5t-226.5 -93.5q-147 0 -222.5 90.5t-75.5 269.5q0 169 84.5 265.5t216.5 96.5q145 0 223 -94.5t78 -263.5zM552 349q0 57 -8 101.5t-28.5 84.5t-60 61.5t-96.5 21.5q-97 0 -148.5 -75t-51.5 -190q0 -131 44.5 -201t150.5 -70q55 0 95 22 t61.5 60.5t31.5 84t10 100.5zM328 -141q-10 0 -13 4t-3 14v51q0 11 2.5 14.5t13.5 3.5h114q76 0 141 -18t98 -42q15 -11 7 -24l-25 -41q-10 -19 -30 -8q-79 46 -218 46h-87z" />
<glyph unicode="R" horiz-adv-x="633" d="M75 648q0 29 12.5 41.5t41.5 12.5h230q95 0 155.5 -56t60.5 -144q0 -59 -29.5 -103t-80.5 -65v-5q38 -11 55.5 -34t28.5 -64l58 -211q4 -5 0.5 -12.5t-14.5 -7.5h-75q-16 0 -20 14l-51 189q-15 53 -48 73.5t-86 20.5h-132v-276q0 -14 -4.5 -17.5t-18.5 -3.5h-60 q-13 0 -18 4t-5 17v627zM471 498q0 43 -27 76t-96 33h-166v-221h158q67 0 99 31.5t32 80.5z" />
<glyph unicode="S" horiz-adv-x="577" d="M548 190q0 -99 -69 -150t-176 -51q-156 0 -258 51q-12 5 -5 21l27 61q6 12 18 7q109 -47 200 -47q157 0 157 104q0 45 -35 73t-119 61q-120 47 -173 91.5t-53 116.5q0 85 56.5 134.5t162.5 49.5q123 0 217 -40q12 -6 7 -17l-23 -64q-4 -12 -14 -8q-99 35 -191 35 q-54 0 -82.5 -23t-28.5 -59q0 -41 36 -65.5t140 -68.5l61.5 -27t53.5 -29.5t49 -39.5t29 -49.5t13 -66.5z" />
<glyph unicode="T" horiz-adv-x="555" d="M222 609h-191q-11 0 -13.5 3.5t-2.5 13.5v56q0 7 1 10.5t4.5 5.5t10.5 2h493q10 0 13 -4t3 -14v-56q0 -10 -2.5 -13.5t-13.5 -3.5h-196v-588q0 -14 -4.5 -17.5t-18.5 -3.5h-60q-13 0 -18 4t-5 17v588z" />
<glyph unicode="U" horiz-adv-x="684" d="M74 679q0 13 5 17t18 4h60q14 0 18.5 -3.5t4.5 -17.5v-371q0 -63 7.5 -101.5t29 -69.5t62.5 -44t106 -13q67 0 122 11v588q0 13 5 17t18 4h60q13 0 16 -3.5t3 -17.5v-582q0 -42 -18.5 -66t-63.5 -32q-70 -11 -148 -11q-167 0 -235.5 70t-68.5 248z" />
<glyph unicode="V" horiz-adv-x="640" d="M397 41q-9 -23 -18.5 -31.5t-30.5 -9.5h-49q-24 0 -36 8.5t-21 32.5l-225 646q-5 14 9 14h81q15 0 19 -13l142 -434l49 -147h6l45 146l146 435q5 13 22 13h79q13 0 8 -14z" />
<glyph unicode="W" horiz-adv-x="836" d="M417 584l-32 -160l-80 -375q-11 -49 -48 -49h-49q-26 0 -39 8t-18 33l-135 646q-5 14 9 14h81q16 0 19 -13l73 -405l28 -161h6l32 159l77 370q9 50 59 50h43q43 0 55 -50l74 -365l32 -164h6l30 165l74 401q3 13 19 13h78q12 0 9 -14l-135 -646q-5 -25 -18 -33t-39 -8h-49 q-37 0 -48 49l-79 376l-31 159h-4z" />
<glyph unicode="X" horiz-adv-x="571" d="M559 14q6 -14 -9 -14h-82q-20 0 -30 15l-154 263l-155 -263q-10 -15 -30 -15h-79q-16 0 -8 14l214 345l-201 329q-3 4 -1 8.5t10 4.5h79q14 0 19.5 -2.5t10.5 -12.5l144 -243l143 243q9 15 30 15h75q8 0 10 -5t-2 -10l-199 -324z" />
<glyph unicode="Y" horiz-adv-x="578" d="M342 277v-261q0 -11 -3.5 -13.5t-13.5 -2.5h-66q-7 0 -10.5 1t-5.5 4.5t-2 10.5v261l-229 412q-3 4 -0.5 8t8.5 4h85q14 0 22 -14l85 -162l79 -157h4l83 164l81 155q8 14 22 14h79q6 0 8 -4t-1 -8z" />
<glyph unicode="Z" horiz-adv-x="617" d="M512 701q30 0 44 -12t14 -40v-21q0 -32 -28 -65l-392 -468l2 -6h411q11 0 13.5 -3.5t2.5 -14.5v-53q0 -11 -2.5 -14.5t-13.5 -3.5h-478q-55 0 -55 49v16q0 33 24 60l407 484l-2 3h-361q-11 0 -13.5 3.5t-2.5 13.5v54q0 7 1 10.5t4.5 5.5t10.5 2h414z" />
<glyph unicode="[" horiz-adv-x="313" d="M287 -72q0 -7 -1 -10.5t-4.5 -5.5t-10.5 -2h-192q-10 0 -13 4t-3 14v774q0 7 1 10.5t4.5 5.5t10.5 2h192q10 0 13 -4t3 -14v-40q0 -10 -2.5 -13.5t-13.5 -3.5h-111v-660h111q11 0 13.5 -3.5t2.5 -13.5v-40z" />
<glyph unicode="\" horiz-adv-x="442" d="M430 -80q5 -16 -14 -16h-62q-19 0 -23 16l-314 842q-3 8 1 12t11 4h65q15 0 22 -16z" />
<glyph unicode="]" horiz-adv-x="313" d="M275 -72q0 -7 -1 -10.5t-4.5 -5.5t-10.5 -2h-192q-10 0 -13 4t-3 14v40q0 10 2.5 13.5t13.5 3.5h111v660h-111q-11 0 -13.5 3.5t-2.5 13.5v40q0 7 1 10.5t4.5 5.5t10.5 2h192q10 0 13 -4t3 -14v-774z" />
<glyph unicode="^" horiz-adv-x="530" d="M218 700q16 26 32 26h19q14 0 20 -4.5t15 -17.5l188 -308q11 -17 -10 -17h-65q-18 0 -27 15l-125 211h-3l-123 -207q-7 -12 -12.5 -16t-17.5 -4h-69q-10 0 -12.5 4.5t2.5 11.5z" />
<glyph unicode="_" horiz-adv-x="500" d="M0 -129q-11 0 -13.5 3.5t-2.5 14.5v23q0 7 1 10.5t4.5 5.5t10.5 2h500q10 0 13 -4t3 -14v-23q0 -11 -2.5 -14.5t-13.5 -3.5h-500z" />
<glyph unicode="`" horiz-adv-x="533" d="M294 580q-14 -4 -23 9l-110 153q-8 12 7 16l77 21q15 4 21 -10l66 -158q5 -10 4 -13.5t-10 -5.5z" />
<glyph unicode="a" horiz-adv-x="545" d="M480 52q0 -21 -17 -29q-76 -34 -200 -34q-218 0 -218 167q0 76 52.5 127.5t169.5 51.5h114v18q0 49 -24 73.5t-89 24.5q-63 0 -138 -20q-19 -6 -22 8l-13 49q-5 14 9 19q73 29 181 29q195 0 195 -178v-306zM380 251h-107q-129 0 -129 -95q0 -86 118 -86q68 0 118 17v164z " />
<glyph unicode="b" horiz-adv-x="566" d="M521 269q0 -129 -61.5 -204.5t-185.5 -75.5q-114 0 -196 34q-13 4 -13 20v672q0 10 4 13t14 3h63q11 0 14.5 -2.5t3.5 -13.5v-198q68 19 130 19q114 0 170.5 -72t56.5 -195zM164 87q49 -15 107 -15q150 0 150 191q0 93 -36 140.5t-103 47.5q-62 0 -118 -17v-347z" />
<glyph unicode="c" horiz-adv-x="482" d="M285 74q67 0 119 28q14 8 21 -6l23 -48q9 -15 -6 -23q-63 -36 -171 -36q-110 0 -168 68t-58 200q0 127 64 203t173 76q86 0 149 -35q15 -8 6 -23l-23 -48q-6 -13 -21 -6q-57 24 -109 24q-70 0 -105 -54.5t-35 -136.5q0 -183 141 -183z" />
<glyph unicode="d" horiz-adv-x="565" d="M45 254q0 121 61.5 201.5t182.5 80.5q61 0 112 -13v192q0 11 3.5 13.5t14.5 2.5h63q7 0 10.5 -1t5.5 -4.5t2 -10.5v-670q0 -15 -13 -19q-86 -37 -208 -37q-234 0 -234 265zM147 254q0 -96 37.5 -138.5t110.5 -42.5q67 0 106 17v347q-55 14 -105 14q-68 0 -108.5 -47.5 t-40.5 -149.5z" />
<glyph unicode="e" horiz-adv-x="542" d="M279 536q111 0 165.5 -57.5t54.5 -160.5q0 -86 -83 -86h-272q2 -82 43.5 -120t108.5 -38q66 0 118 29q15 7 21 -6l24 -47q7 -16 -6 -23q-63 -38 -164 -38q-244 0 -244 271q0 128 66 202t168 74zM406 310q0 144 -126 144q-58 0 -94 -43.5t-38 -100.5h258z" />
<glyph unicode="f" horiz-adv-x="345" d="M348 655q-3 -12 -17 -9q-34 6 -70 6q-67 0 -67 -59v-68h122q10 0 13 -3.5t3 -12.5v-46q0 -16 -16 -16h-122v-431q0 -11 -3.5 -13.5t-14.5 -2.5h-62q-11 0 -14.5 2.5t-3.5 13.5v431h-72q-16 0 -16 16v26q0 15 16 19l72 16v67q0 148 150 148q61 0 105 -14q13 -4 8 -18z" />
<glyph unicode="g" horiz-adv-x="565" d="M402 437q-49 15 -107 15q-150 0 -150 -191q0 -93 36 -140.5t103 -47.5q62 0 118 17v347zM292 535q114 0 196 -34q13 -4 13 -20v-437q0 -129 -61.5 -188.5t-195.5 -78.5q-15 -1 -18 11l-8 63q0 12 11 14q90 13 130.5 43t40.5 94v5q-68 -19 -128 -19q-114 0 -170.5 72 t-56.5 195q0 129 61.5 204.5t185.5 75.5z" />
<glyph unicode="h" horiz-adv-x="568" d="M504 16q0 -10 -4 -13t-14 -3h-63q-11 0 -14.5 2.5t-3.5 13.5v280q0 154 -129 154q-70 0 -113 -18v-416q0 -11 -3.5 -13.5t-14.5 -2.5h-62q-7 0 -10.5 1t-5.5 4.5t-2 10.5v699q0 10 4 13t14 3h62q11 0 14.5 -2.5t3.5 -13.5v-200q56 21 130 21q211 0 211 -239v-281z" />
<glyph unicode="i" horiz-adv-x="270" d="M200 662q0 -27 -19 -46t-46 -19t-46 19t-19 46t19 46t46 19t46 -19t19 -46zM183 16q0 -11 -3.5 -13.5t-14.5 -2.5h-62q-7 0 -10.5 1t-5.5 4.5t-2 10.5v493q0 10 4 13t14 3h62q11 0 14.5 -2.5t3.5 -13.5v-493z" />
<glyph unicode="j" horiz-adv-x="285" d="M210 662q0 -27 -19 -46t-46 -19t-46 19t-19 46t19 46t46 19t46 -19t19 -46zM195 78q0 -135 -46 -202t-130 -96q-13 -4 -18 8l-20 60q-3 12 11 18q62 29 83 76t21 115v452q0 10 4 13t14 3h63q11 0 14.5 -2.5t3.5 -13.5v-431z" />
<glyph unicode="k" horiz-adv-x="504" d="M166 294l188 223q6 8 19 8h88q5 0 6.5 -4.5t-1.5 -8.5l-133 -160l154 -340q7 -12 -8 -12h-74q-17 0 -23 11l-117 262l-103 -118v-139q0 -11 -3.5 -13.5t-14.5 -2.5h-62q-7 0 -10.5 1t-5.5 4.5t-2 10.5v699q0 10 4 13t14 3h62q11 0 14.5 -2.5t3.5 -13.5v-419z" />
<glyph unicode="l" horiz-adv-x="286" d="M265 22q1 -9 -0.5 -12.5t-10.5 -8.5q-27 -12 -82 -12q-53 0 -75 24t-22 79v623q0 11 3.5 13.5t14.5 2.5h64q11 0 14.5 -2.5t3.5 -13.5v-596q0 -26 7 -35t26 -9q14 0 36 2q9 1 11.5 -1t3.5 -10z" />
<glyph unicode="m" horiz-adv-x="896" d="M831 16q0 -11 -3.5 -13.5t-14.5 -2.5h-62q-7 0 -10.5 1t-5.5 4.5t-2 10.5v262q0 89 -32.5 130t-108.5 41q-71 0 -122 -28q22 -45 22 -139v-266q0 -11 -3.5 -13.5t-14.5 -2.5h-62q-7 0 -10.5 1t-5.5 4.5t-2 10.5v265q0 85 -30 126.5t-117 41.5q-40 0 -84 -7v-426 q0 -11 -3.5 -13.5t-14.5 -2.5h-62q-7 0 -10.5 1t-5.5 4.5t-2 10.5v424q0 39 14 59t56 29q51 8 108 8q115 0 175 -52q76 52 189 52q224 0 224 -244v-276z" />
<glyph unicode="n" horiz-adv-x="568" d="M503 16q0 -11 -3.5 -13.5t-14.5 -2.5h-62q-7 0 -10.5 1t-5.5 4.5t-2 10.5v264q0 89 -33.5 129t-122.5 40q-45 0 -86 -7v-426q0 -11 -3.5 -13.5t-14.5 -2.5h-62q-7 0 -10.5 1t-5.5 4.5t-2 10.5v428q0 39 15 58.5t55 25.5q72 8 122 8q129 0 187.5 -59t58.5 -194v-267z" />
<glyph unicode="o" horiz-adv-x="563" d="M518 265q0 -135 -61 -205.5t-178 -70.5q-115 0 -174.5 69t-59.5 204q0 128 66.5 201t170.5 73q115 0 175.5 -70.5t60.5 -200.5zM419 262q0 192 -135 192q-69 0 -105 -53t-36 -136q0 -94 31 -144t106 -50q74 0 106.5 53.5t32.5 137.5z" />
<glyph unicode="p" horiz-adv-x="565" d="M520 263q0 -118 -60.5 -196t-172.5 -78q-63 0 -123 15v-190q0 -11 -3.5 -13.5t-14.5 -2.5h-63q-7 0 -10.5 1t-5.5 4.5t-2 10.5v666q0 15 13 19q87 37 206 37q117 0 176.5 -75.5t59.5 -197.5zM418 263q0 189 -150 189q-65 0 -104 -17v-346q59 -15 107 -15q147 0 147 189z " />
<glyph unicode="q" horiz-adv-x="566" d="M45 256q0 129 61.5 204.5t185.5 75.5q114 0 196 -34q13 -4 13 -20v-672q0 -10 -4 -13t-14 -3h-63q-11 0 -14.5 2.5t-3.5 13.5v198q-68 -19 -130 -19q-114 0 -170.5 72t-56.5 195zM402 438q-49 15 -107 15q-150 0 -150 -191q0 -93 36 -140.5t103 -47.5q62 0 118 17v347z " />
<glyph unicode="r" horiz-adv-x="423" d="M382 395q-6 -10 -19 -1q-57 54 -139 54q-24 0 -51 -5v-427q0 -11 -3.5 -13.5t-14.5 -2.5h-62q-7 0 -10.5 1t-5.5 4.5t-2 10.5v431q0 42 14.5 60t55.5 24q40 5 73 5q124 0 204 -69q10 -8 2 -17z" />
<glyph unicode="s" horiz-adv-x="473" d="M433 145q0 -76 -53.5 -116t-136.5 -40q-124 0 -198 41q-16 8 -7 23l21 47q7 16 24 8q79 -36 160 -36q47 0 71.5 18t24.5 51q0 31 -27.5 50.5t-90.5 42.5q-88 32 -125 64.5t-37 90.5q0 67 48 107t134 40q85 0 158 -29q14 -6 9 -21l-21 -53q-5 -10 -17 -5q-69 25 -132 25 q-41 0 -62 -16.5t-21 -41.5q0 -29 23 -46t90 -43q37 -13 60.5 -24.5t50.5 -30.5t40.5 -45.5t13.5 -60.5z" />
<glyph unicode="t" horiz-adv-x="376" d="M31 447q-16 0 -16 16v33q0 15 16 19l77 16l17 96q2 10 5.5 13.5t15.5 7.5l37 14q17 5 17 -14v-123h105q16 0 16 -16v-46q0 -6 -1 -9t-4.5 -5t-10.5 -2h-105v-312q0 -33 14.5 -46.5t47.5 -13.5q29 0 76 7q15 4 17 -9l10 -52q2 -14 -9 -18q-44 -14 -111 -14 q-77 0 -110 33.5t-33 106.5v318h-71z" />
<glyph unicode="u" horiz-adv-x="558" d="M65 510q0 11 3.5 13.5t14.5 2.5h62q7 0 10.5 -1t5.5 -4.5t2 -10.5v-264q0 -92 29 -130.5t117 -38.5q45 0 86 7v426q0 11 3.5 13.5t14.5 2.5h62q7 0 10.5 -1t5.5 -4.5t2 -10.5v-428q0 -72 -70 -84q-42 -8 -122 -8q-128 0 -182 58.5t-54 194.5v267z" />
<glyph unicode="v" horiz-adv-x="505" d="M333 42q-9 -28 -20 -37.5t-36 -9.5h-44q-22 0 -33.5 9t-22.5 37l-161 473q-3 11 9 11h76q11 0 15 -10l85 -257l52 -171h6l50 169l82 259q4 10 15 10h74q12 0 9 -11z" />
<glyph unicode="w" horiz-adv-x="751" d="M373 393l-46 -176l-54 -178q-7 -23 -18 -33.5t-36 -10.5h-43q-21 0 -33.5 9.5t-18.5 38.5l-103 473q-3 11 9 11h76q11 0 15 -10l50 -270l27 -145h6l38 131l64 232q4 13 8.5 20.5t16.5 14.5t30 7h34q22 0 31.5 -10.5t16.5 -34.5l60 -213l44 -156h6l27 154l50 270 q4 10 15 10h76q12 0 9 -11l-104 -473q-6 -28 -20 -38t-36 -10h-40q-26 0 -36 8.5t-18 35.5l-54 184l-45 170h-4z" />
<glyph unicode="x" horiz-adv-x="482" d="M297 282l174 -266q9 -16 -7 -16h-82q-17 0 -25 13l-118 191l-121 -190q-11 -14 -26 -14h-73q-16 0 -7 17l173 260l-151 231q-4 5 -2.5 11t9.5 6h76q18 0 26 -13l100 -163l103 163q8 13 24 13h73q9 0 10.5 -5.5t-1.5 -8.5z" />
<glyph unicode="y" horiz-adv-x="499" d="M290 -84q-23 -68 -60.5 -96.5t-98.5 -28.5q-42 0 -82 11q-16 4 -12 17l12 50q3 14 18 10q32 -7 49 -7q37 0 57.5 14.5t32.5 50.5l23 69h-21q-13 0 -20 1.5t-15 11t-14 27.5l-148 468q-3 11 9 11h77q11 0 15 -10l76 -247l54 -185h6l60 186l82 246q4 10 15 10h74 q12 0 9 -11z" />
<glyph unicode="z" horiz-adv-x="467" d="M400 525q26 0 36.5 -9t10.5 -32v-18q0 -29 -18 -50l-297 -334l1 -2h296q17 0 17 -16v-48q0 -9 -3 -12.5t-14 -3.5h-366q-43 0 -43 38v16q0 35 21 58l294 330l-1 3h-273q-11 0 -14 3.5t-3 12.5v48q0 16 17 16h339z" />
<glyph unicode="{" horiz-adv-x="359" d="M300 -95q0 -9 -9 -9q-74 3 -121 42t-47 124v134q0 47 -13 68t-42 26q-6 2 -7 2.5t-2.5 3.5t-1.5 8v46q0 7 2.5 9.5t10.5 4.5q28 5 40.5 26t12.5 68v103q0 157 167 162q10 0 10 -9v-55q0 -11 -10 -12q-34 -2 -51.5 -21t-17.5 -49v-125q0 -89 -67 -123v-4q67 -32 67 -124 v-155q0 -66 68 -72q11 -2 11 -10v-59z" />
<glyph unicode="|" horiz-adv-x="218" d="M159 -120q0 -11 -3.5 -13.5t-14.5 -2.5h-60q-7 0 -10.5 1t-5.5 4.5t-2 10.5v882q0 10 4 13t14 3h60q11 0 14.5 -2.5t3.5 -13.5v-882z" />
<glyph unicode="}" horiz-adv-x="359" d="M303 304q0 -5 -1.5 -8t-2.5 -3.5t-7 -2.5q-29 -5 -42 -26t-13 -68v-134q0 -85 -47 -124t-121 -42q-9 0 -9 9v59q0 8 11 10q68 6 68 72v155q0 92 67 124v4q-67 34 -67 123v125q0 30 -17.5 49t-51.5 21q-10 1 -10 12v55q0 9 10 9q167 -5 167 -162v-103q0 -47 12.5 -68 t40.5 -26q8 -2 10.5 -4.5t2.5 -9.5v-46z" />
<glyph unicode="~" horiz-adv-x="595" d="M530 316q-51 -87 -132 -87q-37 0 -105 29.5t-95 29.5q-43 0 -82 -41q-10 -9 -20 -2l-28 23q-11 10 -4 18q66 81 136 81q39 0 108 -30.5t94 -30.5q22 0 36 12t35 40q7 10 21 2l32 -22q11 -9 4 -22z" />
<glyph unicode="&#xa1;" horiz-adv-x="275" d="M109 284q1 11 5.5 14.5t18.5 3.5h23q19 0 20 -15l22 -452q2 -18 -17 -18h-76q-20 0 -18 18zM68 452q0 31 21 52.5t53 21.5t53 -21t21 -53q0 -31 -21.5 -52.5t-52.5 -21.5q-32 0 -53 21t-21 53z" />
<glyph unicode="&#xa2;" horiz-adv-x="595" d="M350 -95q0 -9 -2.5 -11.5t-10.5 -2.5h-22q-14 0 -14 14v85q-100 6 -153 73.5t-53 193.5q0 118 54.5 190.5t151.5 85.5v86q0 14 14 14h22q8 0 10.5 -2.5t2.5 -11.5v-83q71 -3 131 -35q15 -8 6 -23l-23 -48q-6 -13 -21 -6q-50 20 -93 24v-374q66 5 104 28q14 8 21 -6 l23 -48q9 -15 -6 -23q-52 -29 -142 -35v-85zM194 257q0 -160 107 -180v366q-54 -13 -80.5 -64t-26.5 -122z" />
<glyph unicode="&#xa3;" horiz-adv-x="595" d="M361 675q92 0 155 -35q15 -8 6 -23l-22 -44q-6 -13 -21 -6q-57 24 -115 24q-122 0 -122 -93q0 -53 12 -106h195q10 0 13 -4t3 -14v-36q0 -11 -2.5 -14.5t-13.5 -3.5h-185q3 -29 3 -61q0 -119 -48 -171h298q10 0 13 -4t3 -14v-52q0 -11 -2.5 -14.5t-13.5 -3.5h-405 q-37 0 -37 28v18q0 19 6 28t23 22q66 50 66 157q0 36 -3 67h-78q-11 0 -13.5 3.5t-2.5 14.5v36q0 7 1 10.5t4.5 5.5t10.5 2h69q-14 89 -14 99q0 93 58 138.5t159 45.5z" />
<glyph unicode="&#xa4;" horiz-adv-x="503" d="M33 277q0 72 42 128l-45 46q-12 13 -2 23l32 31q9 7 12 7t10 -7l47 -49q56 37 120 37q67 0 122 -38l54 54q12 12 23 1l31 -31q8 -9 7.5 -12.5t-7.5 -11.5l-54 -53q40 -58 40 -125q0 -70 -40 -126l52 -52q9 -7 10 -11.5t-7 -13.5l-31 -32q-10 -10 -24 4l-53 53 q-55 -38 -123 -38q-65 0 -115 32l-53 -54q-12 -15 -25 -2l-32 31q-11 11 4 24l51 51q-46 57 -46 134zM124 276q0 -52 37 -89t89 -37t89 37t37 89t-37 89t-89 37t-89 -37t-37 -89z" />
<glyph unicode="&#xa5;" horiz-adv-x="595" d="M95 301q-11 0 -14 4t-3 14v30q0 10 3 14t14 4h102l-140 293q-3 4 -0.5 8t8.5 4h77q16 0 21 -13l74 -164l59 -141h4l57 141l71 164q4 13 21 13h76q6 0 8 -4t-1 -8l-138 -293h115q11 0 14 -4t3 -14v-30q0 -10 -3 -14t-14 -4h-414zM509 251q11 0 14 -4t3 -14v-30 q0 -10 -3 -14t-14 -4h-164v-170q0 -9 -3.5 -12t-13.5 -3h-63q-17 0 -17 15v170h-153q-11 0 -14 4t-3 14v30q0 10 3 14t14 4h414z" />
<glyph unicode="&#xa6;" horiz-adv-x="218" d="M159 -120q0 -11 -3.5 -13.5t-14.5 -2.5h-60q-7 0 -10.5 1t-5.5 4.5t-2 10.5v396q0 10 4 13t14 3h60q11 0 14.5 -2.5t3.5 -13.5v-396zM159 361q0 -11 -3.5 -13.5t-14.5 -2.5h-60q-7 0 -10.5 1t-5.5 4.5t-2 10.5v396q0 10 4 13t14 3h60q11 0 14.5 -2.5t3.5 -13.5v-396z" />
<glyph unicode="&#xa7;" horiz-adv-x="558" d="M266 390q-55 47 -62 55q-41 -27 -41 -70q0 -30 26 -58t109 -99q47 -42 67 -54q34 27 34 62q0 14 -4.5 26.5t-10 22.5t-20 25t-24.5 24t-34.5 30.5t-39.5 35.5zM454 23q0 -62 -56 -106.5t-152 -44.5q-84 0 -141 29q-14 8 -6 20l21 44q5 11 18 6q50 -22 104 -22t81.5 20.5 t27.5 51.5q0 44 -95 117q-92 71 -140.5 124.5t-48.5 108.5q0 36 21 70.5t55 58.5q-31 39 -31 85q0 65 49 108.5t143 43.5q88 0 145 -29q14 -8 6 -20l-21 -44q-5 -11 -18 -6q-49 22 -104 22q-107 0 -107 -64q0 -19 17 -42.5t34 -39t58 -49.5q69 -56 100 -84t56 -66t25 -74 q0 -34 -21.5 -68t-55.5 -58q36 -49 36 -92z" />
<glyph unicode="&#xa8;" horiz-adv-x="573" d="M440 670q0 -23 -18 -41t-41 -18q-24 0 -42.5 18t-18.5 41q0 22 18.5 40.5t41.5 18.5t41.5 -18t18.5 -41zM256 670q0 -23 -18.5 -41t-41.5 -18t-41.5 18t-18.5 41q0 22 18.5 40.5t41.5 18.5t41.5 -18t18.5 -41z" />
<glyph unicode="&#xa9;" horiz-adv-x="827" d="M417 103q-91 0 -144.5 66.5t-53.5 173.5q0 108 54 174t144 66t139 -59q7 -12 -3 -20l-33 -30q-9 -6 -20 5q-32 35 -82 35q-61 0 -93 -46t-32 -125q0 -78 32.5 -124t91.5 -46q51 0 85 37q9 10 18 3l35 -28q10 -7 2 -18q-53 -64 -140 -64zM777 350q0 -154 -103.5 -257.5 t-257.5 -103.5t-257.5 103.5t-103.5 257.5t103.5 257.5t257.5 103.5t257.5 -103.5t103.5 -257.5zM722 350q0 134 -88 222t-218 88t-218 -88t-88 -222t88 -222t218 -88t218 88t88 222z" />
<glyph unicode="&#xaa;" horiz-adv-x="376" d="M335 308q0 -19 -16 -25q-50 -23 -138 -23q-154 0 -154 114q0 51 37.5 86.5t119.5 35.5h69v5q0 52 -68 52q-57 0 -91 -12q-11 -3 -16 -2t-7 9l-10 37q-4 14 11 20q48 18 125 18q138 0 138 -120v-195zM252 426h-64q-79 0 -79 -52q0 -46 72 -46q44 0 71 8v90z" />
<glyph unicode="&#xab;" horiz-adv-x="493" d="M158 242l121 -192q12 -22 -13 -22h-58q-26 0 -37 21l-96 154q-15 24 -15 41q0 18 17 45l93 153q13 21 37 21h56q11 0 15 -7t-2 -15zM328 242l121 -192q12 -22 -13 -22h-58q-26 0 -37 21l-96 154q-15 24 -15 41q0 18 17 45l93 153q13 21 37 21h56q11 0 15 -7t-2 -15z" />
<glyph unicode="&#xac;" horiz-adv-x="595" d="M68 297q-11 0 -13.5 3.5t-2.5 14.5v59q0 7 1 10.5t4.5 5.5t10.5 2h459q10 0 13 -4t3 -14v-263q0 -11 -3.5 -13.5t-14.5 -2.5h-62q-7 0 -10.5 1t-5.5 4.5t-2 10.5v186h-377z" />
<glyph unicode="&#xad;" horiz-adv-x="365" d="M66 232q-11 0 -13.5 3.5t-2.5 14.5v76q0 7 1 10.5t4.5 5.5t10.5 2h233q10 0 13 -4t3 -14v-76q0 -11 -2.5 -14.5t-13.5 -3.5h-233z" />
<glyph unicode="&#xae;" horiz-adv-x="554" d="M504 478q0 -96 -66.5 -162.5t-160.5 -66.5q-96 0 -161.5 66t-65.5 163q0 98 65.5 164.5t161.5 66.5t161.5 -66.5t65.5 -164.5zM460 478q0 81 -52.5 135.5t-130.5 54.5q-79 0 -131.5 -54.5t-52.5 -135.5q0 -79 53 -133.5t131 -54.5t130.5 54.5t52.5 133.5zM228 353 q0 -10 -11 -10h-27q-6 0 -7.5 1.5t-1.5 8.5v239q0 24 23 24h88q38 0 61.5 -22t23.5 -58q0 -42 -39 -67q22 -9 30 -39l21 -75q1 -2 1.5 -4.5t-2.5 -5t-8 -2.5h-28q-8 0 -10 8l-21 71q-9 34 -46 34h-47v-103zM331 534q0 15 -9.5 27t-33.5 12h-60v-77h57q23 0 34.5 11t11.5 27z " />
<glyph unicode="&#xaf;" horiz-adv-x="335" d="M46 578q-11 0 -13.5 3.5t-2.5 14.5v42q0 7 1 10.5t4.5 5.5t10.5 2h243q10 0 13 -4t3 -14v-42q0 -11 -2.5 -14.5t-13.5 -3.5h-243z" />
<glyph unicode="&#xb0;" horiz-adv-x="373" d="M328 562q0 -62 -40.5 -101t-101.5 -39t-101 39t-40 101q0 61 40.5 100.5t101.5 39.5t101 -39.5t40 -100.5zM271 562q0 36 -24 61t-60 25q-35 0 -59 -25t-24 -61q0 -37 24 -62t59 -25q36 0 60 25t24 62z" />
<glyph unicode="&#xb1;" horiz-adv-x="595" d="M66 -1q-11 0 -13.5 3t-2.5 12v65q0 9 2.5 12t13.5 3h459q11 0 13.5 -3t2.5 -12v-65q0 -9 -2.5 -12t-13.5 -3h-459zM70 337q-11 0 -13.5 3.5t-2.5 14.5v59q0 7 1 10.5t4.5 5.5t10.5 2h181v185q0 10 4 13t14 3h62q11 0 14.5 -2.5t3.5 -13.5v-185h180q10 0 13 -4t3 -14v-59 q0 -11 -2.5 -14.5t-13.5 -3.5h-180v-186q0 -11 -3.5 -13.5t-14.5 -2.5h-62q-7 0 -10.5 1t-5.5 4.5t-2 10.5v186h-181z" />
<glyph unicode="&#xb2;" horiz-adv-x="387" d="M90 357q-34 0 -47 12t-13 41q0 48 58 103q27 27 99 72q39 21 54 35.5t15 32.5q0 44 -73 44q-41 0 -89 -29q-21 -13 -29 0l-20 33q-8 14 7 25q65 42 135 42q64 0 108 -29t44 -83q0 -41 -28 -72t-81 -60q-83 -44 -109 -97h202q8 0 12 -2t4.5 -4t0.5 -8v-3v-36v-2 q0 -5 -0.5 -7.5t-4.5 -5t-12 -2.5h-233z" />
<glyph unicode="&#xb3;" horiz-adv-x="387" d="M279 572q59 -20 59 -92q0 -56 -44.5 -92.5t-118.5 -36.5q-97 0 -149 40q-14 11 -5 22l22 34q9 10 25 1q49 -26 103 -26q43 0 63.5 18t20.5 45q0 55 -77 55h-23q-9 0 -13.5 1t-7.5 6t-3 15v17q0 14 5.5 19t17.5 5h19q35 0 54 14t19 38q0 21 -20.5 31.5t-48.5 10.5 q-49 0 -93 -23q-19 -9 -24 -5q-2 2 -4 5l-19 34q-8 13 5 22q57 39 148 39q61 0 100 -29t39 -79q0 -59 -50 -86v-3z" />
<glyph unicode="&#xb4;" horiz-adv-x="483" d="M214 592q-9 2 -10 5.5t4 13.5l66 158q6 14 21 10l77 -21q15 -4 7 -16l-110 -153q-9 -13 -23 -9z" />
<glyph unicode="&#xb6;" horiz-adv-x="519" d="M243 332q-81 0 -133.5 52.5t-52.5 131.5q0 76 53.5 130.5t132.5 54.5h89q10 0 10 -10v-348q0 -11 -10 -11h-89zM470 52q0 -96 -42 -146t-152 -56q-10 0 -11 10l-4 48q-2 12 9 14q75 9 100.5 38.5t25.5 90.5v640q0 10 12 10h51q11 0 11 -10v-639z" />
<glyph unicode="&#xb7;" horiz-adv-x="268" d="M211 299q0 -33 -23 -56t-57 -23q-33 0 -55.5 22.5t-22.5 56.5q0 33 22.5 56t55.5 23q35 0 57.5 -22.5t22.5 -56.5z" />
<glyph unicode="&#xb8;" horiz-adv-x="492" d="M282 -56q98 -7 98 -77q0 -31 -28 -56.5t-78 -25.5q-57 0 -88 17q-11 4 -7 17l8 21q5 11 17 7q27 -10 58 -10q49 0 49 32q0 31 -54 31q-26 0 -30 4q-6 6 -1 25l29 83q1 7 10 7h35q8 0 5 -8z" />
<glyph unicode="&#xb9;" horiz-adv-x="387" d="M324 375q0 -12 -3 -15t-17 -3h-213q-13 0 -16 3.5t-3 14.5v35q0 11 3 14t16 3h65v259l-64 -11q-17 -6 -17 13v32q0 8 0.5 11t4 6t10.5 5l98 25q20 6 34.5 -0.5t14.5 -25.5v-314h67q14 0 17 -2.5t3 -14.5v-35z" />
<glyph unicode="&#xba;" horiz-adv-x="388" d="M361 443q0 -88 -42.5 -135.5t-125.5 -47.5q-166 0 -166 181q0 86 46.5 134t121.5 48q80 0 123 -47t43 -133zM279 441q0 114 -83 114q-43 0 -65 -30.5t-22 -81.5q0 -115 84 -115q86 0 86 113z" />
<glyph unicode="&#xbb;" horiz-adv-x="493" d="M217 441q-5 8 -1.5 15t14.5 7h56q24 0 37 -21l93 -153q17 -27 17 -45q0 -17 -15 -41l-96 -154q-11 -21 -37 -21h-58q-25 0 -13 22l121 192zM47 441q-5 8 -1.5 15t14.5 7h56q24 0 37 -21l93 -153q17 -27 17 -45q0 -17 -15 -41l-96 -154q-11 -21 -37 -21h-58q-25 0 -13 22 l121 192z" />
<glyph unicode="&#xbc;" horiz-adv-x="900" d="M501 85q-40 0 -40 34v13q0 19 17 40l179 212q21 29 46 29h24q22 0 31 -8.5t9 -29.5v-222h38q12 0 14.5 -4.5t2.5 -15.5v-28q0 -7 -0.5 -10t-4.5 -6t-12 -3h-38v-69q0 -11 -4.5 -14t-16.5 -3h-40q-12 0 -16 3t-4 14v68h-185zM343 285q0 -12 -3 -15t-17 -3h-213 q-12 0 -15.5 3.5t-3.5 14.5v35q0 11 3 14t16 3h65v259l-64 -11q-17 -6 -17 13v32q0 8 0.5 11t4 6t10.5 5l98 25q20 6 34.5 -0.5t14.5 -25.5v-314h67q14 0 17 -2.5t3 -14.5v-35zM285 -6q-9 -16 -24 -16h-35q-19 0 -10 16l409 684q9 16 22 16h39q17 0 8 -16zM568 153h118 l-1 144l-3 1l-115 -141z" />
<glyph unicode="&#xbd;" horiz-adv-x="900" d="M338 285q0 -12 -3 -15t-17 -3h-213q-13 0 -16 3.5t-3 14.5v35q0 11 3 14t16 3h65v259l-64 -11q-17 -6 -17 13v32q0 8 0.5 11t4 6t10.5 5l98 25q20 6 34.5 -0.5t14.5 -25.5v-314h67q14 0 17 -2.5t3 -14.5v-35zM274 -6q-9 -16 -24 -16h-35q-19 0 -10 16l409 684q9 16 22 16 h39q17 0 8 -16zM590 0q-34 0 -47 12t-13 41q0 48 58 103q27 27 99 72q39 21 54 35.5t15 32.5q0 44 -73 44q-41 0 -89 -29q-21 -13 -29 0l-20 33q-8 14 7 25q65 42 135 42q64 0 108 -29t44 -83q0 -41 -28 -72t-81 -60q-83 -44 -109 -97h202q8 0 12 -2t4.5 -4t0.5 -8v-3v-36 v-2q0 -5 -0.5 -7.5t-4.5 -5t-12 -2.5h-233z" />
<glyph unicode="&#xbe;" horiz-adv-x="900" d="M516 85q-40 0 -40 34v13q0 19 17 40l179 212q21 29 46 29h24q22 0 31 -8.5t9 -29.5v-222h38q12 0 14.5 -4.5t2.5 -15.5v-28q0 -7 -0.5 -10t-4.5 -6t-12 -3h-38v-69q0 -11 -4.5 -14t-16.5 -3h-40q-12 0 -16 3t-4 14v68h-185zM307 482q59 -20 59 -92q0 -56 -44.5 -92.5 t-118.5 -36.5q-97 0 -149 40q-14 11 -5 22l22 34q9 10 25 1q49 -26 103 -26q43 0 63.5 18t20.5 45q0 55 -77 55h-23q-9 0 -13.5 1t-7.5 6t-3 15v17q0 14 5.5 19t17.5 5h19q35 0 54 14t19 38q0 21 -20.5 31.5t-48.5 10.5q-49 0 -93 -23q-1 -1 -3 -2q-17 -7 -23 -1q-1 1 -2 3 l-19 34q-8 13 5 22q57 39 148 39q61 0 100 -29t39 -79q0 -59 -50 -86v-3zM283 -6q-9 -16 -24 -16h-35q-19 0 -10 16l409 684q9 16 22 16h39q17 0 8 -16zM583 153h118l-1 144l-3 1l-115 -141z" />
<glyph unicode="&#xbf;" horiz-adv-x="528" d="M272 -194q-100 0 -160.5 45.5t-60.5 131.5q0 39 20.5 76.5t41 57.5t58.5 52q44 36 67 64.5t23 60.5v19q0 15 15 15h69q15 0 15 -14v-25q0 -19 -3.5 -36t-12.5 -32.5t-16 -26.5t-23 -26t-23 -21t-27.5 -22.5t-25.5 -20.5q-38 -32 -57 -59t-19 -63q0 -33 26.5 -59.5 t92.5 -26.5q84 0 151 52q15 12 25 -1l31 -48q7 -13 -5 -23q-41 -33 -99 -51.5t-103 -18.5zM235 448q0 32 22 54.5t55 22.5q32 0 54.5 -22t22.5 -55q0 -32 -23.5 -54.5t-56.5 -22.5q-25 0 -49.5 18.5t-24.5 58.5z" />
<glyph unicode="&#xc0;" horiz-adv-x="629" d="M524 0q-9 0 -13 0.5t-8 4t-6 11.5l-47 142h-271l-47 -142q-6 -16 -24 -16h-77q-22 0 -14 21l222 637q9 26 20 34.5t37 9.5h33q29 0 40 -9t20 -35l223 -637q3 -9 -0.5 -15t-12.5 -6h-75zM359 442l-45 142h-5l-42 -137l-61 -198h214zM344 750q-10 -10 -25 -4l-170 76 q-13 6 -2 17l46 64q9 11 22 2l144 -106q13 -10 4 -20z" />
<glyph unicode="&#xc1;" horiz-adv-x="629" d="M524 0q-9 0 -13 0.5t-8 4t-6 11.5l-47 142h-271l-47 -142q-6 -16 -24 -16h-77q-22 0 -14 21l222 637q9 26 20 34.5t37 9.5h33q29 0 40 -9t20 -35l223 -637q3 -9 -0.5 -15t-12.5 -6h-75zM359 442l-45 142h-5l-42 -137l-61 -198h214zM264 779q-9 10 4 20l144 106 q13 9 22 -2l46 -64q11 -11 -2 -17l-170 -76q-15 -6 -25 4z" />
<glyph unicode="&#xc2;" horiz-adv-x="629" d="M524 0q-9 0 -13 0.5t-8 4t-6 11.5l-47 142h-271l-47 -142q-6 -16 -24 -16h-77q-22 0 -14 21l222 637q9 26 20 34.5t37 9.5h33q29 0 40 -9t20 -35l223 -637q3 -9 -0.5 -15t-12.5 -6h-75zM359 442l-45 142h-5l-42 -137l-61 -198h214zM464 745q-4 -6 -22 2l-131 62l-130 -64 q-11 -5 -19 3l-18 21q-8 10 0 16l127 102q22 18 41 18q23 0 44 -18l122 -102q12 -9 2 -21z" />
<glyph unicode="&#xc3;" horiz-adv-x="629" d="M524 0q-9 0 -13 0.5t-8 4t-6 11.5l-47 142h-271l-47 -142q-6 -16 -24 -16h-77q-22 0 -14 21l222 637q9 26 20 34.5t37 9.5h33q29 0 40 -9t20 -35l223 -637q3 -9 -0.5 -15t-12.5 -6h-75zM359 442l-45 142h-5l-42 -137l-61 -198h214zM380 752q-24 0 -67.5 18t-65.5 18 q-26 0 -40 -27q-7 -12 -21 -6l-34 15q-10 3 -12 5.5t1 11.5q43 74 108 74q25 0 66 -19.5t58 -19.5q31 0 43 28q5 12 19 8l39 -11q16 -3 12 -15q-19 -40 -43 -60t-63 -20z" />
<glyph unicode="&#xc4;" horiz-adv-x="629" d="M524 0q-9 0 -13 0.5t-8 4t-6 11.5l-47 142h-271l-47 -142q-6 -16 -24 -16h-77q-22 0 -14 21l222 637q9 26 20 34.5t37 9.5h33q29 0 40 -9t20 -35l223 -637q3 -9 -0.5 -15t-12.5 -6h-75zM359 442l-45 142h-5l-42 -137l-61 -198h214zM465 802q0 -23 -18 -41t-41 -18 q-24 0 -42.5 18t-18.5 41q0 22 18.5 40.5t41.5 18.5t41.5 -18t18.5 -41zM281 802q0 -23 -18.5 -41t-41.5 -18t-41.5 18t-18.5 41q0 22 18.5 40.5t41.5 18.5t41.5 -18t18.5 -41z" />
<glyph unicode="&#xc5;" horiz-adv-x="629" d="M524 0q-9 0 -13 0.5t-8 4t-6 11.5l-47 142h-271l-47 -142q-6 -16 -24 -16h-77q-22 0 -14 21l222 637q9 26 20 34.5t37 9.5h33q29 0 40 -9t20 -35l223 -637q3 -9 -0.5 -15t-12.5 -6h-75zM359 442l-45 142h-5l-42 -137l-61 -198h214zM417 818q0 -42 -29.5 -69.5 t-72.5 -27.5t-72.5 27.5t-29.5 69.5t29.5 69.5t72.5 27.5t72.5 -27.5t29.5 -69.5zM367 818q0 23 -14.5 37.5t-37.5 14.5t-37.5 -14.5t-14.5 -37.5t14.5 -37.5t37.5 -14.5t37.5 14.5t14.5 37.5z" />
<glyph unicode="&#xc6;" horiz-adv-x="863" d="M799 701q10 0 13 -4t3 -14v-57q0 -10 -2.5 -13.5t-13.5 -3.5h-245q-41 0 -59 -18t-18 -57v-118h292q11 0 13.5 -3.5t2.5 -14.5v-53q0 -7 -1 -10.5t-4.5 -5.5t-10.5 -2h-292v-159q0 -74 77 -74h252q11 0 13.5 -3.5t2.5 -14.5v-58q0 -7 -1 -10.5t-4.5 -5.5t-10.5 -2h-260 q-85 0 -125.5 40t-45.5 120h-199l-49 -147q-4 -13 -19 -13h-80q-14 0 -9 14l199 579q18 49 54.5 78.5t114.5 29.5h412zM200 243h175v283q0 67 14 87q-41 0 -59 -11t-27 -36l-36 -110z" />
<glyph unicode="&#xc7;" horiz-adv-x="606" d="M348 -56q98 -7 98 -77q0 -31 -28 -56.5t-78 -25.5q-57 0 -88 17q-11 4 -7 17l8 21q5 11 17 7q27 -10 58 -10q49 0 49 32q0 31 -54 31q-26 0 -30 4q-6 6 -1 25l21 62q-258 25 -258 349q0 167 85.5 268.5t224.5 101.5q106 0 186 -41q14 -7 5 -25l-25 -52q-7 -13 -20 -8 q-70 29 -142 29q-70 0 -118.5 -41t-69 -100.5t-20.5 -131.5q0 -254 214 -254q75 0 154 34q19 8 26 -9l21 -48q5 -15 4 -18.5t-9 -9.5q-73 -44 -208 -46z" />
<glyph unicode="&#xc8;" horiz-adv-x="588" d="M548 23q0 -13 -4 -18t-17 -5h-278q-174 0 -174 176v348q0 76 43 126.5t131 50.5h274q13 0 17 -5t4 -18v-48q0 -13 -3.5 -17.5t-17.5 -4.5h-274q-38 0 -54.5 -16.5t-16.5 -52.5v-123h312q12 0 16 -5t4 -18v-42q0 -12 -4 -17.5t-16 -5.5h-312v-166q0 -68 71 -68h278 q14 0 17.5 -4.5t3.5 -18.5v-48zM380 750q-10 -10 -25 -4l-170 76q-13 6 -2 17l46 64q9 11 22 2l144 -106q13 -10 4 -20z" />
<glyph unicode="&#xc9;" horiz-adv-x="588" d="M548 23q0 -13 -4 -18t-17 -5h-278q-174 0 -174 176v348q0 76 43 126.5t131 50.5h274q13 0 17 -5t4 -18v-48q0 -13 -3.5 -17.5t-17.5 -4.5h-274q-38 0 -54.5 -16.5t-16.5 -52.5v-123h312q12 0 16 -5t4 -18v-42q0 -12 -4 -17.5t-16 -5.5h-312v-166q0 -68 71 -68h278 q14 0 17.5 -4.5t3.5 -18.5v-48zM269 779q-9 10 4 20l144 106q13 9 22 -2l46 -64q11 -11 -2 -17l-170 -76q-15 -6 -25 4z" />
<glyph unicode="&#xca;" horiz-adv-x="588" d="M548 23q0 -13 -4 -18t-17 -5h-278q-174 0 -174 176v348q0 76 43 126.5t131 50.5h274q13 0 17 -5t4 -18v-48q0 -13 -3.5 -17.5t-17.5 -4.5h-274q-38 0 -54.5 -16.5t-16.5 -52.5v-123h312q12 0 16 -5t4 -18v-42q0 -12 -4 -17.5t-16 -5.5h-312v-166q0 -68 71 -68h278 q14 0 17.5 -4.5t3.5 -18.5v-48zM483 745q-4 -6 -22 2l-131 62l-130 -64q-11 -5 -19 3l-18 21q-8 10 0 16l127 102q22 18 41 18q23 0 44 -18l122 -102q12 -9 2 -21z" />
<glyph unicode="&#xcb;" horiz-adv-x="588" d="M548 23q0 -13 -4 -18t-17 -5h-278q-174 0 -174 176v348q0 76 43 126.5t131 50.5h274q13 0 17 -5t4 -18v-48q0 -13 -3.5 -17.5t-17.5 -4.5h-274q-38 0 -54.5 -16.5t-16.5 -52.5v-123h312q12 0 16 -5t4 -18v-42q0 -12 -4 -17.5t-16 -5.5h-312v-166q0 -68 71 -68h278 q14 0 17.5 -4.5t3.5 -18.5v-48zM485 800q0 -23 -18 -41t-41 -18q-24 0 -42.5 18t-18.5 41q0 22 18.5 40.5t41.5 18.5t41.5 -18t18.5 -41zM301 800q0 -23 -18.5 -41t-41.5 -18t-41.5 18t-18.5 41q0 22 18.5 40.5t41.5 18.5t41.5 -18t18.5 -41z" />
<glyph unicode="&#xcc;" horiz-adv-x="275" d="M86 679q0 13 5 17t18 4h58q14 0 18.5 -3.5t4.5 -17.5v-658q0 -14 -4.5 -17.5t-18.5 -3.5h-58q-13 0 -18 4t-5 17v658zM163 750q-10 -10 -25 -4l-170 76q-13 6 -2 17l46 64q9 11 22 2l144 -106q13 -10 4 -20z" />
<glyph unicode="&#xcd;" horiz-adv-x="275" d="M86 679q0 13 5 17t18 4h58q14 0 18.5 -3.5t4.5 -17.5v-658q0 -14 -4.5 -17.5t-18.5 -3.5h-58q-13 0 -18 4t-5 17v658zM108 779q-9 10 4 20l144 106q13 9 22 -2l46 -64q11 -11 -2 -17l-170 -76q-15 -6 -25 4z" />
<glyph unicode="&#xce;" horiz-adv-x="275" d="M86 679q0 13 5 17t18 4h58q14 0 18.5 -3.5t4.5 -17.5v-658q0 -14 -4.5 -17.5t-18.5 -3.5h-58q-13 0 -18 4t-5 17v658zM292 745q-4 -6 -22 2l-131 62l-130 -64q-11 -5 -19 3l-18 21q-8 10 0 16l127 102q23 18 41 18q23 0 44 -18l122 -102q12 -9 2 -21z" />
<glyph unicode="&#xcf;" horiz-adv-x="275" d="M86 679q0 13 5 17t18 4h58q14 0 18.5 -3.5t4.5 -17.5v-658q0 -14 -4.5 -17.5t-18.5 -3.5h-58q-13 0 -18 4t-5 17v658zM292 805q0 -23 -18 -41t-41 -18q-24 0 -42.5 18t-18.5 41q0 22 18.5 40.5t41.5 18.5t41.5 -18t18.5 -41zM108 805q0 -23 -18.5 -41t-41.5 -18t-41.5 18 t-18.5 41q0 22 18.5 40.5t41.5 18.5t41.5 -18t18.5 -41z" />
<glyph unicode="&#xd0;" horiz-adv-x="682" d="M129 0q-29 0 -41.5 12.5t-12.5 41.5v261h-49q-11 0 -13.5 3.5t-2.5 14.5v46q0 7 1 10.5t4.5 5.5t10.5 2h49v250q0 29 12.5 41.5t41.5 12.5l183 1q153 0 234 -92t81 -255q0 -164 -76 -259.5t-229 -95.5h-193zM520 353q0 255 -214 255h-125v-211h148q10 0 13 -4t3 -14v-46 q0 -11 -2.5 -14.5t-13.5 -3.5h-148v-221h128q115 0 163 68.5t48 190.5z" />
<glyph unicode="&#xd1;" horiz-adv-x="700" d="M524 680q0 13 5 17t18 4h55q14 0 18.5 -3.5t4.5 -17.5v-625q0 -29 -12 -42t-42 -13h-30q-22 0 -33 8.5t-27 34.5l-220 367l-82 142h-3v-531q0 -14 -4.5 -17.5t-18.5 -3.5h-55q-13 0 -18 4t-5 17v625q0 29 12 42t42 13h30q22 0 33 -8.5t27 -34.5l217 -363l85 -146h3v531z M435 763q-24 0 -67.5 18t-65.5 18q-26 0 -40 -27q-7 -12 -21 -6l-34 15q-10 3 -12 5.5t1 11.5q43 74 108 74q25 0 66 -19.5t58 -19.5q31 0 43 28q5 12 19 8l39 -11q17 -3 12 -15q-19 -40 -43 -60t-63 -20z" />
<glyph unicode="&#xd2;" horiz-adv-x="712" d="M657 353q0 -177 -77.5 -270.5t-226.5 -93.5q-147 0 -222.5 90.5t-75.5 269.5q0 169 84.5 265.5t216.5 96.5q145 0 223 -94.5t78 -263.5zM552 349q0 57 -8 101.5t-28.5 84.5t-60 61.5t-96.5 21.5q-97 0 -148.5 -75t-51.5 -190q0 -131 44.5 -201t150.5 -70q55 0 95 22 t61.5 60.5t31.5 84t10 100.5zM403 750q-10 -10 -25 -4l-170 76q-13 6 -2 17l46 64q9 11 22 2l144 -106q13 -10 4 -20z" />
<glyph unicode="&#xd3;" horiz-adv-x="712" d="M657 353q0 -177 -77.5 -270.5t-226.5 -93.5q-147 0 -222.5 90.5t-75.5 269.5q0 169 84.5 265.5t216.5 96.5q145 0 223 -94.5t78 -263.5zM552 349q0 57 -8 101.5t-28.5 84.5t-60 61.5t-96.5 21.5q-97 0 -148.5 -75t-51.5 -190q0 -131 44.5 -201t150.5 -70q55 0 95 22 t61.5 60.5t31.5 84t10 100.5zM311 779q-9 10 4 20l144 106q13 9 22 -2l46 -64q11 -11 -2 -17l-170 -76q-15 -6 -25 4z" />
<glyph unicode="&#xd4;" horiz-adv-x="712" d="M657 353q0 -177 -77.5 -270.5t-226.5 -93.5q-147 0 -222.5 90.5t-75.5 269.5q0 169 84.5 265.5t216.5 96.5q145 0 223 -94.5t78 -263.5zM552 349q0 57 -8 101.5t-28.5 84.5t-60 61.5t-96.5 21.5q-97 0 -148.5 -75t-51.5 -190q0 -131 44.5 -201t150.5 -70q55 0 95 22 t61.5 60.5t31.5 84t10 100.5zM509 745q-4 -6 -22 2l-131 62l-130 -64q-11 -5 -19 3l-18 21q-8 10 0 16l127 102q22 18 41 18q23 0 44 -18l122 -102q12 -9 2 -21z" />
<glyph unicode="&#xd5;" horiz-adv-x="712" d="M657 353q0 -177 -77.5 -270.5t-226.5 -93.5q-147 0 -222.5 90.5t-75.5 269.5q0 169 84.5 265.5t216.5 96.5q145 0 223 -94.5t78 -263.5zM552 349q0 57 -8 101.5t-28.5 84.5t-60 61.5t-96.5 21.5q-97 0 -148.5 -75t-51.5 -190q0 -131 44.5 -201t150.5 -70q55 0 95 22 t61.5 60.5t31.5 84t10 100.5zM427 769q-24 0 -67.5 18t-65.5 18q-26 0 -40 -27q-7 -12 -21 -6l-34 15q-10 3 -12 5.5t1 11.5q43 74 108 74q25 0 66 -19.5t58 -19.5q31 0 43 28q5 12 19 8l39 -11q17 -3 12 -15q-19 -40 -43 -60t-63 -20z" />
<glyph unicode="&#xd6;" horiz-adv-x="712" d="M657 353q0 -177 -77.5 -270.5t-226.5 -93.5q-147 0 -222.5 90.5t-75.5 269.5q0 169 84.5 265.5t216.5 96.5q145 0 223 -94.5t78 -263.5zM552 349q0 57 -8 101.5t-28.5 84.5t-60 61.5t-96.5 21.5q-97 0 -148.5 -75t-51.5 -190q0 -131 44.5 -201t150.5 -70q55 0 95 22 t61.5 60.5t31.5 84t10 100.5zM512 810q0 -23 -18 -41t-41 -18q-24 0 -42.5 18t-18.5 41q0 22 18.5 40.5t41.5 18.5t41.5 -18t18.5 -41zM328 810q0 -23 -18.5 -41t-41.5 -18t-41.5 18t-18.5 41q0 22 18.5 40.5t41.5 18.5t41.5 -18t18.5 -41z" />
<glyph unicode="&#xd7;" horiz-adv-x="595" d="M74 501q-12 11 1 24l42 42q13 13 24 1l156 -156l159 159q12 11 24 -1l44 -44q7 -7 8 -11t-7 -13l-159 -159l156 -156q12 -12 -2 -24l-41 -42q-13 -13 -24 -1l-156 155l-160 -159q-11 -12 -24 1l-44 44q-13 13 -1 24l160 160z" />
<glyph unicode="&#xd8;" horiz-adv-x="712" d="M657 353q0 -177 -77.5 -270.5t-226.5 -93.5q-122 0 -194 63l-40 -53q-8 -10 -19 -2l-21 13q-10 7 -1 20l45 60q-68 92 -68 259q0 169 84.5 265.5t216.5 96.5q114 0 189 -61l47 62q9 12 21 2l20 -14q5 -6 5.5 -8t-4.5 -11l-52 -68q75 -93 75 -260zM552 349q0 114 -33 179 l-299 -395q48 -51 138 -51q54 0 93.5 21.5t60.5 60.5t30.5 84.5t9.5 100.5zM159 353q0 -112 31 -175l297 394q-46 46 -128 46q-97 0 -148.5 -75t-51.5 -190z" />
<glyph unicode="&#xd9;" horiz-adv-x="684" d="M74 679q0 13 5 17t18 4h60q14 0 18.5 -3.5t4.5 -17.5v-371q0 -63 7.5 -101.5t29 -69.5t62.5 -44t106 -13q67 0 122 11v588q0 13 5 17t18 4h60q13 0 16 -3.5t3 -17.5v-582q0 -42 -18.5 -66t-63.5 -32q-70 -11 -148 -11q-167 0 -235.5 70t-68.5 248zM401 750 q-10 -10 -25 -4l-170 76q-13 6 -2 17l46 64q9 11 22 2l144 -106q13 -10 4 -20z" />
<glyph unicode="&#xda;" horiz-adv-x="684" d="M74 679q0 13 5 17t18 4h60q14 0 18.5 -3.5t4.5 -17.5v-371q0 -63 7.5 -101.5t29 -69.5t62.5 -44t106 -13q67 0 122 11v588q0 13 5 17t18 4h60q13 0 16 -3.5t3 -17.5v-582q0 -42 -18.5 -66t-63.5 -32q-70 -11 -148 -11q-167 0 -235.5 70t-68.5 248zM286 779q-9 10 4 20 l144 106q13 9 22 -2l46 -64q11 -11 -2 -17l-170 -76q-15 -6 -25 4z" />
<glyph unicode="&#xdb;" horiz-adv-x="684" d="M74 679q0 13 5 17t18 4h60q14 0 18.5 -3.5t4.5 -17.5v-371q0 -63 7.5 -101.5t29 -69.5t62.5 -44t106 -13q67 0 122 11v588q0 13 5 17t18 4h60q13 0 16 -3.5t3 -17.5v-582q0 -42 -18.5 -66t-63.5 -32q-70 -11 -148 -11q-167 0 -235.5 70t-68.5 248zM497 745q-4 -6 -22 2 l-131 62l-130 -64q-11 -5 -19 3l-18 21q-8 10 0 16l127 102q23 18 41 18q23 0 44 -18l122 -102q12 -9 2 -21z" />
<glyph unicode="&#xdc;" horiz-adv-x="684" d="M74 679q0 13 5 17t18 4h60q14 0 18.5 -3.5t4.5 -17.5v-371q0 -63 7.5 -101.5t29 -69.5t62.5 -44t106 -13q67 0 122 11v588q0 13 5 17t18 4h60q13 0 16 -3.5t3 -17.5v-582q0 -42 -18.5 -66t-63.5 -32q-70 -11 -148 -11q-167 0 -235.5 70t-68.5 248zM496 795q0 -23 -18 -41 t-41 -18q-24 0 -42.5 18t-18.5 41q0 22 18.5 40.5t41.5 18.5t41.5 -18t18.5 -41zM312 795q0 -23 -18.5 -41t-41.5 -18t-41.5 18t-18.5 41q0 22 18.5 40.5t41.5 18.5t41.5 -18t18.5 -41z" />
<glyph unicode="&#xdd;" horiz-adv-x="578" d="M342 277v-261q0 -11 -3.5 -13.5t-13.5 -2.5h-66q-7 0 -10.5 1t-5.5 4.5t-2 10.5v261l-229 412q-3 4 -0.5 8t8.5 4h85q14 0 22 -14l85 -162l79 -157h4l83 164l81 155q8 14 22 14h79q6 0 8 -4t-1 -8zM246 779q-9 10 4 20l144 106q13 9 22 -2l46 -64q11 -11 -2 -17l-170 -76 q-15 -6 -25 4z" />
<glyph unicode="&#xde;" horiz-adv-x="613" d="M75 684q0 10 4 13t14 3h69q11 0 14.5 -2.5t3.5 -13.5v-100h182q97 0 158.5 -58.5t61.5 -151.5q0 -25 -5 -51t-20.5 -56.5t-39.5 -54t-65 -39.5t-94 -16h-176l-1 -141q0 -16 -13 -16h-84l-5 3q-1 0 -1 0.5t-1 0.5l-2 6v674zM475 367q0 48 -31.5 85t-106.5 37h-155v-241 h158q69 0 102 31.5t33 87.5z" />
<glyph unicode="&#xdf;" horiz-adv-x="560" d="M66 491q0 107 55.5 168t152.5 61q101 0 151 -52t50 -127q0 -39 -19.5 -79t-60.5 -56v-3q49 -12 84.5 -66t35.5 -118q0 -117 -74 -181t-183 -60q-8 0 -10.5 2t-2.5 10v50q0 14 12 14q71 0 115 41.5t44 115.5q0 37 -11 67.5t-43 53.5t-82 23q-34 0 -34 30v17q0 33 31 33 q53 0 77.5 28.5t24.5 71.5q0 40 -25.5 72t-79.5 32q-58 0 -83.5 -39t-25.5 -93v-491q0 -11 -3.5 -13.5t-14.5 -2.5h-62q-7 0 -10.5 1t-5.5 4.5t-2 10.5z" />
<glyph unicode="&#xe0;" horiz-adv-x="545" d="M480 52q0 -21 -17 -29q-76 -34 -200 -34q-218 0 -218 167q0 76 52.5 127.5t169.5 51.5h114v18q0 49 -24 73.5t-89 24.5q-63 0 -138 -20q-19 -6 -22 8l-13 49q-5 14 9 19q73 29 181 29q195 0 195 -178v-306zM380 251h-107q-129 0 -129 -95q0 -86 118 -86q68 0 118 17v164z M290 580q-14 -4 -23 9l-110 153q-8 12 7 16l77 21q15 4 21 -10l66 -158q5 -10 4 -13.5t-10 -5.5z" />
<glyph unicode="&#xe1;" horiz-adv-x="545" d="M480 52q0 -21 -17 -29q-76 -34 -200 -34q-218 0 -218 167q0 76 52.5 127.5t169.5 51.5h114v18q0 49 -24 73.5t-89 24.5q-63 0 -138 -20q-19 -6 -22 8l-13 49q-5 14 9 19q73 29 181 29q195 0 195 -178v-306zM380 251h-107q-129 0 -129 -95q0 -86 118 -86q68 0 118 17v164z M234 592q-9 2 -10 5.5t4 13.5l66 158q6 14 21 10l77 -21q15 -4 7 -16l-110 -153q-9 -13 -23 -9z" />
<glyph unicode="&#xe2;" horiz-adv-x="545" d="M480 52q0 -21 -17 -29q-76 -34 -200 -34q-218 0 -218 167q0 76 52.5 127.5t169.5 51.5h114v18q0 49 -24 73.5t-89 24.5q-63 0 -138 -20q-19 -6 -22 8l-13 49q-5 14 9 19q73 29 181 29q195 0 195 -178v-306zM380 251h-107q-129 0 -129 -95q0 -86 118 -86q68 0 118 17v164z M441 576q-8 -7 -22 2l-130 91l-130 -94q-12 -7 -21 2l-21 22q-7 7 -1 15l132 133q19 19 41 19q25 0 44 -19l126 -131q13 -13 1 -23z" />
<glyph unicode="&#xe3;" horiz-adv-x="545" d="M480 52q0 -21 -17 -29q-76 -34 -200 -34q-218 0 -218 167q0 76 52.5 127.5t169.5 51.5h114v18q0 49 -24 73.5t-89 24.5q-63 0 -138 -20q-19 -6 -22 8l-13 49q-5 14 9 19q73 29 181 29q195 0 195 -178v-306zM380 251h-107q-129 0 -129 -95q0 -86 118 -86q68 0 118 17v164z M350 619q-24 0 -67.5 18t-65.5 18q-26 0 -40 -27q-7 -12 -21 -6l-34 15q-10 3 -12 5.5t1 11.5q43 74 108 74q25 0 66 -19.5t58 -19.5q31 0 43 28q5 12 19 8l39 -11q16 -3 12 -15q-19 -40 -43 -60t-63 -20z" />
<glyph unicode="&#xe4;" horiz-adv-x="545" d="M480 52q0 -21 -17 -29q-76 -34 -200 -34q-218 0 -218 167q0 76 52.5 127.5t169.5 51.5h114v18q0 49 -24 73.5t-89 24.5q-63 0 -138 -20q-19 -6 -22 8l-13 49q-5 14 9 19q73 29 181 29q195 0 195 -178v-306zM380 251h-107q-129 0 -129 -95q0 -86 118 -86q68 0 118 17v164z M441 670q0 -23 -18 -41t-41 -18q-24 0 -42.5 18t-18.5 41q0 22 18.5 40.5t41.5 18.5t41.5 -18t18.5 -41zM257 670q0 -23 -18.5 -41t-41.5 -18t-41.5 18t-18.5 41q0 22 18.5 40.5t41.5 18.5t41.5 -18t18.5 -41z" />
<glyph unicode="&#xe5;" horiz-adv-x="545" d="M480 52q0 -21 -17 -29q-76 -34 -200 -34q-218 0 -218 167q0 76 52.5 127.5t169.5 51.5h114v18q0 49 -24 73.5t-89 24.5q-63 0 -138 -20q-19 -6 -22 8l-13 49q-5 14 9 19q73 29 181 29q195 0 195 -178v-306zM380 251h-107q-129 0 -129 -95q0 -86 118 -86q68 0 118 17v164z M395 676q0 -42 -29.5 -69.5t-72.5 -27.5t-72.5 27.5t-29.5 69.5t29.5 69.5t72.5 27.5t72.5 -27.5t29.5 -69.5zM345 676q0 23 -14.5 37.5t-37.5 14.5t-37.5 -14.5t-14.5 -37.5t14.5 -37.5t37.5 -14.5t37.5 14.5t14.5 37.5z" />
<glyph unicode="&#xe6;" horiz-adv-x="863" d="M602 536q103 0 158 -56.5t59 -152.5q4 -86 -83 -86h-272q2 -98 41.5 -132.5t110.5 -34.5q66 0 118 29q15 7 21 -6l24 -47q7 -16 -6 -23q-63 -38 -164 -38q-86 0 -156 49q-81 -49 -215 -49q-62 0 -103 14t-59 39.5t-24.5 49t-6.5 54.5t9 59t30 55t63 43t101 16h122 q24 132 -113 132q-66 0 -135 -20q-19 -6 -22 8l-13 49q-5 14 9 19q73 29 178 29q119 0 164 -70q64 70 164 70zM396 100q-30 58 -31 141h-105q-48 0 -82 -21.5t-34 -73.5q0 -79 98 -79q94 0 154 33zM726 319q0 56 -28.5 95.5t-96.5 39.5q-60 0 -94.5 -38t-38.5 -97h258z" />
<glyph unicode="&#xe7;" horiz-adv-x="482" d="M280 -56q98 -7 98 -77q0 -31 -28 -56.5t-78 -25.5q-57 0 -88 17q-11 4 -7 17l8 21q5 11 17 7q27 -10 58 -10q49 0 49 32q0 31 -54 31q-26 0 -30 4q-6 6 -1 25l21 61q-98 8 -149 75.5t-51 191.5q0 127 64 203t173 76q86 0 149 -35q15 -8 6 -23l-23 -48q-6 -13 -21 -6 q-57 24 -109 24q-70 0 -105 -54.5t-35 -136.5q0 -183 141 -183q67 0 119 28q14 8 21 -6l23 -48q9 -15 -6 -23q-51 -29 -147 -35z" />
<glyph unicode="&#xe8;" horiz-adv-x="542" d="M279 536q111 0 165.5 -57.5t54.5 -160.5q0 -86 -83 -86h-272q2 -82 43.5 -120t108.5 -38q66 0 118 29q15 7 21 -6l24 -47q7 -16 -6 -23q-63 -38 -164 -38q-244 0 -244 271q0 128 66 202t168 74zM406 310q0 144 -126 144q-58 0 -94 -43.5t-38 -100.5h258zM295 580 q-14 -4 -23 9l-110 153q-8 12 7 16l77 21q15 4 21 -10l66 -158q5 -10 4 -13.5t-10 -5.5z" />
<glyph unicode="&#xe9;" horiz-adv-x="542" d="M279 536q111 0 165.5 -57.5t54.5 -160.5q0 -86 -83 -86h-272q2 -82 43.5 -120t108.5 -38q66 0 118 29q15 7 21 -6l24 -47q7 -16 -6 -23q-63 -38 -164 -38q-244 0 -244 271q0 128 66 202t168 74zM406 310q0 144 -126 144q-58 0 -94 -43.5t-38 -100.5h258zM234 592 q-9 2 -10 5.5t4 13.5l66 158q6 14 21 10l77 -21q15 -4 7 -16l-110 -153q-9 -13 -23 -9z" />
<glyph unicode="&#xea;" horiz-adv-x="542" d="M279 536q111 0 165.5 -57.5t54.5 -160.5q0 -86 -83 -86h-272q2 -82 43.5 -120t108.5 -38q66 0 118 29q15 7 21 -6l24 -47q7 -16 -6 -23q-63 -38 -164 -38q-244 0 -244 271q0 128 66 202t168 74zM434 576q-8 -7 -22 2l-130 91l-130 -94q-12 -7 -21 2l-21 22q-7 7 -1 15 l132 133q19 19 41 19q25 0 44 -19l126 -131q13 -13 1 -23zM406 310q0 144 -126 144q-58 0 -94 -43.5t-38 -100.5h258z" />
<glyph unicode="&#xeb;" horiz-adv-x="542" d="M279 536q111 0 165.5 -57.5t54.5 -160.5q0 -86 -83 -86h-272q2 -82 43.5 -120t108.5 -38q66 0 118 29q15 7 21 -6l24 -47q7 -16 -6 -23q-63 -38 -164 -38q-244 0 -244 271q0 128 66 202t168 74zM406 310q0 144 -126 144q-58 0 -94 -43.5t-38 -100.5h258zM436 670 q0 -23 -18 -41t-41 -18q-24 0 -42.5 18t-18.5 41q0 22 18.5 40.5t41.5 18.5t41.5 -18t18.5 -41zM252 670q0 -23 -18.5 -41t-41.5 -18t-41.5 18t-18.5 41q0 22 18.5 40.5t41.5 18.5t41.5 -18t18.5 -41z" />
<glyph unicode="&#xec;" horiz-adv-x="274" d="M186 16q0 -11 -3.5 -13.5t-14.5 -2.5h-62q-7 0 -10.5 1t-5.5 4.5t-2 10.5v493q0 10 4 13t14 3h62q11 0 14.5 -2.5t3.5 -13.5v-493zM144 580q-14 -4 -23 9l-110 153q-8 12 7 16l77 21q15 4 21 -10l66 -158q5 -10 4 -13.5t-10 -5.5z" />
<glyph unicode="&#xed;" horiz-adv-x="274" d="M186 16q0 -11 -3.5 -13.5t-14.5 -2.5h-62q-7 0 -10.5 1t-5.5 4.5t-2 10.5v493q0 10 4 13t14 3h62q11 0 14.5 -2.5t3.5 -13.5v-493zM113 592q-9 2 -10 5.5t4 13.5l66 158q6 14 21 10l77 -21q15 -4 7 -16l-110 -153q-9 -13 -23 -9z" />
<glyph unicode="&#xee;" horiz-adv-x="274" d="M186 16q0 -11 -3.5 -13.5t-14.5 -2.5h-62q-7 0 -10.5 1t-5.5 4.5t-2 10.5v493q0 10 4 13t14 3h62q11 0 14.5 -2.5t3.5 -13.5v-493zM292 576q-8 -7 -22 2l-130 91l-130 -94q-12 -7 -21 2l-21 22q-7 7 -1 15l132 133q19 19 41 19q25 0 44 -19l126 -131q13 -13 1 -23z" />
<glyph unicode="&#xef;" horiz-adv-x="274" d="M186 16q0 -11 -3.5 -13.5t-14.5 -2.5h-62q-7 0 -10.5 1t-5.5 4.5t-2 10.5v493q0 10 4 13t14 3h62q11 0 14.5 -2.5t3.5 -13.5v-493zM290 670q0 -23 -18 -41t-41 -18q-24 0 -42.5 18t-18.5 41q0 22 18.5 40.5t41.5 18.5t41.5 -18t18.5 -41zM106 670q0 -23 -18.5 -41 t-41.5 -18t-41.5 18t-18.5 41q0 22 18.5 40.5t41.5 18.5t41.5 -18t18.5 -41z" />
<glyph unicode="&#xf0;" horiz-adv-x="553" d="M388 460q-30 78 -74 124l-58 -51q-9 -6 -13 -5t-11 8l-12 13q-13 13 -1 23l56 49q-48 37 -85 60q-14 8 -5 23l15 25q12 19 31 11q56 -27 104 -66l65 57q9 6 13 5.5t11 -9.5l11 -12q8 -10 8.5 -12.5t-6.5 -10.5l-62 -55q65 -66 99 -156.5t34 -191.5q0 -41 -5.5 -78.5 t-21 -79t-41 -71t-69 -49t-100.5 -19.5q-53 0 -93.5 14t-65 37t-40 55.5t-21.5 65t-6 69.5q0 97 58.5 170t168.5 73q62 0 111 -19zM282 396q-72 0 -105.5 -46.5t-33.5 -112.5q0 -166 128 -166q41 0 71 17t45 46t21.5 60.5t6.5 68.5q0 68 -10 102q-56 31 -123 31z" />
<glyph unicode="&#xf1;" horiz-adv-x="568" d="M503 16q0 -11 -3.5 -13.5t-14.5 -2.5h-62q-7 0 -10.5 1t-5.5 4.5t-2 10.5v264q0 89 -33.5 129t-122.5 40q-45 0 -86 -7v-426q0 -11 -3.5 -13.5t-14.5 -2.5h-62q-7 0 -10.5 1t-5.5 4.5t-2 10.5v428q0 39 15 58.5t55 25.5q72 8 122 8q129 0 187.5 -59t58.5 -194v-267z M325 619q-24 0 -67.5 18t-65.5 18q-26 0 -40 -27q-7 -12 -21 -6l-34 15q-10 3 -12 5.5t1 11.5q43 74 108 74q25 0 66 -19.5t58 -19.5q31 0 43 28q5 12 19 8l39 -11q17 -3 12 -15q-19 -40 -43 -60t-63 -20z" />
<glyph unicode="&#xf2;" horiz-adv-x="563" d="M518 265q0 -135 -61 -205.5t-178 -70.5q-115 0 -174.5 69t-59.5 204q0 128 66.5 201t170.5 73q115 0 175.5 -70.5t60.5 -200.5zM419 262q0 192 -135 192q-69 0 -105 -53t-36 -136q0 -94 31 -144t106 -50q74 0 106.5 53.5t32.5 137.5zM296 580q-14 -4 -23 9l-110 153 q-8 12 7 16l77 21q15 4 21 -10l66 -158q5 -10 4 -13.5t-10 -5.5z" />
<glyph unicode="&#xf3;" horiz-adv-x="563" d="M518 265q0 -135 -61 -205.5t-178 -70.5q-115 0 -174.5 69t-59.5 204q0 128 66.5 201t170.5 73q115 0 175.5 -70.5t60.5 -200.5zM419 262q0 192 -135 192q-69 0 -105 -53t-36 -136q0 -94 31 -144t106 -50q74 0 106.5 53.5t32.5 137.5zM243 592q-9 2 -10 5.5t4 13.5l66 158 q6 14 21 10l77 -21q15 -4 7 -16l-110 -153q-9 -13 -23 -9z" />
<glyph unicode="&#xf4;" horiz-adv-x="563" d="M518 265q0 -135 -61 -205.5t-178 -70.5q-115 0 -174.5 69t-59.5 204q0 128 66.5 201t170.5 73q115 0 175.5 -70.5t60.5 -200.5zM419 262q0 192 -135 192q-69 0 -105 -53t-36 -136q0 -94 31 -144t106 -50q74 0 106.5 53.5t32.5 137.5zM439 576q-8 -7 -22 2l-130 91 l-130 -94q-12 -7 -21 2l-21 22q-7 7 -1 15l132 133q19 19 41 19q25 0 44 -19l126 -131q13 -13 1 -23z" />
<glyph unicode="&#xf5;" horiz-adv-x="563" d="M518 265q0 -135 -61 -205.5t-178 -70.5q-115 0 -174.5 69t-59.5 204q0 128 66.5 201t170.5 73q115 0 175.5 -70.5t60.5 -200.5zM419 262q0 192 -135 192q-69 0 -105 -53t-36 -136q0 -94 31 -144t106 -50q74 0 106.5 53.5t32.5 137.5zM349 619q-24 0 -67.5 18t-65.5 18 q-26 0 -40 -27q-7 -12 -21 -6l-34 15q-10 3 -12 5.5t1 11.5q43 74 108 74q25 0 66 -19.5t58 -19.5q31 0 43 28q5 12 19 8l39 -11q17 -3 12 -15q-19 -40 -43 -60t-63 -20z" />
<glyph unicode="&#xf6;" horiz-adv-x="563" d="M518 265q0 -135 -61 -205.5t-178 -70.5q-115 0 -174.5 69t-59.5 204q0 128 66.5 201t170.5 73q115 0 175.5 -70.5t60.5 -200.5zM419 262q0 192 -135 192q-69 0 -105 -53t-36 -136q0 -94 31 -144t106 -50q74 0 106.5 53.5t32.5 137.5zM431 670q0 -23 -18 -41t-41 -18 q-24 0 -42.5 18t-18.5 41q0 22 18.5 40.5t41.5 18.5t41.5 -18t18.5 -41zM247 670q0 -23 -18.5 -41t-41.5 -18t-41.5 18t-18.5 41q0 22 18.5 40.5t41.5 18.5t41.5 -18t18.5 -41z" />
<glyph unicode="&#xf7;" horiz-adv-x="595" d="M380 527q0 -33 -23 -56t-57 -23q-33 0 -55.5 22.5t-22.5 56.5q0 33 22.5 56t55.5 23q35 0 57.5 -22.5t22.5 -56.5zM380 152q0 -34 -23 -56.5t-57 -22.5q-33 0 -55.5 22.5t-22.5 55.5t22.5 56.5t55.5 23.5q35 0 57.5 -22.5t22.5 -56.5zM68 297q-11 0 -13.5 3.5t-2.5 14.5 v59q0 7 1 10.5t4.5 5.5t10.5 2h459q10 0 13 -4t3 -14v-59q0 -11 -2.5 -14.5t-13.5 -3.5h-459z" />
<glyph unicode="&#xf8;" horiz-adv-x="563" d="M87 4q-9 -8 -16 -1l-19 17q-11 8 0 17l36 42q-43 64 -43 183q0 128 66.5 201t170.5 73q98 0 157 -53l37 43q7 7 18 1l18 -18q9 -6 0 -16l-41 -47q47 -71 47 -181q0 -135 -61 -205.5t-178 -70.5q-100 0 -159 53zM419 262q0 65 -15 107l-223 -257q32 -41 99 -41 q74 0 106.5 53.5t32.5 137.5zM143 265q0 -68 14 -107l222 257q-33 39 -95 39q-69 0 -105 -53t-36 -136z" />
<glyph unicode="&#xf9;" horiz-adv-x="558" d="M65 510q0 11 3.5 13.5t14.5 2.5h62q7 0 10.5 -1t5.5 -4.5t2 -10.5v-264q0 -92 29 -130.5t117 -38.5q45 0 86 7v426q0 11 3.5 13.5t14.5 2.5h62q7 0 10.5 -1t5.5 -4.5t2 -10.5v-428q0 -72 -70 -84q-42 -8 -122 -8q-128 0 -182 58.5t-54 194.5v267zM294 580q-14 -4 -23 9 l-110 153q-8 12 7 16l77 21q15 4 21 -10l66 -158q5 -10 4 -13.5t-10 -5.5z" />
<glyph unicode="&#xfa;" horiz-adv-x="558" d="M65 510q0 11 3.5 13.5t14.5 2.5h62q7 0 10.5 -1t5.5 -4.5t2 -10.5v-264q0 -92 29 -130.5t117 -38.5q45 0 86 7v426q0 11 3.5 13.5t14.5 2.5h62q7 0 10.5 -1t5.5 -4.5t2 -10.5v-428q0 -72 -70 -84q-42 -8 -122 -8q-128 0 -182 58.5t-54 194.5v267zM247 592q-9 2 -10 5.5 t4 13.5l66 158q6 14 21 10l77 -21q15 -4 7 -16l-110 -153q-9 -13 -23 -9z" />
<glyph unicode="&#xfb;" horiz-adv-x="558" d="M65 510q0 11 3.5 13.5t14.5 2.5h62q7 0 10.5 -1t5.5 -4.5t2 -10.5v-264q0 -92 29 -130.5t117 -38.5q45 0 86 7v426q0 11 3.5 13.5t14.5 2.5h62q7 0 10.5 -1t5.5 -4.5t2 -10.5v-428q0 -72 -70 -84q-42 -8 -122 -8q-128 0 -182 58.5t-54 194.5v267zM441 576q-8 -7 -22 2 l-130 91l-130 -94q-12 -7 -21 2l-21 22q-7 7 -1 15l132 133q19 19 41 19q25 0 44 -19l126 -131q13 -13 1 -23z" />
<glyph unicode="&#xfc;" horiz-adv-x="558" d="M65 510q0 11 3.5 13.5t14.5 2.5h62q7 0 10.5 -1t5.5 -4.5t2 -10.5v-264q0 -92 29 -130.5t117 -38.5q45 0 86 7v426q0 11 3.5 13.5t14.5 2.5h62q7 0 10.5 -1t5.5 -4.5t2 -10.5v-428q0 -72 -70 -84q-42 -8 -122 -8q-128 0 -182 58.5t-54 194.5v267zM440 670q0 -23 -18 -41 t-41 -18q-24 0 -42.5 18t-18.5 41q0 22 18.5 40.5t41.5 18.5t41.5 -18t18.5 -41zM256 670q0 -23 -18.5 -41t-41.5 -18t-41.5 18t-18.5 41q0 22 18.5 40.5t41.5 18.5t41.5 -18t18.5 -41z" />
<glyph unicode="&#xfd;" horiz-adv-x="499" d="M290 -84q-23 -68 -60.5 -96.5t-98.5 -28.5q-42 0 -82 11q-16 4 -12 17l12 50q3 14 18 10q32 -7 49 -7q37 0 57.5 14.5t32.5 50.5l23 69h-21q-13 0 -20 1.5t-15 11t-14 27.5l-148 468q-3 11 9 11h77q11 0 15 -10l76 -247l54 -185h6l60 186l82 246q4 10 15 10h74 q12 0 9 -11zM230 592q-9 2 -10 5.5t4 13.5l66 158q6 14 21 10l77 -21q15 -4 7 -16l-110 -153q-9 -13 -23 -9z" />
<glyph unicode="&#xfe;" horiz-adv-x="565" d="M520 263q0 -118 -60.5 -196t-172.5 -78q-63 0 -123 15v-190q0 -11 -3.5 -13.5t-14.5 -2.5h-63q-7 0 -10.5 1t-5.5 4.5t-2 10.5v901q0 11 3.5 13.5t14.5 2.5h63q7 0 10.5 -1t5.5 -4.5t2 -10.5v-190q56 11 120 11q117 0 176.5 -75.5t59.5 -197.5zM418 263q0 189 -150 189 q-65 0 -104 -17v-346q59 -15 107 -15q147 0 147 189z" />
<glyph unicode="&#xff;" horiz-adv-x="499" d="M290 -84q-23 -68 -60.5 -96.5t-98.5 -28.5q-42 0 -82 11q-16 4 -12 17l12 50q3 14 18 10q32 -7 49 -7q37 0 57.5 14.5t32.5 50.5l23 69h-21q-13 0 -20 1.5t-15 11t-14 27.5l-148 468q-3 11 9 11h77q11 0 15 -10l76 -247l54 -185h6l60 186l82 246q4 10 15 10h74 q12 0 9 -11zM400 670q0 -23 -18 -41t-41 -18q-24 0 -42.5 18t-18.5 41q0 22 18.5 40.5t41.5 18.5t41.5 -18t18.5 -41zM216 670q0 -23 -18.5 -41t-41.5 -18t-41.5 18t-18.5 41q0 22 18.5 40.5t41.5 18.5t41.5 -18t18.5 -41z" />
<glyph unicode="&#x100;" horiz-adv-x="629" d="M524 0q-9 0 -13 0.5t-8 4t-6 11.5l-47 142h-271l-47 -142q-6 -16 -24 -16h-77q-22 0 -14 21l222 637q9 26 20 34.5t37 9.5h33q29 0 40 -9t20 -35l223 -637q3 -9 -0.5 -15t-12.5 -6h-75zM359 442l-45 142h-5l-42 -137l-61 -198h214zM193 773q-11 0 -13.5 3.5t-2.5 14.5v42 q0 7 1 10.5t4.5 5.5t10.5 2h243q10 0 13 -4t3 -14v-42q0 -11 -2.5 -14.5t-13.5 -3.5h-243z" />
<glyph unicode="&#x101;" horiz-adv-x="545" d="M480 52q0 -21 -17 -29q-76 -34 -200 -34q-218 0 -218 167q0 76 52.5 127.5t169.5 51.5h114v18q0 49 -24 73.5t-89 24.5q-63 0 -138 -20q-19 -6 -22 8l-13 49q-5 14 9 19q73 29 181 29q195 0 195 -178v-306zM380 251h-107q-129 0 -129 -95q0 -86 118 -86q68 0 118 17v164z M158 618q-11 0 -13.5 3.5t-2.5 14.5v42q0 7 1 10.5t4.5 5.5t10.5 2h243q10 0 13 -4t3 -14v-42q0 -11 -2.5 -14.5t-13.5 -3.5h-243z" />
<glyph unicode="&#x102;" horiz-adv-x="629" d="M524 0q-9 0 -13 0.5t-8 4t-6 11.5l-47 142h-271l-47 -142q-6 -16 -24 -16h-77q-22 0 -14 21l222 637q9 26 20 34.5t37 9.5h33q29 0 40 -9t20 -35l223 -637q3 -9 -0.5 -15t-12.5 -6h-75zM359 442l-45 142h-5l-42 -137l-61 -198h214zM307 747q-89 0 -166 108q-8 11 3 20 l22 19q3 2 5 3t3.5 1.5t3.5 0t2.5 -1t3.5 -3t5 -3.5q66 -68 122 -68q54 0 123 71q10 10 21 2l22 -18q12 -11 4 -21q-84 -110 -174 -110z" />
<glyph unicode="&#x103;" horiz-adv-x="545" d="M480 52q0 -21 -17 -29q-76 -34 -200 -34q-218 0 -218 167q0 76 52.5 127.5t169.5 51.5h114v18q0 49 -24 73.5t-89 24.5q-63 0 -138 -20q-19 -6 -22 8l-13 49q-5 14 9 19q73 29 181 29q195 0 195 -178v-306zM380 251h-107q-129 0 -129 -95q0 -86 118 -86q68 0 118 17v164z M287 589q-89 0 -166 108q-8 11 3 20l22 19q3 2 5 3t3.5 1.5t3.5 0t2.5 -1t3.5 -3t5 -3.5q66 -68 122 -68q54 0 123 71q10 10 21 2l22 -18q12 -11 4 -21q-84 -110 -174 -110z" />
<glyph unicode="&#x104;" horiz-adv-x="629" d="M500 5l1 1q-2 1 -4 10l-47 142h-271l-47 -142q-6 -16 -24 -16h-77q-22 0 -14 21l222 637q9 26 20 34.5t37 9.5h33q29 0 40 -9t20 -35l223 -637q3 -9 -0.5 -15t-12.5 -6h-46q-64 -70 -64 -122q0 -19 12 -26t38 -7q11 0 49 8q8 3 11 2t5 -9l7 -21q4 -12 -7 -17 q-42 -20 -95 -20q-49 0 -72.5 20.5t-24.5 53.5q0 39 24.5 80t63.5 63zM359 442l-45 142h-5l-42 -137l-61 -198h214z" />
<glyph unicode="&#x105;" horiz-adv-x="545" d="M480 52q0 -20 -13 -27q-61 -68 -61 -119q0 -19 12 -26t38 -7q11 0 49 8q8 3 11 2t5 -9l7 -21q4 -12 -7 -17q-42 -20 -95 -20q-49 0 -72.5 20.5t-24.5 53.5q-2 56 45 108q-50 -9 -111 -9q-218 0 -218 167q0 76 52.5 127.5t169.5 51.5h114v18q0 49 -24 73.5t-89 24.5 q-63 0 -138 -20q-19 -6 -22 8l-13 49q-5 14 9 19q73 29 181 29q195 0 195 -178v-306zM380 251h-107q-129 0 -129 -95q0 -86 118 -86q68 0 118 17v164z" />
<glyph unicode="&#x106;" horiz-adv-x="606" d="M375 86q75 0 154 34q19 8 26 -9l21 -48q5 -15 4 -18.5t-9 -9.5q-75 -46 -214 -46q-145 0 -223.5 87t-78.5 264q0 167 85.5 268.5t224.5 101.5q106 0 186 -41q14 -7 5 -25l-25 -52q-7 -13 -20 -8q-70 29 -142 29q-70 0 -118.5 -41t-69 -100.5t-20.5 -131.5 q0 -254 214 -254zM290 779q-9 10 4 20l144 106q13 9 22 -2l46 -64q11 -11 -2 -17l-170 -76q-15 -6 -25 4z" />
<glyph unicode="&#x107;" horiz-adv-x="482" d="M285 74q67 0 119 28q14 8 21 -6l23 -48q9 -15 -6 -23q-63 -36 -171 -36q-110 0 -168 68t-58 200q0 127 64 203t173 76q86 0 149 -35q15 -8 6 -23l-23 -48q-6 -13 -21 -6q-57 24 -109 24q-70 0 -105 -54.5t-35 -136.5q0 -183 141 -183zM233 592q-9 2 -10 5.5t4 13.5 l66 158q6 14 21 10l77 -21q15 -4 7 -16l-110 -153q-9 -13 -23 -9z" />
<glyph unicode="&#x108;" horiz-adv-x="606" d="M375 86q75 0 154 34q19 8 26 -9l21 -48q5 -15 4 -18.5t-9 -9.5q-75 -46 -214 -46q-145 0 -223.5 87t-78.5 264q0 167 85.5 268.5t224.5 101.5q106 0 186 -41q14 -7 5 -25l-25 -52q-7 -13 -20 -8q-70 29 -142 29q-70 0 -118.5 -41t-69 -100.5t-20.5 -131.5 q0 -254 214 -254zM510 745q-4 -6 -22 2l-131 62l-130 -64q-11 -5 -19 3l-18 21q-8 10 0 16l127 102q23 18 41 18q23 0 44 -18l122 -102q12 -9 2 -21z" />
<glyph unicode="&#x109;" horiz-adv-x="482" d="M285 74q67 0 119 28q14 8 21 -6l23 -48q9 -15 -6 -23q-63 -36 -171 -36q-110 0 -168 68t-58 200q0 127 64 203t173 76q86 0 149 -35q15 -8 6 -23l-23 -48q-6 -13 -21 -6q-57 24 -109 24q-70 0 -105 -54.5t-35 -136.5q0 -183 141 -183zM429 580q-8 -7 -22 2l-130 91 l-130 -94q-12 -7 -21 2l-21 22q-7 7 -1 15l132 133q19 19 41 19q25 0 44 -19l126 -131q13 -13 1 -23z" />
<glyph unicode="&#x10a;" horiz-adv-x="606" d="M375 86q75 0 154 34q19 8 26 -9l21 -48q5 -15 4 -18.5t-9 -9.5q-75 -46 -214 -46q-145 0 -223.5 87t-78.5 264q0 167 85.5 268.5t224.5 101.5q106 0 186 -41q14 -7 5 -25l-25 -52q-7 -13 -20 -8q-70 29 -142 29q-70 0 -118.5 -41t-69 -100.5t-20.5 -131.5 q0 -254 214 -254zM424 816q0 -25 -19 -43.5t-44 -18.5q-26 0 -44.5 18.5t-18.5 43.5t18.5 43.5t44.5 18.5q25 0 44 -18.5t19 -43.5z" />
<glyph unicode="&#x10b;" horiz-adv-x="482" d="M285 74q67 0 119 28q14 8 21 -6l23 -48q9 -15 -6 -23q-63 -36 -171 -36q-110 0 -168 68t-58 200q0 127 64 203t173 76q86 0 149 -35q15 -8 6 -23l-23 -48q-6 -13 -21 -6q-57 24 -109 24q-70 0 -105 -54.5t-35 -136.5q0 -183 141 -183zM345 672q0 -25 -19 -43.5t-44 -18.5 q-26 0 -44.5 18.5t-18.5 43.5t18.5 43.5t44.5 18.5q25 0 44 -18.5t19 -43.5z" />
<glyph unicode="&#x10c;" horiz-adv-x="606" d="M375 86q75 0 154 34q19 8 26 -9l21 -48q5 -15 4 -18.5t-9 -9.5q-75 -46 -214 -46q-145 0 -223.5 87t-78.5 264q0 167 85.5 268.5t224.5 101.5q106 0 186 -41q14 -7 5 -25l-25 -52q-7 -13 -20 -8q-70 29 -142 29q-70 0 -118.5 -41t-69 -100.5t-20.5 -131.5 q0 -254 214 -254zM528 881q13 -11 -1 -23l-126 -99q-22 -17 -44 -17q-18 0 -41 17l-132 101q-6 8 1 15l16 23q9 9 21 3l135 -64l130 63q15 7 22 2z" />
<glyph unicode="&#x10d;" horiz-adv-x="482" d="M285 74q67 0 119 28q14 8 21 -6l23 -48q9 -15 -6 -23q-63 -36 -171 -36q-110 0 -168 68t-58 200q0 127 64 203t173 76q86 0 149 -35q15 -8 6 -23l-23 -48q-6 -13 -21 -6q-57 24 -109 24q-70 0 -105 -54.5t-35 -136.5q0 -183 141 -183zM444 750q12 -10 -1 -23l-126 -131 q-19 -19 -44 -19q-22 0 -41 19l-132 133q-7 9 1 15l22 20q9 9 21 2l129 -92l130 91q14 9 22 2z" />
<glyph unicode="&#x10e;" horiz-adv-x="682" d="M521 353q0 255 -214 255h-127v-514h130q115 0 163 68.5t48 190.5zM129 0q-29 0 -41.5 12.5t-12.5 41.5v593q0 29 12.5 41.5t41.5 12.5l183 1q153 0 234 -92t81 -255q0 -164 -76 -259.5t-229 -95.5h-193zM478 881q13 -11 -1 -23l-126 -99q-22 -17 -44 -17q-18 0 -41 17 l-132 101q-6 8 1 15l16 23q9 9 21 3l135 -64l130 63q15 7 22 2z" />
<glyph unicode="&#x10f;" horiz-adv-x="689" d="M45 254q0 121 61.5 201.5t182.5 80.5q61 0 112 -13v192q0 11 3.5 13.5t14.5 2.5h63q7 0 10.5 -1t5.5 -4.5t2 -10.5v-670q0 -15 -13 -19q-86 -37 -208 -37q-234 0 -234 265zM147 254q0 -96 37.5 -138.5t110.5 -42.5q67 0 106 17v347q-55 14 -105 14q-68 0 -108.5 -47.5 t-40.5 -149.5zM642 505q-4 -12 -7 -15t-14 -3h-33q-11 0 -16 3.5t-4 11.5l15 191q2 18 18 18h87q11 0 15.5 -5.5t2.5 -12.5z" />
<glyph unicode="&#x110;" horiz-adv-x="682" d="M129 0q-29 0 -41.5 12.5t-12.5 41.5v261h-49q-11 0 -13.5 3.5t-2.5 14.5v46q0 7 1 10.5t4.5 5.5t10.5 2h49v250q0 29 12.5 41.5t41.5 12.5l183 1q153 0 234 -92t81 -255q0 -164 -76 -259.5t-229 -95.5h-193zM520 353q0 255 -214 255h-125v-211h148q10 0 13 -4t3 -14v-46 q0 -11 -2.5 -14.5t-13.5 -3.5h-148v-221h128q115 0 163 68.5t48 190.5z" />
<glyph unicode="&#x111;" horiz-adv-x="565" d="M45 254q0 121 61.5 201.5t182.5 80.5q61 0 112 -13v70h-162q-9 0 -11 3t-2 12v29q0 9 2 12t11 3h162v63q0 11 3.5 13.5t14.5 2.5h63q7 0 10.5 -1t5.5 -4.5t2 -10.5v-63h47q9 0 11 -3t2 -12v-29q0 -9 -2 -12t-11 -3h-47v-548q0 -15 -13 -19q-86 -37 -208 -37 q-234 0 -234 265zM147 254q0 -96 37.5 -138.5t110.5 -42.5q67 0 106 17v347q-55 14 -105 14q-68 0 -108.5 -47.5t-40.5 -149.5z" />
<glyph unicode="&#x112;" horiz-adv-x="588" d="M548 23q0 -13 -4 -18t-17 -5h-278q-174 0 -174 176v348q0 76 43 126.5t131 50.5h274q13 0 17 -5t4 -18v-48q0 -13 -3.5 -17.5t-17.5 -4.5h-274q-38 0 -54.5 -16.5t-16.5 -52.5v-123h312q12 0 16 -5t4 -18v-42q0 -12 -4 -17.5t-16 -5.5h-312v-166q0 -68 71 -68h278 q14 0 17.5 -4.5t3.5 -18.5v-48zM219 771q-11 0 -13.5 3.5t-2.5 14.5v42q0 7 1 10.5t4.5 5.5t10.5 2h243q10 0 13 -4t3 -14v-42q0 -11 -2.5 -14.5t-13.5 -3.5h-243z" />
<glyph unicode="&#x113;" horiz-adv-x="542" d="M279 536q111 0 165.5 -57.5t54.5 -160.5q0 -86 -83 -86h-272q2 -82 43.5 -120t108.5 -38q66 0 118 29q15 7 21 -6l24 -47q7 -16 -6 -23q-63 -38 -164 -38q-244 0 -244 271q0 128 66 202t168 74zM406 310q0 144 -126 144q-58 0 -94 -43.5t-38 -100.5h258zM165 623 q-11 0 -13.5 3.5t-2.5 14.5v42q0 7 1 10.5t4.5 5.5t10.5 2h243q10 0 13 -4t3 -14v-42q0 -11 -2.5 -14.5t-13.5 -3.5h-243z" />
<glyph unicode="&#x114;" horiz-adv-x="588" d="M548 23q0 -13 -4 -18t-17 -5h-278q-174 0 -174 176v348q0 76 43 126.5t131 50.5h274q13 0 17 -5t4 -18v-48q0 -13 -3.5 -17.5t-17.5 -4.5h-274q-38 0 -54.5 -16.5t-16.5 -52.5v-123h312q12 0 16 -5t4 -18v-42q0 -12 -4 -17.5t-16 -5.5h-312v-166q0 -68 71 -68h278 q14 0 17.5 -4.5t3.5 -18.5v-48zM338 747q-89 0 -166 108q-8 11 3 20l22 19q3 2 5 3t3.5 1.5t3.5 0t2.5 -1t3.5 -3t5 -3.5q66 -68 122 -68q54 0 123 71q10 10 21 2l22 -18q12 -11 4 -21q-84 -110 -174 -110z" />
<glyph unicode="&#x115;" horiz-adv-x="542" d="M279 536q111 0 165.5 -57.5t54.5 -160.5q0 -86 -83 -86h-272q2 -82 43.5 -120t108.5 -38q66 0 118 29q15 7 21 -6l24 -47q7 -16 -6 -23q-63 -38 -164 -38q-244 0 -244 271q0 128 66 202t168 74zM406 310q0 144 -126 144q-58 0 -94 -43.5t-38 -100.5h258zM273 585 q-89 0 -166 108q-8 11 3 20l22 19q3 2 5 3t3.5 1.5t3.5 0t2.5 -1t3.5 -3t5 -3.5q66 -68 122 -68q54 0 123 71q10 10 21 2l22 -18q12 -11 4 -21q-84 -110 -174 -110z" />
<glyph unicode="&#x116;" horiz-adv-x="588" d="M548 23q0 -13 -4 -18t-17 -5h-278q-174 0 -174 176v348q0 76 43 126.5t131 50.5h274q13 0 17 -5t4 -18v-48q0 -13 -3.5 -17.5t-17.5 -4.5h-274q-38 0 -54.5 -16.5t-16.5 -52.5v-123h312q12 0 16 -5t4 -18v-42q0 -12 -4 -17.5t-16 -5.5h-312v-166q0 -68 71 -68h278 q14 0 17.5 -4.5t3.5 -18.5v-48zM389 810q0 -25 -19 -43.5t-44 -18.5q-26 0 -44.5 18.5t-18.5 43.5t18.5 43.5t44.5 18.5q25 0 44 -18.5t19 -43.5z" />
<glyph unicode="&#x117;" horiz-adv-x="542" d="M279 536q111 0 165.5 -57.5t54.5 -160.5q0 -86 -83 -86h-272q2 -82 43.5 -120t108.5 -38q66 0 118 29q15 7 21 -6l24 -47q7 -16 -6 -23q-63 -38 -164 -38q-244 0 -244 271q0 128 66 202t168 74zM406 310q0 144 -126 144q-58 0 -94 -43.5t-38 -100.5h258zM341 670 q0 -25 -19 -43.5t-44 -18.5q-26 0 -44.5 18.5t-18.5 43.5t18.5 43.5t44.5 18.5q25 0 44 -18.5t19 -43.5z" />
<glyph unicode="&#x118;" horiz-adv-x="588" d="M548 23q0 -18 -10 -22q-63 -69 -63 -121q0 -19 12 -26t38 -7q11 0 49 8q8 3 11 2t5 -9l7 -21q4 -12 -7 -17q-42 -20 -95 -20q-49 0 -72.5 20.5t-24.5 53.5q-1 36 20.5 74t56.5 62h-226q-174 0 -174 176v348q0 76 43 126.5t131 50.5h274q13 0 17 -5t4 -18v-48 q0 -13 -3.5 -17.5t-17.5 -4.5h-274q-38 0 -54.5 -16.5t-16.5 -52.5v-123h312q12 0 16 -5t4 -18v-42q0 -12 -4 -17.5t-16 -5.5h-312v-166q0 -68 71 -68h278q14 0 17.5 -4.5t3.5 -18.5v-48z" />
<glyph unicode="&#x119;" horiz-adv-x="542" d="M279 536q111 0 165.5 -57.5t54.5 -160.5q0 -86 -83 -86h-272q2 -82 43.5 -120t108.5 -38q66 0 118 29q15 7 21 -6l24 -47q6 -16 -4 -22q-61 -68 -61 -119q0 -19 12 -26t38 -7q11 0 49 8q8 3 11 2t5 -9l7 -21q4 -12 -7 -17q-42 -20 -95 -20q-49 0 -72.5 20.5t-24.5 53.5 q-1 49 39 101q-38 -5 -67 -5q-244 0 -244 271q0 128 66 202t168 74zM406 310q0 144 -126 144q-58 0 -94 -43.5t-38 -100.5h258z" />
<glyph unicode="&#x11a;" horiz-adv-x="588" d="M548 23q0 -13 -4 -18t-17 -5h-278q-174 0 -174 176v348q0 76 43 126.5t131 50.5h274q13 0 17 -5t4 -18v-48q0 -13 -3.5 -17.5t-17.5 -4.5h-274q-38 0 -54.5 -16.5t-16.5 -52.5v-123h312q12 0 16 -5t4 -18v-42q0 -12 -4 -17.5t-16 -5.5h-312v-166q0 -68 71 -68h278 q14 0 17.5 -4.5t3.5 -18.5v-48zM505 881q13 -11 -1 -23l-126 -99q-22 -17 -44 -17q-18 0 -41 17l-132 101q-6 8 1 15l16 23q9 9 21 3l135 -64l130 63q15 7 22 2z" />
<glyph unicode="&#x11b;" horiz-adv-x="542" d="M279 536q111 0 165.5 -57.5t54.5 -160.5q0 -86 -83 -86h-272q2 -82 43.5 -120t108.5 -38q66 0 118 29q15 7 21 -6l24 -47q7 -16 -6 -23q-63 -38 -164 -38q-244 0 -244 271q0 128 66 202t168 74zM444 748q12 -10 -1 -23l-126 -131q-19 -19 -44 -19q-22 0 -41 19l-132 133 q-7 9 1 15l22 20q9 9 21 2l129 -92l130 91q14 9 22 2zM406 310q0 144 -126 144q-58 0 -94 -43.5t-38 -100.5h258z" />
<glyph unicode="&#x11c;" horiz-adv-x="658" d="M367 83q79 0 130 20v214q-9 1 -26 1q-81 2 -151 -30q-11 -6 -16.5 -5.5t-10.5 8.5l-21 51q-7 15 7 24q71 45 173 45q46 0 73 -4q42 -8 57.5 -27t15.5 -62v-248q0 -18 -15 -29q-82 -52 -226 -52q-145 0 -223.5 87.5t-78.5 265.5q0 169 83 268.5t226 99.5q114 0 194 -41 q14 -7 5 -25l-25 -57q-7 -13 -20 -8q-70 29 -152 29q-106 0 -155.5 -77t-49.5 -191q0 -57 9 -100t30.5 -80t63.5 -57t103 -20zM502 745q-4 -6 -22 2l-131 62l-130 -64q-11 -5 -19 3l-18 21q-8 10 0 16l127 102q23 18 41 18q23 0 44 -18l122 -102q12 -9 2 -21z" />
<glyph unicode="&#x11d;" horiz-adv-x="565" d="M402 437q-49 15 -107 15q-150 0 -150 -191q0 -93 36 -140.5t103 -47.5q62 0 118 17v347zM292 535q114 0 196 -34q13 -4 13 -20v-437q0 -129 -61.5 -188.5t-195.5 -78.5q-15 -1 -18 11l-8 63q0 12 11 14q90 13 130.5 43t40.5 94v5q-68 -19 -128 -19q-114 0 -170.5 72 t-56.5 195q0 129 61.5 204.5t185.5 75.5zM453 576q-8 -7 -22 2l-130 91l-130 -94q-12 -7 -21 2l-21 22q-7 7 -1 15l132 133q19 19 41 19q25 0 44 -19l126 -131q13 -13 1 -23z" />
<glyph unicode="&#x11e;" horiz-adv-x="658" d="M367 83q79 0 130 20v214q-9 1 -26 1q-81 2 -151 -30q-11 -6 -16.5 -5.5t-10.5 8.5l-21 51q-7 15 7 24q71 45 173 45q46 0 73 -4q42 -8 57.5 -27t15.5 -62v-248q0 -18 -15 -29q-82 -52 -226 -52q-145 0 -223.5 87.5t-78.5 265.5q0 169 83 268.5t226 99.5q114 0 194 -41 q14 -7 5 -25l-25 -57q-7 -13 -20 -8q-70 29 -152 29q-106 0 -155.5 -77t-49.5 -191q0 -57 9 -100t30.5 -80t63.5 -57t103 -20zM350 747q-89 0 -166 108q-8 11 3 20l22 19q3 2 5 3t3.5 1.5t3.5 0t2.5 -1t3.5 -3t5 -3.5q66 -68 122 -68q54 0 123 71q10 10 21 2l22 -18 q12 -11 4 -21q-84 -110 -174 -110z" />
<glyph unicode="&#x11f;" horiz-adv-x="565" d="M402 437q-49 15 -107 15q-150 0 -150 -191q0 -93 36 -140.5t103 -47.5q62 0 118 17v347zM292 535q114 0 196 -34q13 -4 13 -20v-437q0 -129 -61.5 -188.5t-195.5 -78.5q-15 -1 -18 11l-8 63q0 12 11 14q90 13 130.5 43t40.5 94v5q-68 -19 -128 -19q-114 0 -170.5 72 t-56.5 195q0 129 61.5 204.5t185.5 75.5zM307 593q-89 0 -166 108q-8 11 3 20l22 19q3 2 5 3t3.5 1.5t3.5 0t2.5 -1t3.5 -3t5 -3.5q66 -68 122 -68q54 0 123 71q10 10 21 2l22 -18q12 -11 4 -21q-84 -110 -174 -110z" />
<glyph unicode="&#x120;" horiz-adv-x="658" d="M367 83q79 0 130 20v214q-9 1 -26 1q-81 2 -151 -30q-11 -6 -16.5 -5.5t-10.5 8.5l-21 51q-7 15 7 24q71 45 173 45q46 0 73 -4q42 -8 57.5 -27t15.5 -62v-248q0 -18 -15 -29q-82 -52 -226 -52q-145 0 -223.5 87.5t-78.5 265.5q0 169 83 268.5t226 99.5q114 0 194 -41 q14 -7 5 -25l-25 -57q-7 -13 -20 -8q-70 29 -152 29q-106 0 -155.5 -77t-49.5 -191q0 -57 9 -100t30.5 -80t63.5 -57t103 -20zM425 810q0 -25 -19 -43.5t-44 -18.5q-26 0 -44.5 18.5t-18.5 43.5t18.5 43.5t44.5 18.5q25 0 44 -18.5t19 -43.5z" />
<glyph unicode="&#x121;" horiz-adv-x="565" d="M402 437q-49 15 -107 15q-150 0 -150 -191q0 -93 36 -140.5t103 -47.5q62 0 118 17v347zM292 535q114 0 196 -34q13 -4 13 -20v-437q0 -129 -61.5 -188.5t-195.5 -78.5q-15 -1 -18 11l-8 63q0 12 11 14q90 13 130.5 43t40.5 94v5q-68 -19 -128 -19q-114 0 -170.5 72 t-56.5 195q0 129 61.5 204.5t185.5 75.5zM368 676q0 -25 -19 -43.5t-44 -18.5q-26 0 -44.5 18.5t-18.5 43.5t18.5 43.5t44.5 18.5q25 0 44 -18.5t19 -43.5z" />
<glyph unicode="&#x122;" horiz-adv-x="658" d="M367 83q79 0 130 20v214q-9 1 -26 1q-81 2 -151 -30q-11 -6 -16.5 -5.5t-10.5 8.5l-21 51q-7 15 7 24q71 45 173 45q46 0 73 -4q42 -8 57.5 -27t15.5 -62v-248q0 -18 -15 -29q-82 -52 -226 -52q-145 0 -223.5 87.5t-78.5 265.5q0 169 83 268.5t226 99.5q114 0 194 -41 q14 -7 5 -25l-25 -57q-7 -13 -20 -8q-70 29 -152 29q-106 0 -155.5 -77t-49.5 -191q0 -57 9 -100t30.5 -80t63.5 -57t103 -20zM370 -275q-4 -12 -7 -15t-14 -3h-33q-11 0 -16 3.5t-4 11.5l15 191q2 18 18 18h87q11 0 15.5 -5.5t2.5 -12.5z" />
<glyph unicode="&#x123;" horiz-adv-x="565" d="M290 773q4 10 7.5 13t11.5 3h34q10 0 14.5 -3.5t3.5 -10.5l-14 -173q0 -16 -16 -16h-77q-9 0 -13.5 5t-2.5 11zM402 437q-49 15 -107 15q-150 0 -150 -191q0 -93 36 -140.5t103 -47.5q62 0 118 17v347zM292 535q114 0 196 -34q13 -4 13 -20v-437q0 -129 -61.5 -188.5 t-195.5 -78.5q-15 -1 -18 11l-8 63q0 12 11 14q90 13 130.5 43t40.5 94v5q-68 -19 -128 -19q-114 0 -170.5 72t-56.5 195q0 129 61.5 204.5t185.5 75.5z" />
<glyph unicode="&#x124;" horiz-adv-x="694" d="M515 679q0 13 5 17t18 4h58q14 0 18.5 -3.5t4.5 -17.5v-658q0 -14 -4.5 -17.5t-18.5 -3.5h-58q-13 0 -18 4t-5 17v303h-336v-303q0 -14 -4.5 -17.5t-18.5 -3.5h-58q-13 0 -18 4t-5 17v658q0 13 5 17t18 4h58q14 0 18.5 -3.5t4.5 -17.5v-266h336v266zM497 750q-4 -6 -22 2 l-131 62l-130 -64q-11 -5 -19 3l-18 21q-8 10 0 16l127 102q23 18 41 18q23 0 44 -18l122 -102q12 -9 2 -21z" />
<glyph unicode="&#x125;" horiz-adv-x="568" d="M504 16q0 -10 -4 -13t-14 -3h-63q-11 0 -14.5 2.5t-3.5 13.5v280q0 154 -129 154q-70 0 -113 -18v-416q0 -11 -3.5 -13.5t-14.5 -2.5h-62q-7 0 -10.5 1t-5.5 4.5t-2 10.5v699q0 10 4 13t14 3h62q11 0 14.5 -2.5t3.5 -13.5v-200q56 21 130 21q211 0 211 -239v-281z M271 745q-4 -6 -22 2l-131 62l-130 -64q-11 -5 -19 3l-18 21q-8 10 0 16l127 102q22 18 41 18q23 0 44 -18l122 -102q12 -9 2 -21z" />
<glyph unicode="&#x126;" horiz-adv-x="694" d="M30 539q-9 0 -11 3t-2 12v29q0 9 2 12t11 3h45v86q0 10 4 13t14 3h70q11 0 14.5 -2.5t3.5 -13.5v-86h335v86q0 10 4 13t14 3h67q11 0 14.5 -2.5t3.5 -13.5v-86h37q9 0 11 -3t2 -12v-29q0 -9 -2 -12t-11 -3h-37v-523q0 -11 -3.5 -13.5t-14.5 -2.5h-67q-7 0 -10.5 1 t-5.5 4.5t-2 10.5v307h-335v-307q0 -11 -3.5 -13.5t-14.5 -2.5h-70q-7 0 -10.5 1t-5.5 4.5t-2 10.5v523h-45zM516 413v126h-335v-126h335z" />
<glyph unicode="&#x127;" horiz-adv-x="568" d="M25 590q-9 0 -11 3t-2 12v29q0 9 2 12t11 3h40v66q0 10 4 13t14 3h62q11 0 14.5 -2.5t3.5 -13.5v-66h200q9 0 11 -3t2 -12v-29q0 -9 -2 -12t-11 -3h-200v-106q56 21 130 21q211 0 211 -239v-250q0 -10 -4 -13t-14 -3h-63q-11 0 -14.5 2.5t-3.5 13.5v249q0 154 -129 154 q-70 0 -113 -18v-385q0 -11 -3.5 -13.5t-14.5 -2.5h-62q-7 0 -10.5 1t-5.5 4.5t-2 10.5v574h-40z" />
<glyph unicode="&#x128;" horiz-adv-x="275" d="M86 679q0 13 5 17t18 4h58q14 0 18.5 -3.5t4.5 -17.5v-658q0 -14 -4.5 -17.5t-18.5 -3.5h-58q-13 0 -18 4t-5 17v658zM204 763q-24 0 -67.5 18t-65.5 18q-26 0 -40 -27q-7 -12 -21 -6l-34 15q-10 3 -12 5.5t1 11.5q43 74 108 74q25 0 66 -19.5t58 -19.5q31 0 43 28 q5 12 19 8l39 -11q16 -3 12 -15q-19 -40 -43 -60t-63 -20z" />
<glyph unicode="&#x129;" horiz-adv-x="274" d="M186 16q0 -11 -3.5 -13.5t-14.5 -2.5h-62q-7 0 -10.5 1t-5.5 4.5t-2 10.5v493q0 10 4 13t14 3h62q11 0 14.5 -2.5t3.5 -13.5v-493zM206 623q-24 0 -67.5 18t-65.5 18q-26 0 -40 -27q-7 -12 -21 -6l-34 15q-10 3 -12 5.5t1 11.5q43 74 108 74q25 0 66 -19.5t58 -19.5 q31 0 43 28q5 12 19 8l39 -11q16 -3 12 -15q-19 -40 -43 -60t-63 -20z" />
<glyph unicode="&#x12a;" horiz-adv-x="275" d="M86 679q0 13 5 17t18 4h58q14 0 18.5 -3.5t4.5 -17.5v-658q0 -14 -4.5 -17.5t-18.5 -3.5h-58q-13 0 -18 4t-5 17v658zM15 783q-11 0 -13.5 3.5t-2.5 14.5v42q0 7 1 10.5t4.5 5.5t10.5 2h243q10 0 13 -4t3 -14v-42q0 -11 -2.5 -14.5t-13.5 -3.5h-243z" />
<glyph unicode="&#x12b;" horiz-adv-x="274" d="M186 16q0 -11 -3.5 -13.5t-14.5 -2.5h-62q-7 0 -10.5 1t-5.5 4.5t-2 10.5v493q0 10 4 13t14 3h62q11 0 14.5 -2.5t3.5 -13.5v-493zM16 588q-11 0 -13.5 3.5t-2.5 14.5v42q0 7 1 10.5t4.5 5.5t10.5 2h243q10 0 13 -4t3 -14v-42q0 -11 -2.5 -14.5t-13.5 -3.5h-243z" />
<glyph unicode="&#x12c;" horiz-adv-x="275" d="M86 679q0 13 5 17t18 4h58q14 0 18.5 -3.5t4.5 -17.5v-658q0 -14 -4.5 -17.5t-18.5 -3.5h-58q-13 0 -18 4t-5 17v658zM134 737q-89 0 -166 108q-8 11 3 20l22 19q3 2 5 3t3.5 1.5t3.5 0t2.5 -1t3.5 -3t5 -3.5q66 -68 122 -68q54 0 123 71q10 10 21 2l22 -18q12 -11 4 -21 q-84 -110 -174 -110z" />
<glyph unicode="&#x12d;" horiz-adv-x="274" d="M186 16q0 -11 -3.5 -13.5t-14.5 -2.5h-62q-7 0 -10.5 1t-5.5 4.5t-2 10.5v493q0 10 4 13t14 3h62q11 0 14.5 -2.5t3.5 -13.5v-493zM135 581q-89 0 -166 108q-8 11 3 20l22 19q3 2 5 3t3.5 1.5t3.5 0t2.5 -1t3.5 -3t5 -3.5q66 -68 122 -68q54 0 123 71q10 10 21 2l22 -18 q12 -11 4 -21q-84 -110 -174 -110z" />
<glyph unicode="&#x12e;" horiz-adv-x="275" d="M86 679q0 13 5 17t18 4h58q14 0 18.5 -3.5t4.5 -17.5v-658q0 -12 -5 -17q0 -1 -2 -3q-64 -70 -64 -122q0 -19 12 -26t38 -7q11 0 49 8q8 3 11 2t5 -9l7 -21q4 -12 -7 -17q-42 -20 -95 -20q-49 0 -72.5 20.5t-24.5 53.5q-1 37 21 75.5t57 61.5h-11q-13 0 -18 4t-5 17v658z " />
<glyph unicode="&#x12f;" horiz-adv-x="254" d="M183 16q0 -13 -9 -16q-60 -66 -60 -118q0 -19 12 -26t38 -7q11 0 49 8q8 3 11 2t5 -9l7 -21q4 -12 -7 -17q-42 -20 -95 -20q-49 0 -72.5 20.5t-24.5 53.5q-1 35 20 72.5t54 61.5h-8q-7 0 -10.5 1t-5.5 4.5t-2 10.5v493q0 10 4 13t14 3h62q11 0 14.5 -2.5t3.5 -13.5v-493z M200 662q0 -27 -19 -46t-46 -19t-46 19t-19 46t19 46t46 19t46 -19t19 -46z" />
<glyph unicode="&#x130;" horiz-adv-x="275" d="M86 679q0 13 5 17t18 4h58q14 0 18.5 -3.5t4.5 -17.5v-658q0 -14 -4.5 -17.5t-18.5 -3.5h-58q-13 0 -18 4t-5 17v658zM199 856q0 -25 -19 -43.5t-44 -18.5q-26 0 -44.5 18.5t-18.5 43.5t18.5 43.5t44.5 18.5q25 0 44 -18.5t19 -43.5z" />
<glyph unicode="&#x131;" horiz-adv-x="274" d="M186 16q0 -11 -3.5 -13.5t-14.5 -2.5h-62q-7 0 -10.5 1t-5.5 4.5t-2 10.5v493q0 10 4 13t14 3h62q11 0 14.5 -2.5t3.5 -13.5v-493z" />
<glyph unicode="&#x132;" horiz-adv-x="777" d="M76 679q0 13 5 17t18 4h58q14 0 18.5 -3.5t4.5 -17.5v-658q0 -14 -4.5 -17.5t-18.5 -3.5h-58q-13 0 -18 4t-5 17v658zM599 679q0 13 5 17t18 4h58q14 0 18.5 -3.5t4.5 -17.5q0 -130 -0.5 -231.5t-0.5 -172.5q0 -286 -263 -286q-123 0 -208 49q-8 6 -9.5 9.5t3.5 16.5 l26 52q8 14 24 5q80 -38 167 -38q84 0 121 48t37 149z" />
<glyph unicode="&#x133;" horiz-adv-x="504" d="M195 662q0 -27 -19 -46t-46 -19t-46 19t-19 46t19 46t46 19t46 -19t19 -46zM178 16q0 -11 -3.5 -13.5t-14.5 -2.5h-62q-7 0 -10.5 1t-5.5 4.5t-2 10.5v493q0 10 4 13t14 3h62q11 0 14.5 -2.5t3.5 -13.5v-493zM439 662q0 -27 -19 -46t-46 -19t-46 19t-19 46t19 46t46 19 t46 -19t19 -46zM424 78q0 -135 -46 -202t-130 -96q-13 -4 -18 8l-20 60q-3 12 11 18q62 29 83 76t21 115v452q0 10 4 13t14 3h63q11 0 14.5 -2.5t3.5 -13.5v-431z" />
<glyph unicode="&#x134;" horiz-adv-x="567" d="M384 679q0 13 5 17t18 4h58q14 0 18.5 -3.5t4.5 -17.5q0 -130 -0.5 -231.5t-0.5 -172.5q0 -286 -263 -286q-123 0 -208 49q-8 6 -9.5 9.5t3.5 16.5l26 52q8 14 24 5q80 -38 167 -38q84 0 121 48t37 149zM586 745q-4 -6 -22 2l-131 62l-130 -64q-11 -5 -19 3l-18 21 q-8 10 0 16l127 102q23 18 41 18q23 0 44 -18l122 -102q12 -9 2 -21z" />
<glyph unicode="&#x135;" horiz-adv-x="307" d="M213 78q0 -135 -46 -202t-130 -96q-13 -4 -18 8l-20 60q-3 12 11 18q62 29 83 76t21 115v452q0 10 4 13t14 3h63q11 0 14.5 -2.5t3.5 -13.5v-431zM312 576q-8 -7 -22 2l-130 91l-130 -94q-12 -7 -21 2l-21 22q-7 7 -1 15l132 133q19 19 41 19q25 0 44 -19l126 -131 q13 -13 1 -23z" />
<glyph unicode="&#x136;" horiz-adv-x="639" d="M75 679q0 13 5 17t18 4h56q14 0 18.5 -3.5t4.5 -17.5v-326l4 -2l104 131l169 205q13 13 34 13h85q9 0 11.5 -5t-2.5 -11l-193 -235l241 -427q12 -22 -10 -22h-72q-18 0 -25.5 3t-15.5 17l-190 343l-140 -174v-168q0 -14 -4.5 -17.5t-18.5 -3.5h-56q-13 0 -18 4t-5 17v658 zM329 -245q-4 -12 -7 -15t-14 -3h-33q-11 0 -16 3.5t-4 11.5l15 191q2 18 18 18h87q11 0 15.5 -5.5t2.5 -12.5z" />
<glyph unicode="&#x137;" horiz-adv-x="504" d="M166 294l188 223q6 8 19 8h88q5 0 6.5 -4.5t-1.5 -8.5l-133 -160l154 -340q7 -12 -8 -12h-74q-17 0 -23 11l-117 262l-103 -118v-139q0 -11 -3.5 -13.5t-14.5 -2.5h-62q-7 0 -10.5 1t-5.5 4.5t-2 10.5v699q0 10 4 13t14 3h62q11 0 14.5 -2.5t3.5 -13.5v-419zM248 -275 q-4 -12 -7 -15t-14 -3h-33q-11 0 -16 3.5t-4 11.5l15 191q2 18 18 18h87q11 0 15.5 -5.5t2.5 -12.5z" />
<glyph unicode="&#x138;" horiz-adv-x="498" d="M167 291l188 226q6 8 19 8h87q5 0 6.5 -4.5t-1.5 -8.5l-163 -192l184 -308q7 -12 -8 -12h-79q-16 0 -23 11l-136 237l-79 -93v-139q0 -11 -3.5 -13.5t-14.5 -2.5h-62q-7 0 -10.5 1t-5.5 4.5t-2 10.5v493q0 10 4 13t14 3h62q11 0 14.5 -2.5t3.5 -13.5v-216z" />
<glyph unicode="&#x139;" horiz-adv-x="558" d="M75 681q0 13 5 17t18 4h57q14 0 18.5 -3.5t4.5 -17.5v-511q0 -76 77 -76h277q10 0 13 -4t3 -14v-57q0 -7 -1 -10.5t-4.5 -6t-10.5 -2.5h-286q-92 0 -131.5 49t-39.5 127v505zM99 779q-9 10 4 20l144 106q13 9 22 -2l46 -64q11 -11 -2 -17l-170 -76q-15 -6 -25 4z" />
<glyph unicode="&#x13a;" horiz-adv-x="286" d="M265 22q1 -9 -0.5 -12.5t-10.5 -8.5q-27 -12 -82 -12q-53 0 -75 24t-22 79v623q0 11 3.5 13.5t14.5 2.5h64q11 0 14.5 -2.5t3.5 -13.5v-596q0 -26 7 -35t26 -9q14 0 36 2q9 1 11.5 -1t3.5 -10zM91 779q-9 10 4 20l144 106q13 9 22 -2l46 -64q11 -11 -2 -17l-170 -76 q-15 -6 -25 4z" />
<glyph unicode="&#x13b;" horiz-adv-x="558" d="M75 681q0 13 5 17t18 4h57q14 0 18.5 -3.5t4.5 -17.5v-511q0 -76 77 -76h277q10 0 13 -4t3 -14v-57q0 -7 -1 -10.5t-4.5 -6t-10.5 -2.5h-286q-92 0 -131.5 49t-39.5 127v505zM334 -275q-4 -12 -7 -15t-14 -3h-33q-11 0 -16 3.5t-4 11.5l15 191q2 18 18 18h87 q11 0 15.5 -5.5t2.5 -12.5z" />
<glyph unicode="&#x13c;" horiz-adv-x="286" d="M265 22q1 -9 -0.5 -12.5t-10.5 -8.5q-27 -12 -82 -12q-53 0 -75 24t-22 79v623q0 11 3.5 13.5t14.5 2.5h64q11 0 14.5 -2.5t3.5 -13.5v-596q0 -26 7 -35t26 -9q14 0 36 2q9 1 11.5 -1t3.5 -10zM143 -275q-4 -12 -7 -15t-14 -3h-33q-11 0 -16 3.5t-4 11.5l15 191 q2 18 18 18h87q11 0 15.5 -5.5t2.5 -12.5z" />
<glyph unicode="&#x13d;" horiz-adv-x="558" d="M75 681q0 13 5 17t18 4h57q14 0 18.5 -3.5t4.5 -17.5v-511q0 -76 77 -76h277q10 0 13 -4t3 -14v-57q0 -7 -1 -10.5t-4.5 -6t-10.5 -2.5h-286q-92 0 -131.5 49t-39.5 127v505zM431 493q-4 -12 -7 -15t-14 -3h-33q-11 0 -16 3.5t-4 11.5l15 191q2 18 18 18h87 q11 0 15.5 -5.5t2.5 -12.5z" />
<glyph unicode="&#x13e;" horiz-adv-x="365" d="M265 22q1 -9 -0.5 -12.5t-10.5 -8.5q-27 -12 -82 -12q-53 0 -75 24t-22 79v623q0 11 3.5 13.5t14.5 2.5h64q11 0 14.5 -2.5t3.5 -13.5v-596q0 -26 7 -35t26 -9q14 0 36 2q9 1 11.5 -1t3.5 -10zM322 505q-4 -12 -7 -15t-14 -3h-33q-11 0 -16 3.5t-4 11.5l15 191 q2 18 18 18h87q11 0 15.5 -5.5t2.5 -12.5z" />
<glyph unicode="&#x13f;" horiz-adv-x="558" d="M75 681q0 13 5 17t18 4h57q14 0 18.5 -3.5t4.5 -17.5v-511q0 -76 77 -76h277q10 0 13 -4t3 -14v-57q0 -7 -1 -10.5t-4.5 -6t-10.5 -2.5h-286q-92 0 -131.5 49t-39.5 127v505zM459 376q0 -25 -19 -43.5t-44 -18.5q-26 0 -44.5 18.5t-18.5 43.5t18.5 43.5t44.5 18.5 q25 0 44 -18.5t19 -43.5z" />
<glyph unicode="&#x140;" horiz-adv-x="359" d="M265 22q1 -9 -0.5 -12.5t-10.5 -8.5q-27 -12 -82 -12q-53 0 -75 24t-22 79v623q0 11 3.5 13.5t14.5 2.5h64q11 0 14.5 -2.5t3.5 -13.5v-596q0 -26 7 -35t26 -9q14 0 36 2q9 1 11.5 -1t3.5 -10zM366 386q0 -25 -19 -43.5t-44 -18.5q-26 0 -44.5 18.5t-18.5 43.5t18.5 43.5 t44.5 18.5q25 0 44 -18.5t19 -43.5z" />
<glyph unicode="&#x141;" horiz-adv-x="558" d="M548 21q0 -7 -1 -10.5t-4.5 -6t-10.5 -2.5h-286q-92 0 -131.5 49t-39.5 127v97l-48 -27q-19 -12 -30 5l-19 29q-9 17 8 28l89 51v326q0 11 4 14t14 3h67q10 0 14 -3t4 -14v-266l106 61q19 12 29 -6l20 -30q9 -15 -11 -28l-144 -83v-163q0 -76 77 -76h277q10 0 13 -4 t3 -14v-57z" />
<glyph unicode="&#x142;" horiz-adv-x="286" d="M265 22q1 -9 -0.5 -12.5t-10.5 -8.5q-27 -12 -82 -12q-53 0 -75 24t-22 79v171l-50 -28q-19 -12 -30 5l-16 27q-9 17 8 28l88 50v370q0 11 3.5 13.5t14.5 2.5h64q11 0 14.5 -2.5t3.5 -13.5v-312l64 37q19 12 29 -6l17 -28q9 -15 -11 -28l-99 -57v-202q0 -26 7 -35t26 -9 q14 0 36 2q9 1 11.5 -1t3.5 -10z" />
<glyph unicode="&#x143;" horiz-adv-x="700" d="M524 680q0 13 5 17t18 4h55q14 0 18.5 -3.5t4.5 -17.5v-625q0 -29 -12 -42t-42 -13h-30q-22 0 -33 8.5t-27 34.5l-220 367l-82 142h-3v-531q0 -14 -4.5 -17.5t-18.5 -3.5h-55q-13 0 -18 4t-5 17v625q0 29 12 42t42 13h30q22 0 33 -8.5t27 -34.5l217 -363l85 -146h3v531z M305 779q-9 10 4 20l144 106q13 9 22 -2l46 -64q11 -11 -2 -17l-170 -76q-15 -6 -25 4z" />
<glyph unicode="&#x144;" horiz-adv-x="568" d="M503 16q0 -11 -3.5 -13.5t-14.5 -2.5h-62q-7 0 -10.5 1t-5.5 4.5t-2 10.5v264q0 89 -33.5 129t-122.5 40q-45 0 -86 -7v-426q0 -11 -3.5 -13.5t-14.5 -2.5h-62q-7 0 -10.5 1t-5.5 4.5t-2 10.5v428q0 39 15 58.5t55 25.5q72 8 122 8q129 0 187.5 -59t58.5 -194v-267z M215 592q-9 2 -10 5.5t4 13.5l66 158q6 14 21 10l77 -21q15 -4 7 -16l-110 -153q-9 -13 -23 -9z" />
<glyph unicode="&#x145;" horiz-adv-x="700" d="M524 680q0 13 5 17t18 4h55q14 0 18.5 -3.5t4.5 -17.5v-625q0 -29 -12 -42t-42 -13h-30q-22 0 -33 8.5t-27 34.5l-220 367l-82 142h-3v-531q0 -14 -4.5 -17.5t-18.5 -3.5h-55q-13 0 -18 4t-5 17v625q0 29 12 42t42 13h30q22 0 33 -8.5t27 -34.5l217 -363l85 -146h3v531z M327 -245q-4 -12 -7 -15t-14 -3h-33q-11 0 -16 3.5t-4 11.5l15 191q2 18 18 18h87q11 0 15.5 -5.5t2.5 -12.5z" />
<glyph unicode="&#x146;" horiz-adv-x="568" d="M503 16q0 -11 -3.5 -13.5t-14.5 -2.5h-62q-7 0 -10.5 1t-5.5 4.5t-2 10.5v264q0 89 -33.5 129t-122.5 40q-45 0 -86 -7v-426q0 -11 -3.5 -13.5t-14.5 -2.5h-62q-7 0 -10.5 1t-5.5 4.5t-2 10.5v428q0 39 15 58.5t55 25.5q72 8 122 8q129 0 187.5 -59t58.5 -194v-267z M283 -275q-4 -12 -7 -15t-14 -3h-33q-11 0 -16 3.5t-4 11.5l15 191q2 18 18 18h87q11 0 15.5 -5.5t2.5 -12.5z" />
<glyph unicode="&#x147;" horiz-adv-x="700" d="M524 680q0 13 5 17t18 4h55q14 0 18.5 -3.5t4.5 -17.5v-625q0 -29 -12 -42t-42 -13h-30q-22 0 -33 8.5t-27 34.5l-220 367l-82 142h-3v-531q0 -14 -4.5 -17.5t-18.5 -3.5h-55q-13 0 -18 4t-5 17v625q0 29 12 42t42 13h30q22 0 33 -8.5t27 -34.5l217 -363l85 -146h3v531z M540 881q13 -11 -1 -23l-126 -99q-22 -17 -44 -17q-18 0 -41 17l-132 101q-6 8 1 15l16 23q9 9 21 3l135 -64l130 63q15 7 22 2z" />
<glyph unicode="&#x148;" horiz-adv-x="568" d="M503 16q0 -11 -3.5 -13.5t-14.5 -2.5h-62q-7 0 -10.5 1t-5.5 4.5t-2 10.5v264q0 89 -33.5 129t-122.5 40q-45 0 -86 -7v-426q0 -11 -3.5 -13.5t-14.5 -2.5h-62q-7 0 -10.5 1t-5.5 4.5t-2 10.5v428q0 39 15 58.5t55 25.5q72 8 122 8q129 0 187.5 -59t58.5 -194v-267z M444 745q12 -10 -1 -23l-126 -131q-19 -19 -44 -19q-22 0 -41 19l-132 133q-7 9 1 15l22 20q9 9 21 2l129 -92l130 91q14 9 22 2z" />
<glyph unicode="&#x149;" horiz-adv-x="643" d="M578 16q0 -11 -3.5 -13.5t-14.5 -2.5h-62q-7 0 -10.5 1t-5.5 4.5t-2 10.5v264q0 89 -33.5 129t-122.5 40q-45 0 -86 -7v-426q0 -11 -3.5 -13.5t-14.5 -2.5h-62q-7 0 -10.5 1t-5.5 4.5t-2 10.5v428q0 39 15 58.5t55 25.5q72 8 122 8q129 0 187.5 -59t58.5 -194v-267z M73 504q-4 -12 -7 -15t-14 -3h-33q-11 0 -16 3.5t-4 11.5l15 191q2 18 18 18h87q11 0 15.5 -5.5t2.5 -12.5z" />
<glyph unicode="&#x14a;" horiz-adv-x="700" d="M524 684q0 10 4 13t14 3h65q11 0 14.5 -2.5t3.5 -13.5v-756q0 -62 -26.5 -97t-95.5 -35q-30 0 -63 10q-12 3 -7 18l7 50q1 7 4 10t6 2.5t8 -0.5q26 -2 29 -2q30 0 36.5 12t6.5 49v38l-265 444l-86 150h-3v-561q0 -11 -3.5 -13.5t-14.5 -2.5h-65q-7 0 -10.5 1t-5.5 4.5 t-2 10.5v639q0 55 51 55h33q31 0 46 -12.5t35 -46.5l195 -330l83 -147h6v510z" />
<glyph unicode="&#x14b;" horiz-adv-x="568" d="M363 -116q30 0 36.5 12t6.5 49q0 7 -0.5 91.5t-0.5 243.5q0 89 -33.5 129t-122.5 40q-45 0 -86 -7v-426q0 -11 -3.5 -13.5t-14.5 -2.5h-62q-7 0 -10.5 1t-5.5 4.5t-2 10.5v428q0 74 70 84q72 8 122 8q129 0 187.5 -59t58.5 -194v-355q0 -62 -26.5 -97t-95.5 -35 q-30 0 -63 10q-12 3 -7 18l7 50q1 7 4 10t6 2.5t8 -0.5q26 -2 27 -2z" />
<glyph unicode="&#x14c;" horiz-adv-x="712" d="M657 353q0 -177 -77.5 -270.5t-226.5 -93.5q-147 0 -222.5 90.5t-75.5 269.5q0 169 84.5 265.5t216.5 96.5q145 0 223 -94.5t78 -263.5zM552 349q0 57 -8 101.5t-28.5 84.5t-60 61.5t-96.5 21.5q-97 0 -148.5 -75t-51.5 -190q0 -131 44.5 -201t150.5 -70q55 0 95 22 t61.5 60.5t31.5 84t10 100.5zM236 776q-11 0 -13.5 3.5t-2.5 14.5v42q0 7 1 10.5t4.5 5.5t10.5 2h243q10 0 13 -4t3 -14v-42q0 -11 -2.5 -14.5t-13.5 -3.5h-243z" />
<glyph unicode="&#x14d;" horiz-adv-x="563" d="M518 265q0 -135 -61 -205.5t-178 -70.5q-115 0 -174.5 69t-59.5 204q0 128 66.5 201t170.5 73q115 0 175.5 -70.5t60.5 -200.5zM419 262q0 192 -135 192q-69 0 -105 -53t-36 -136q0 -94 31 -144t106 -50q74 0 106.5 53.5t32.5 137.5zM159 590q-11 0 -13.5 3.5t-2.5 14.5 v42q0 7 1 10.5t4.5 5.5t10.5 2h243q10 0 13 -4t3 -14v-42q0 -11 -2.5 -14.5t-13.5 -3.5h-243z" />
<glyph unicode="&#x14e;" horiz-adv-x="712" d="M657 353q0 -177 -77.5 -270.5t-226.5 -93.5q-147 0 -222.5 90.5t-75.5 269.5q0 169 84.5 265.5t216.5 96.5q145 0 223 -94.5t78 -263.5zM552 349q0 57 -8 101.5t-28.5 84.5t-60 61.5t-96.5 21.5q-97 0 -148.5 -75t-51.5 -190q0 -131 44.5 -201t150.5 -70q55 0 95 22 t61.5 60.5t31.5 84t10 100.5zM360 747q-89 0 -166 108q-8 11 3 20l22 19q3 2 5 3t3.5 1.5t3.5 0t2.5 -1t3.5 -3t5 -3.5q66 -68 122 -68q54 0 123 71q10 10 21 2l22 -18q12 -11 4 -21q-84 -110 -174 -110z" />
<glyph unicode="&#x14f;" horiz-adv-x="563" d="M518 265q0 -135 -61 -205.5t-178 -70.5q-115 0 -174.5 69t-59.5 204q0 128 66.5 201t170.5 73q115 0 175.5 -70.5t60.5 -200.5zM419 262q0 192 -135 192q-69 0 -105 -53t-36 -136q0 -94 31 -144t106 -50q74 0 106.5 53.5t32.5 137.5zM277 581q-89 0 -166 108q-8 11 3 20 l22 19q3 2 5 3t3.5 1.5t3.5 0t2.5 -1t3.5 -3t5 -3.5q66 -68 122 -68q54 0 123 71q10 10 21 2l22 -18q12 -11 4 -21q-84 -110 -174 -110z" />
<glyph unicode="&#x150;" horiz-adv-x="712" d="M657 353q0 -177 -77.5 -270.5t-226.5 -93.5q-147 0 -222.5 90.5t-75.5 269.5q0 169 84.5 265.5t216.5 96.5q145 0 223 -94.5t78 -263.5zM552 349q0 57 -8 101.5t-28.5 84.5t-60 61.5t-96.5 21.5q-97 0 -148.5 -75t-51.5 -190q0 -131 44.5 -201t150.5 -70q55 0 95 22 t61.5 60.5t31.5 84t10 100.5zM216 788q-9 10 4 20l141 105q13 9 22 -2l48 -58q11 -11 -2 -17l-165 -76q-15 -6 -25 4zM411 788q-9 10 4 20l141 105q13 9 22 -2l48 -58q11 -11 -2 -17l-165 -76q-15 -6 -25 4z" />
<glyph unicode="&#x151;" horiz-adv-x="563" d="M518 265q0 -135 -61 -205.5t-178 -70.5q-115 0 -174.5 69t-59.5 204q0 128 66.5 201t170.5 73q115 0 175.5 -70.5t60.5 -200.5zM419 262q0 192 -135 192q-69 0 -105 -53t-36 -136q0 -94 31 -144t106 -50q74 0 106.5 53.5t32.5 137.5zM176 592q-9 2 -10 5.5t4 13.5l66 158 q6 14 21 10l77 -21q15 -4 7 -16l-110 -153q-9 -13 -23 -9zM319 592q-9 2 -10 5.5t4 13.5l66 158q6 14 21 10l77 -21q15 -4 7 -16l-110 -153q-9 -13 -23 -9z" />
<glyph unicode="&#x152;" horiz-adv-x="913" d="M882 18q0 -7 -1 -10.5t-4.5 -5.5t-10.5 -2h-270q-51 0 -89 19q-62 -30 -132 -30q-66 0 -117.5 20t-84.5 53.5t-54.5 80.5t-30.5 98t-9 109q0 164 80.5 262.5t215.5 98.5q74 0 131 -30q38 20 90 20h270q10 0 13 -4t3 -14v-58q0 -10 -2.5 -13.5t-13.5 -3.5h-262 q-41 0 -59 -18t-18 -57v-117h303q11 0 13.5 -3.5t2.5 -14.5v-53q0 -7 -1 -10.5t-4.5 -5.5t-10.5 -2h-303v-159q0 -74 77 -74h262q11 0 13.5 -3.5t2.5 -14.5v-58zM425 526q0 46 13 79q-27 10 -63 10q-93 0 -142.5 -72.5t-49.5 -192.5q0 -270 192 -270q38 0 64 10 q-14 31 -14 82v354z" />
<glyph unicode="&#x153;" horiz-adv-x="918" d="M655 536q111 0 165.5 -57.5t54.5 -160.5q0 -86 -83 -86h-272q2 -82 43.5 -120t108.5 -38q66 0 118 29q15 7 21 -6l24 -47q7 -16 -6 -23q-63 -38 -164 -38q-138 0 -197 86q-62 -86 -189 -86q-115 0 -174.5 69t-59.5 204q0 128 66.5 201t170.5 73q131 0 191 -92 q66 92 182 92zM419 262q0 192 -135 192q-69 0 -105 -53t-36 -136q0 -94 31 -144t106 -50q74 0 106.5 53.5t32.5 137.5zM782 310q0 144 -126 144q-58 0 -94 -43.5t-38 -100.5h258z" />
<glyph unicode="&#x154;" horiz-adv-x="633" d="M75 648q0 29 12.5 41.5t41.5 12.5h230q95 0 155.5 -56t60.5 -144q0 -59 -29.5 -103t-80.5 -65v-5q38 -11 55.5 -34t28.5 -64l58 -211q4 -5 0.5 -12.5t-14.5 -7.5h-75q-16 0 -20 14l-51 189q-15 53 -48 73.5t-86 20.5h-132v-276q0 -14 -4.5 -17.5t-18.5 -3.5h-60 q-13 0 -18 4t-5 17v627zM471 498q0 43 -27 76t-96 33h-166v-221h158q67 0 99 31.5t32 80.5zM249 779q-9 10 4 20l144 106q13 9 22 -2l46 -64q11 -11 -2 -17l-170 -76q-15 -6 -25 4z" />
<glyph unicode="&#x155;" horiz-adv-x="423" d="M382 395q-6 -10 -19 -1q-57 54 -139 54q-24 0 -51 -5v-427q0 -11 -3.5 -13.5t-14.5 -2.5h-62q-7 0 -10.5 1t-5.5 4.5t-2 10.5v431q0 42 14.5 60t55.5 24q40 5 73 5q124 0 204 -69q10 -8 2 -17zM169 592q-9 2 -10 5.5t4 13.5l66 158q6 14 21 10l77 -21q15 -4 7 -16 l-110 -153q-9 -13 -23 -9z" />
<glyph unicode="&#x156;" horiz-adv-x="633" d="M75 648q0 29 12.5 41.5t41.5 12.5h230q95 0 155.5 -56t60.5 -144q0 -59 -29.5 -103t-80.5 -65v-5q38 -11 55.5 -34t28.5 -64l58 -211q4 -5 0.5 -12.5t-14.5 -7.5h-75q-16 0 -20 14l-51 189q-15 53 -48 73.5t-86 20.5h-132v-276q0 -14 -4.5 -17.5t-18.5 -3.5h-60 q-13 0 -18 4t-5 17v627zM471 498q0 43 -27 76t-96 33h-166v-221h158q67 0 99 31.5t32 80.5zM333 -243q-4 -12 -7 -15t-14 -3h-33q-11 0 -16 3.5t-4 11.5l15 191q2 18 18 18h87q11 0 15.5 -5.5t2.5 -12.5z" />
<glyph unicode="&#x157;" horiz-adv-x="423" d="M382 395q-6 -10 -19 -1q-57 54 -139 54q-24 0 -51 -5v-427q0 -11 -3.5 -13.5t-14.5 -2.5h-62q-7 0 -10.5 1t-5.5 4.5t-2 10.5v431q0 42 14.5 60t55.5 24q40 5 73 5q124 0 204 -69q10 -8 2 -17zM122 -275q-4 -12 -7 -15t-14 -3h-33q-11 0 -16 3.5t-4 11.5l15 191 q2 18 18 18h87q11 0 15.5 -5.5t2.5 -12.5z" />
<glyph unicode="&#x158;" horiz-adv-x="633" d="M75 648q0 29 12.5 41.5t41.5 12.5h230q95 0 155.5 -56t60.5 -144q0 -59 -29.5 -103t-80.5 -65v-5q38 -11 55.5 -34t28.5 -64l58 -211q4 -5 0.5 -12.5t-14.5 -7.5h-75q-16 0 -20 14l-51 189q-15 53 -48 73.5t-86 20.5h-132v-276q0 -14 -4.5 -17.5t-18.5 -3.5h-60 q-13 0 -18 4t-5 17v627zM471 498q0 43 -27 76t-96 33h-166v-221h158q67 0 99 31.5t32 80.5zM468 881q13 -11 -1 -23l-126 -99q-22 -17 -44 -17q-18 0 -41 17l-132 101q-6 8 1 15l16 23q9 9 21 3l135 -64l130 63q15 7 22 2z" />
<glyph unicode="&#x159;" horiz-adv-x="423" d="M382 395q-6 -10 -19 -1q-57 54 -139 54q-24 0 -51 -5v-427q0 -11 -3.5 -13.5t-14.5 -2.5h-62q-7 0 -10.5 1t-5.5 4.5t-2 10.5v431q0 42 14.5 60t55.5 24q40 5 73 5q124 0 204 -69q10 -8 2 -17zM383 745q12 -10 -1 -23l-126 -131q-19 -19 -44 -19q-22 0 -41 19l-132 133 q-7 9 1 15l22 20q9 9 21 2l129 -92l130 91q14 9 22 2z" />
<glyph unicode="&#x15a;" horiz-adv-x="577" d="M548 190q0 -99 -69 -150t-176 -51q-156 0 -258 51q-12 5 -5 21l27 61q6 12 18 7q109 -47 200 -47q157 0 157 104q0 45 -35 73t-119 61q-120 47 -173 91.5t-53 116.5q0 85 56.5 134.5t162.5 49.5q123 0 217 -40q12 -6 7 -17l-23 -64q-4 -12 -14 -8q-99 35 -191 35 q-54 0 -82.5 -23t-28.5 -59q0 -41 36 -65.5t140 -68.5l61.5 -27t53.5 -29.5t49 -39.5t29 -49.5t13 -66.5zM207 779q-9 10 4 20l144 106q13 9 22 -2l46 -64q11 -11 -2 -17l-170 -76q-15 -6 -25 4z" />
<glyph unicode="&#x15b;" horiz-adv-x="473" d="M433 145q0 -76 -53.5 -116t-136.5 -40q-124 0 -198 41q-16 8 -7 23l21 47q7 16 24 8q79 -36 160 -36q47 0 71.5 18t24.5 51q0 31 -27.5 50.5t-90.5 42.5q-88 32 -125 64.5t-37 90.5q0 67 48 107t134 40q85 0 158 -29q14 -6 9 -21l-21 -53q-5 -10 -17 -5q-69 25 -132 25 q-41 0 -62 -16.5t-21 -41.5q0 -29 23 -46t90 -43q37 -13 60.5 -24.5t50.5 -30.5t40.5 -45.5t13.5 -60.5zM173 592q-9 2 -10 5.5t4 13.5l66 158q6 14 21 10l77 -21q15 -4 7 -16l-110 -153q-9 -13 -23 -9z" />
<glyph unicode="&#x15c;" horiz-adv-x="577" d="M548 190q0 -99 -69 -150t-176 -51q-156 0 -258 51q-12 5 -5 21l27 61q6 12 18 7q109 -47 200 -47q157 0 157 104q0 45 -35 73t-119 61q-120 47 -173 91.5t-53 116.5q0 85 56.5 134.5t162.5 49.5q123 0 217 -40q12 -6 7 -17l-23 -64q-4 -12 -14 -8q-99 35 -191 35 q-54 0 -82.5 -23t-28.5 -59q0 -41 36 -65.5t140 -68.5l61.5 -27t53.5 -29.5t49 -39.5t29 -49.5t13 -66.5zM457 755q-4 -6 -22 2l-131 62l-130 -64q-11 -5 -19 3l-18 21q-8 10 0 16l127 102q23 18 41 18q23 0 44 -18l122 -102q12 -9 2 -21z" />
<glyph unicode="&#x15d;" horiz-adv-x="473" d="M433 145q0 -76 -53.5 -116t-136.5 -40q-124 0 -198 41q-16 8 -7 23l21 47q7 16 24 8q79 -36 160 -36q47 0 71.5 18t24.5 51q0 31 -27.5 50.5t-90.5 42.5q-88 32 -125 64.5t-37 90.5q0 67 48 107t134 40q85 0 158 -29q14 -6 9 -21l-21 -53q-5 -10 -17 -5q-69 25 -132 25 q-41 0 -62 -16.5t-21 -41.5q0 -29 23 -46t90 -43q37 -13 60.5 -24.5t50.5 -30.5t40.5 -45.5t13.5 -60.5zM386 586q-8 -7 -22 2l-130 91l-130 -94q-12 -7 -21 2l-21 22q-7 7 -1 15l132 133q19 19 41 19q25 0 44 -19l126 -131q13 -13 1 -23z" />
<glyph unicode="&#x15e;" horiz-adv-x="577" d="M275 -56q98 -7 98 -77q0 -31 -28 -56.5t-78 -25.5q-57 0 -88 17q-11 4 -7 17l8 21q5 11 17 7q27 -10 58 -10q49 0 49 32q0 31 -54 31q-26 0 -30 4q-6 6 -1 25l22 63q-121 9 -196 48q-12 5 -5 21l27 61q6 12 18 7q109 -47 200 -47q157 0 157 104q0 45 -35 73t-119 61 q-120 47 -173 91.5t-53 116.5q0 85 56.5 134.5t162.5 49.5q123 0 217 -40q12 -6 7 -17l-23 -64q-4 -12 -14 -8q-99 35 -191 35q-54 0 -82.5 -23t-28.5 -59q0 -41 36 -65.5t140 -68.5l61.5 -27t53.5 -29.5t49 -39.5t29 -49.5t13 -66.5q0 -99 -69 -150t-176 -51h-13z" />
<glyph unicode="&#x15f;" horiz-adv-x="473" d="M227 -56q98 -7 98 -77q0 -31 -28 -56.5t-78 -25.5q-57 0 -88 17q-11 4 -7 17l8 21q5 11 17 7q27 -10 58 -10q49 0 49 32q0 31 -54 31q-26 0 -30 4q-6 6 -1 25l21 62q-94 9 -147 39q-16 8 -7 23l21 47q7 16 24 8q79 -36 160 -36q47 0 71.5 18t24.5 51q0 31 -27.5 50.5 t-90.5 42.5q-88 32 -125 64.5t-37 90.5q0 67 48 107t134 40q85 0 158 -29q14 -6 9 -21l-21 -53q-5 -10 -17 -5q-69 25 -132 25q-41 0 -62 -16.5t-21 -41.5q0 -29 23 -46t90 -43q37 -13 60.5 -24.5t50.5 -30.5t40.5 -45.5t13.5 -60.5q0 -76 -53.5 -116t-136.5 -40h-1z" />
<glyph unicode="&#x160;" horiz-adv-x="577" d="M548 190q0 -99 -69 -150t-176 -51q-156 0 -258 51q-12 5 -5 21l27 61q6 12 18 7q109 -47 200 -47q157 0 157 104q0 45 -35 73t-119 61q-120 47 -173 91.5t-53 116.5q0 85 56.5 134.5t162.5 49.5q123 0 217 -40q12 -6 7 -17l-23 -64q-4 -12 -14 -8q-99 35 -191 35 q-54 0 -82.5 -23t-28.5 -59q0 -41 36 -65.5t140 -68.5l61.5 -27t53.5 -29.5t49 -39.5t29 -49.5t13 -66.5zM477 881q13 -11 -1 -23l-126 -99q-22 -17 -44 -17q-18 0 -41 17l-132 101q-6 8 1 15l16 23q9 9 21 3l135 -64l130 63q15 7 22 2z" />
<glyph unicode="&#x161;" horiz-adv-x="473" d="M433 145q0 -76 -53.5 -116t-136.5 -40q-124 0 -198 41q-16 8 -7 23l21 47q7 16 24 8q79 -36 160 -36q47 0 71.5 18t24.5 51q0 31 -27.5 50.5t-90.5 42.5q-88 32 -125 64.5t-37 90.5q0 67 48 107t134 40q85 0 158 -29q14 -6 9 -21l-21 -53q-5 -10 -17 -5q-69 25 -132 25 q-41 0 -62 -16.5t-21 -41.5q0 -29 23 -46t90 -43q37 -13 60.5 -24.5t50.5 -30.5t40.5 -45.5t13.5 -60.5zM405 751q12 -10 -1 -23l-126 -131q-19 -19 -44 -19q-22 0 -41 19l-132 133q-7 9 1 15l22 20q9 9 21 2l129 -92l130 91q14 9 22 2z" />
<glyph unicode="&#x162;" horiz-adv-x="555" d="M222 609h-191q-11 0 -13.5 3.5t-2.5 13.5v56q0 7 1 10.5t4.5 5.5t10.5 2h493q10 0 13 -4t3 -14v-56q0 -10 -2.5 -13.5t-13.5 -3.5h-196v-588q0 -14 -4.5 -17.5t-18.5 -3.5h-60q-13 0 -18 4t-5 17v588zM272 -275q-4 -12 -7 -15t-14 -3h-33q-11 0 -16 3.5t-4 11.5l15 191 q2 18 18 18h87q11 0 15.5 -5.5t2.5 -12.5z" />
<glyph unicode="&#x163;" horiz-adv-x="376" d="M31 447q-16 0 -16 16v33q0 15 16 19l77 16l17 96q2 10 5.5 13.5t15.5 7.5l37 14q17 5 17 -14v-123h105q16 0 16 -16v-46q0 -6 -1 -9t-4.5 -5t-10.5 -2h-105v-312q0 -33 14.5 -46.5t47.5 -13.5q29 0 76 7q15 4 17 -9l10 -52q2 -14 -9 -18q-44 -14 -111 -14 q-77 0 -110 33.5t-33 106.5v318h-71zM174 -275q-4 -12 -7 -15t-14 -3h-33q-11 0 -16 3.5t-4 11.5l15 191q2 18 18 18h87q11 0 15.5 -5.5t2.5 -12.5z" />
<glyph unicode="&#x164;" horiz-adv-x="555" d="M222 609h-191q-11 0 -13.5 3.5t-2.5 13.5v56q0 7 1 10.5t4.5 5.5t10.5 2h493q10 0 13 -4t3 -14v-56q0 -10 -2.5 -13.5t-13.5 -3.5h-196v-588q0 -14 -4.5 -17.5t-18.5 -3.5h-60q-13 0 -18 4t-5 17v588zM447 881q13 -11 -1 -23l-126 -99q-22 -17 -44 -17q-18 0 -41 17 l-132 101q-6 8 1 15l16 23q9 9 21 3l135 -64l130 63q15 7 22 2z" />
<glyph unicode="&#x165;" horiz-adv-x="424" d="M31 447q-16 0 -16 16v33q0 15 16 19l77 16l17 96q2 10 5.5 13.5t15.5 7.5l37 14q17 5 17 -14v-123h105q16 0 16 -16v-46q0 -6 -1 -9t-4.5 -5t-10.5 -2h-105v-312q0 -33 14.5 -46.5t47.5 -13.5q29 0 76 7q15 4 17 -9l10 -52q2 -14 -9 -18q-44 -14 -111 -14 q-77 0 -110 33.5t-33 106.5v318h-71zM386 585q-4 -12 -7 -15t-14 -3h-33q-11 0 -16 3.5t-4 11.5l15 191q2 18 18 18h87q11 0 15.5 -5.5t2.5 -12.5z" />
<glyph unicode="&#x166;" horiz-adv-x="555" d="M57 362q-9 0 -11 3t-2 12v38q0 9 2 12t11 3h165v179h-191q-11 0 -13.5 3.5t-2.5 13.5v56q0 7 1 10.5t4.5 5.5t10.5 2h493q10 0 13 -4t3 -14v-56q0 -10 -2.5 -13.5t-13.5 -3.5h-197v-179h168q9 0 11 -3t2 -12v-38q0 -9 -2 -12t-11 -3h-168v-346q0 -11 -3 -13.5t-13 -2.5 h-71q-7 0 -10.5 1t-5.5 4.5t-2 10.5v346h-165z" />
<glyph unicode="&#x167;" horiz-adv-x="376" d="M35 265q-9 0 -11 3t-2 12v37q0 9 2 12t11 3h67v115h-71q-16 0 -16 16v33q0 15 16 19l77 16l17 96q2 10 5.5 13.5t15.5 7.5l37 14q17 5 17 -14v-123h105q16 0 16 -16v-46q0 -6 -1 -9t-4.5 -5t-10.5 -2h-105v-115h116q9 0 11 -3t2 -12v-37q0 -9 -2 -12t-11 -3h-116v-130 q0 -33 14.5 -46.5t47.5 -13.5q29 0 76 7q15 4 17 -9l10 -52q2 -14 -9 -18q-44 -14 -111 -14q-77 0 -110 33.5t-33 106.5v136h-67z" />
<glyph unicode="&#x168;" horiz-adv-x="684" d="M74 679q0 13 5 17t18 4h60q14 0 18.5 -3.5t4.5 -17.5v-371q0 -63 7.5 -101.5t29 -69.5t62.5 -44t106 -13q67 0 122 11v588q0 13 5 17t18 4h60q13 0 16 -3.5t3 -17.5v-582q0 -42 -18.5 -66t-63.5 -32q-70 -11 -148 -11q-167 0 -235.5 70t-68.5 248zM415 756 q-24 0 -67.5 18t-65.5 18q-26 0 -40 -27q-7 -12 -21 -6l-34 15q-10 3 -12 5.5t1 11.5q43 74 108 74q25 0 66 -19.5t58 -19.5q31 0 43 28q5 12 19 8l39 -11q17 -3 12 -15q-19 -40 -43 -60t-63 -20z" />
<glyph unicode="&#x169;" horiz-adv-x="558" d="M65 510q0 11 3.5 13.5t14.5 2.5h62q7 0 10.5 -1t5.5 -4.5t2 -10.5v-264q0 -92 29 -130.5t117 -38.5q45 0 86 7v426q0 11 3.5 13.5t14.5 2.5h62q7 0 10.5 -1t5.5 -4.5t2 -10.5v-428q0 -72 -70 -84q-42 -8 -122 -8q-128 0 -182 58.5t-54 194.5v267zM348 619q-24 0 -67.5 18 t-65.5 18q-26 0 -40 -27q-7 -12 -21 -6l-34 15q-10 3 -12 5.5t1 11.5q43 74 108 74q25 0 66 -19.5t58 -19.5q31 0 43 28q5 12 19 8l39 -11q16 -3 12 -15q-19 -40 -43 -60t-63 -20z" />
<glyph unicode="&#x16a;" horiz-adv-x="684" d="M74 679q0 13 5 17t18 4h60q14 0 18.5 -3.5t4.5 -17.5v-371q0 -63 7.5 -101.5t29 -69.5t62.5 -44t106 -13q67 0 122 11v588q0 13 5 17t18 4h60q13 0 16 -3.5t3 -17.5v-582q0 -42 -18.5 -66t-63.5 -32q-70 -11 -148 -11q-167 0 -235.5 70t-68.5 248zM222 771 q-11 0 -13.5 3.5t-2.5 14.5v42q0 7 1 10.5t4.5 5.5t10.5 2h243q10 0 13 -4t3 -14v-42q0 -11 -2.5 -14.5t-13.5 -3.5h-243z" />
<glyph unicode="&#x16b;" horiz-adv-x="558" d="M65 510q0 11 3.5 13.5t14.5 2.5h62q7 0 10.5 -1t5.5 -4.5t2 -10.5v-264q0 -92 29 -130.5t117 -38.5q45 0 86 7v426q0 11 3.5 13.5t14.5 2.5h62q7 0 10.5 -1t5.5 -4.5t2 -10.5v-428q0 -72 -70 -84q-42 -8 -122 -8q-128 0 -182 58.5t-54 194.5v267zM162 616 q-11 0 -13.5 3.5t-2.5 14.5v42q0 7 1 10.5t4.5 5.5t10.5 2h243q10 0 13 -4t3 -14v-42q0 -11 -2.5 -14.5t-13.5 -3.5h-243z" />
<glyph unicode="&#x16c;" horiz-adv-x="684" d="M74 679q0 13 5 17t18 4h60q14 0 18.5 -3.5t4.5 -17.5v-371q0 -63 7.5 -101.5t29 -69.5t62.5 -44t106 -13q67 0 122 11v588q0 13 5 17t18 4h60q13 0 16 -3.5t3 -17.5v-582q0 -42 -18.5 -66t-63.5 -32q-70 -11 -148 -11q-167 0 -235.5 70t-68.5 248zM347 737 q-89 0 -166 108q-8 11 3 20l22 19q3 2 5 3t3.5 1.5t3.5 0t2.5 -1t3.5 -3t5 -3.5q66 -68 122 -68q54 0 123 71q10 10 21 2l22 -18q12 -11 4 -21q-84 -110 -174 -110z" />
<glyph unicode="&#x16d;" horiz-adv-x="558" d="M65 510q0 11 3.5 13.5t14.5 2.5h62q7 0 10.5 -1t5.5 -4.5t2 -10.5v-264q0 -92 29 -130.5t117 -38.5q45 0 86 7v426q0 11 3.5 13.5t14.5 2.5h62q7 0 10.5 -1t5.5 -4.5t2 -10.5v-428q0 -72 -70 -84q-42 -8 -122 -8q-128 0 -182 58.5t-54 194.5v267zM277 581q-89 0 -166 108 q-8 11 3 20l22 19q3 2 5 3t3.5 1.5t3.5 0t2.5 -1t3.5 -3t5 -3.5q66 -68 122 -68q54 0 123 71q10 10 21 2l22 -18q12 -11 4 -21q-84 -110 -174 -110z" />
<glyph unicode="&#x16e;" horiz-adv-x="684" d="M74 679q0 13 5 17t18 4h60q14 0 18.5 -3.5t4.5 -17.5v-371q0 -63 7.5 -101.5t29 -69.5t62.5 -44t106 -13q67 0 122 11v588q0 13 5 17t18 4h60q13 0 16 -3.5t3 -17.5v-582q0 -42 -18.5 -66t-63.5 -32q-70 -11 -148 -11q-167 0 -235.5 70t-68.5 248zM451 824 q0 -42 -29.5 -69.5t-72.5 -27.5t-72.5 27.5t-29.5 69.5t29.5 69.5t72.5 27.5t72.5 -27.5t29.5 -69.5zM401 824q0 23 -14.5 37.5t-37.5 14.5t-37.5 -14.5t-14.5 -37.5t14.5 -37.5t37.5 -14.5t37.5 14.5t14.5 37.5z" />
<glyph unicode="&#x16f;" horiz-adv-x="558" d="M65 510q0 11 3.5 13.5t14.5 2.5h62q7 0 10.5 -1t5.5 -4.5t2 -10.5v-264q0 -92 29 -130.5t117 -38.5q45 0 86 7v426q0 11 3.5 13.5t14.5 2.5h62q7 0 10.5 -1t5.5 -4.5t2 -10.5v-428q0 -72 -70 -84q-42 -8 -122 -8q-128 0 -182 58.5t-54 194.5v267zM386 676 q0 -42 -29.5 -69.5t-72.5 -27.5t-72.5 27.5t-29.5 69.5t29.5 69.5t72.5 27.5t72.5 -27.5t29.5 -69.5zM336 676q0 23 -14.5 37.5t-37.5 14.5t-37.5 -14.5t-14.5 -37.5t14.5 -37.5t37.5 -14.5t37.5 14.5t14.5 37.5z" />
<glyph unicode="&#x170;" horiz-adv-x="684" d="M74 679q0 13 5 17t18 4h60q14 0 18.5 -3.5t4.5 -17.5v-371q0 -63 7.5 -101.5t29 -69.5t62.5 -44t106 -13q67 0 122 11v588q0 13 5 17t18 4h60q13 0 16 -3.5t3 -17.5v-582q0 -42 -18.5 -66t-63.5 -32q-70 -11 -148 -11q-167 0 -235.5 70t-68.5 248zM197 788q-9 10 4 20 l141 105q13 9 22 -2l48 -58q11 -11 -2 -17l-165 -76q-15 -6 -25 4zM392 788q-9 10 4 20l141 105q13 9 22 -2l48 -58q11 -11 -2 -17l-165 -76q-15 -6 -25 4z" />
<glyph unicode="&#x171;" horiz-adv-x="558" d="M65 510q0 11 3.5 13.5t14.5 2.5h62q7 0 10.5 -1t5.5 -4.5t2 -10.5v-264q0 -92 29 -130.5t117 -38.5q45 0 86 7v426q0 11 3.5 13.5t14.5 2.5h62q7 0 10.5 -1t5.5 -4.5t2 -10.5v-428q0 -72 -70 -84q-42 -8 -122 -8q-128 0 -182 58.5t-54 194.5v267zM166 592q-9 2 -10 5.5 t4 13.5l66 158q6 14 21 10l77 -21q15 -4 7 -16l-110 -153q-9 -13 -23 -9zM309 592q-9 2 -10 5.5t4 13.5l66 158q6 14 21 10l77 -21q15 -4 7 -16l-110 -153q-9 -13 -23 -9z" />
<glyph unicode="&#x172;" horiz-adv-x="684" d="M74 679q0 13 5 17t18 4h60q14 0 18.5 -3.5t4.5 -17.5v-371q0 -63 7.5 -101.5t29 -69.5t62.5 -44t106 -13q67 0 122 11v588q0 13 5 17t18 4h60q13 0 16 -3.5t3 -17.5v-582q0 -42 -18.5 -66t-63.5 -32q-52 -9 -121 -11q-52 -62 -52 -108q0 -19 12 -26t38 -7q11 0 49 8 q8 3 11 2t5 -9l7 -21q4 -12 -7 -17q-42 -20 -95 -20q-49 0 -72.5 20.5t-24.5 53.5q-1 32 16.5 66.5t46.5 58.5q-145 6 -205 77t-60 240z" />
<glyph unicode="&#x173;" horiz-adv-x="558" d="M65 510q0 11 3.5 13.5t14.5 2.5h62q7 0 10.5 -1t5.5 -4.5t2 -10.5v-264q0 -92 29 -130.5t117 -38.5q45 0 86 7v426q0 11 3.5 13.5t14.5 2.5h62q7 0 10.5 -1t5.5 -4.5t2 -10.5v-428q0 -56 -41 -76q-58 -66 -58 -115q0 -19 12 -26t38 -7q11 0 49 8q8 3 11 2t5 -9l7 -21 q4 -12 -7 -17q-42 -20 -95 -20q-49 0 -72.5 20.5t-24.5 53.5q-2 62 54 118q-25 -3 -70 -3q-128 0 -182 58.5t-54 194.5v267z" />
<glyph unicode="&#x174;" horiz-adv-x="836" d="M417 584l-32 -160l-80 -375q-11 -49 -48 -49h-49q-26 0 -39 8t-18 33l-135 646q-5 14 9 14h81q16 0 19 -13l73 -405l28 -161h6l32 159l77 370q9 50 59 50h43q43 0 55 -50l74 -365l32 -164h6l30 165l74 401q3 13 19 13h78q12 0 9 -14l-135 -646q-5 -25 -18 -33t-39 -8h-49 q-37 0 -48 49l-79 376l-31 159h-4zM571 745q-4 -6 -22 2l-131 62l-130 -64q-11 -5 -19 3l-18 21q-8 10 0 16l127 102q23 18 41 18q23 0 44 -18l122 -102q12 -9 2 -21z" />
<glyph unicode="&#x175;" horiz-adv-x="751" d="M373 393l-46 -176l-54 -178q-7 -23 -18 -33.5t-36 -10.5h-43q-21 0 -33.5 9.5t-18.5 38.5l-103 473q-3 11 9 11h76q11 0 15 -10l50 -270l27 -145h6l38 131l64 232q4 13 8.5 20.5t16.5 14.5t30 7h34q22 0 31.5 -10.5t16.5 -34.5l60 -213l44 -156h6l27 154l50 270 q4 10 15 10h76q12 0 9 -11l-104 -473q-6 -28 -20 -38t-36 -10h-40q-26 0 -36 8.5t-18 35.5l-54 184l-45 170h-4zM529 576q-8 -7 -22 2l-130 91l-130 -94q-12 -7 -21 2l-21 22q-7 7 -1 15l132 133q19 19 41 19q25 0 44 -19l126 -131q13 -13 1 -23z" />
<glyph unicode="&#x176;" horiz-adv-x="578" d="M342 277v-261q0 -11 -3.5 -13.5t-13.5 -2.5h-66q-7 0 -10.5 1t-5.5 4.5t-2 10.5v261l-229 412q-3 4 -0.5 8t8.5 4h85q14 0 22 -14l85 -162l79 -157h4l83 164l81 155q8 14 22 14h79q6 0 8 -4t-1 -8zM444 745q-4 -6 -22 2l-131 62l-130 -64q-11 -5 -19 3l-18 21q-8 10 0 16 l127 102q22 18 41 18q23 0 44 -18l122 -102q12 -9 2 -21z" />
<glyph unicode="&#x177;" horiz-adv-x="499" d="M290 -84q-23 -68 -60.5 -96.5t-98.5 -28.5q-42 0 -82 11q-16 4 -12 17l12 50q3 14 18 10q32 -7 49 -7q37 0 57.5 14.5t32.5 50.5l23 69h-21q-13 0 -20 1.5t-15 11t-14 27.5l-148 468q-3 11 9 11h77q11 0 15 -10l76 -247l54 -185h6l60 186l82 246q4 10 15 10h74 q12 0 9 -11zM405 581q-8 -7 -22 2l-130 91l-130 -94q-12 -7 -21 2l-21 22q-7 7 -1 15l132 133q19 19 41 19q25 0 44 -19l126 -131q13 -13 1 -23z" />
<glyph unicode="&#x178;" horiz-adv-x="578" d="M342 277v-261q0 -11 -3.5 -13.5t-13.5 -2.5h-66q-7 0 -10.5 1t-5.5 4.5t-2 10.5v261l-229 412q-3 4 -0.5 8t8.5 4h85q14 0 22 -14l85 -162l79 -157h4l83 164l81 155q8 14 22 14h79q6 0 8 -4t-1 -8zM444 823q0 -23 -18 -41t-41 -18q-24 0 -42.5 18t-18.5 41 q0 22 18.5 40.5t41.5 18.5t41.5 -18t18.5 -41zM260 823q0 -23 -18.5 -41t-41.5 -18t-41.5 18t-18.5 41q0 22 18.5 40.5t41.5 18.5t41.5 -18t18.5 -41z" />
<glyph unicode="&#x179;" horiz-adv-x="617" d="M512 701q30 0 44 -12t14 -40v-21q0 -32 -28 -65l-392 -468l2 -6h411q11 0 13.5 -3.5t2.5 -14.5v-53q0 -11 -2.5 -14.5t-13.5 -3.5h-478q-55 0 -55 49v16q0 33 24 60l407 484l-2 3h-361q-11 0 -13.5 3.5t-2.5 13.5v54q0 7 1 10.5t4.5 5.5t10.5 2h414zM250 779q-9 10 4 20 l144 106q13 9 22 -2l46 -64q11 -11 -2 -17l-170 -76q-15 -6 -25 4z" />
<glyph unicode="&#x17a;" horiz-adv-x="467" d="M400 525q26 0 36.5 -9t10.5 -32v-18q0 -29 -18 -50l-297 -334l1 -2h296q17 0 17 -16v-48q0 -9 -3 -12.5t-14 -3.5h-366q-43 0 -43 38v16q0 35 21 58l294 330l-1 3h-273q-11 0 -14 3.5t-3 12.5v48q0 16 17 16h339zM208 592q-9 2 -10 5.5t4 13.5l66 158q6 14 21 10l77 -21 q15 -4 7 -16l-110 -153q-9 -13 -23 -9z" />
<glyph unicode="&#x17b;" horiz-adv-x="617" d="M512 701q30 0 44 -12t14 -40v-21q0 -32 -28 -65l-392 -468l2 -6h411q11 0 13.5 -3.5t2.5 -14.5v-53q0 -11 -2.5 -14.5t-13.5 -3.5h-478q-55 0 -55 49v16q0 33 24 60l407 484l-2 3h-361q-11 0 -13.5 3.5t-2.5 13.5v54q0 7 1 10.5t4.5 5.5t10.5 2h414zM390 810 q0 -25 -19 -43.5t-44 -18.5q-26 0 -44.5 18.5t-18.5 43.5t18.5 43.5t44.5 18.5q25 0 44 -18.5t19 -43.5z" />
<glyph unicode="&#x17c;" horiz-adv-x="467" d="M400 525q26 0 36.5 -9t10.5 -32v-18q0 -29 -18 -50l-297 -334l1 -2h296q17 0 17 -16v-48q0 -9 -3 -12.5t-14 -3.5h-366q-43 0 -43 38v16q0 35 21 58l294 330l-1 3h-273q-11 0 -14 3.5t-3 12.5v48q0 16 17 16h339zM312 668q0 -25 -19 -43.5t-44 -18.5q-26 0 -44.5 18.5 t-18.5 43.5t18.5 43.5t44.5 18.5q25 0 44 -18.5t19 -43.5z" />
<glyph unicode="&#x17d;" horiz-adv-x="617" d="M512 701q30 0 44 -12t14 -40v-21q0 -32 -28 -65l-392 -468l2 -6h411q11 0 13.5 -3.5t2.5 -14.5v-53q0 -11 -2.5 -14.5t-13.5 -3.5h-478q-55 0 -55 49v16q0 33 24 60l407 484l-2 3h-361q-11 0 -13.5 3.5t-2.5 13.5v54q0 7 1 10.5t4.5 5.5t10.5 2h414zM504 881 q13 -11 -1 -23l-126 -99q-22 -17 -44 -17q-18 0 -41 17l-132 101q-6 8 1 15l16 23q9 9 21 3l135 -64l130 63q15 7 22 2z" />
<glyph unicode="&#x17e;" horiz-adv-x="467" d="M400 525q26 0 36.5 -9t10.5 -32v-18q0 -29 -18 -50l-297 -334l1 -2h296q17 0 17 -16v-48q0 -9 -3 -12.5t-14 -3.5h-366q-43 0 -43 38v16q0 35 21 58l294 330l-1 3h-273q-11 0 -14 3.5t-3 12.5v48q0 16 17 16h339zM415 751q12 -10 -1 -23l-126 -131q-19 -19 -44 -19 q-22 0 -41 19l-132 133q-7 9 1 15l22 20q9 9 21 2l129 -92l130 91q14 9 22 2z" />
<glyph unicode="&#x192;" horiz-adv-x="595" d="M470 429q15 0 15 -16l-1 -41q-2 -16 -19 -16h-114q-4 -24 -18 -119.5t-23 -136.5q-10 -43 -16.5 -66t-20 -51t-30 -41.5t-43.5 -23t-64 -9.5q-50 0 -83 13q-10 4 -5 18l14 50q4 12 17 9q32 -6 57 -6q35 0 52.5 27.5t28.5 81.5q10 46 25 150l16 104h-82q-10 0 -12 3.5 t-1 12.5v37q0 19 19 19h87q1 6 4 30t6 37q30 192 178 192q60 0 99 -12q9 -2 7 -18l-8 -52q-1 -6 -6.5 -8.5t-12.5 -0.5q-38 7 -65 7q-46 0 -67.5 -23.5t-31.5 -79.5q-4 -18 -7 -41.5t-4 -29.5h109z" />
<glyph unicode="&#x1a0;" horiz-adv-x="758" d="M657 353q0 -177 -77.5 -270.5t-226.5 -93.5q-147 0 -222.5 90.5t-75.5 269.5q0 169 84.5 265.5t216.5 96.5q144 0 223 -94q41 2 59.5 26.5t18.5 84.5v39q0 18 19 18h45q9 0 13 -3.5t4 -14.5v-42q0 -151 -117 -177q36 -81 36 -195zM552 349q0 57 -8 101.5t-28.5 84.5 t-60 61.5t-96.5 21.5q-97 0 -148.5 -75t-51.5 -190q0 -131 44.5 -201t150.5 -70q55 0 95 22t61.5 60.5t31.5 84t10 100.5z" />
<glyph unicode="&#x1a1;" horiz-adv-x="633" d="M518 265q0 -135 -61 -205.5t-178 -70.5q-115 0 -174.5 69t-59.5 204q0 128 66.5 201t170.5 73q131 0 191 -93q41 3 59 27.5t18 83.5v39q0 18 19 18h45q9 0 13 -3.5t4 -14.5v-42q0 -158 -127 -180q14 -50 14 -106zM419 262q0 192 -135 192q-69 0 -105 -53t-36 -136 q0 -94 31 -144t106 -50q74 0 106.5 53.5t32.5 137.5z" />
<glyph unicode="&#x1af;" horiz-adv-x="781" d="M75 684q0 11 2 13.5t8 2.5h82q5 0 7 -1t4 -4.5t2 -10.5v-376q0 -63 7.5 -101.5t29 -69.5t62.5 -44t106 -13q67 0 122 11v593q0 11 2.5 13.5t9.5 2.5h80q6 0 8 -2.5t2 -13.5v-67h6q49 0 67 23t18 88v39q0 18 19 18h45q9 0 13 -3.5t4 -14.5v-42q0 -90 -38 -136.5 t-126 -46.5h-8v-445q0 -42 -18.5 -66t-63.5 -32q-70 -11 -148 -11q-167 0 -235.5 70t-68.5 248v378z" />
<glyph unicode="&#x1b0;" horiz-adv-x="663" d="M65 510q0 11 3.5 13.5t14.5 2.5h62q7 0 10.5 -1t5.5 -4.5t2 -10.5v-264q0 -92 29 -130.5t117 -38.5q45 0 86 7v426q0 11 3.5 13.5t14.5 2.5h62q7 0 10.5 -1t5.5 -4.5t2 -10.5v-67h7q43 0 61.5 23.5t18.5 87.5v39q0 18 19 18h45q9 0 13 -3.5t4 -14.5v-42q0 -183 -159 -183 h-9v-286q0 -72 -70 -84q-42 -8 -122 -8q-128 0 -182 58.5t-54 194.5v267z" />
<glyph unicode="&#x1fc;" horiz-adv-x="863" d="M799 701q10 0 13 -4t3 -14v-57q0 -10 -2.5 -13.5t-13.5 -3.5h-245q-41 0 -59 -18t-18 -57v-118h292q11 0 13.5 -3.5t2.5 -14.5v-53q0 -7 -1 -10.5t-4.5 -5.5t-10.5 -2h-292v-159q0 -74 77 -74h252q11 0 13.5 -3.5t2.5 -14.5v-58q0 -7 -1 -10.5t-4.5 -5.5t-10.5 -2h-260 q-85 0 -125.5 40t-45.5 120h-199l-49 -147q-4 -13 -19 -13h-80q-14 0 -9 14l199 579q18 49 54.5 78.5t114.5 29.5h412zM200 243h175v283q0 67 14 87q-41 0 -59 -11t-27 -36l-36 -110zM460 779q-9 10 4 20l144 106q13 9 22 -2l46 -64q11 -11 -2 -17l-170 -76q-15 -6 -25 4z " />
<glyph unicode="&#x1fd;" horiz-adv-x="874" d="M618 536q103 0 158 -56.5t59 -152.5q4 -86 -83 -86h-272q2 -98 41.5 -132.5t110.5 -34.5q66 0 118 29q15 7 21 -6l24 -47q7 -16 -6 -23q-63 -38 -164 -38q-86 0 -156 49q-81 -49 -215 -49q-62 0 -103 14t-59 39.5t-24.5 49t-6.5 54.5t9 59t30 55t63 43t101 16h122 q24 132 -113 132q-66 0 -135 -20q-19 -6 -22 8l-13 49q-5 14 9 19q73 29 178 29q119 0 164 -70q64 70 164 70zM412 100q-30 58 -31 141h-105q-48 0 -82 -21.5t-34 -73.5q0 -79 98 -79q94 0 154 33zM742 319q0 56 -28.5 95.5t-96.5 39.5q-60 0 -94.5 -38t-38.5 -97h258z M429 592q-9 2 -10 5.5t4 13.5l66 158q6 14 21 10l77 -21q15 -4 7 -16l-110 -153q-9 -13 -23 -9z" />
<glyph unicode="&#x1fe;" horiz-adv-x="712" d="M657 353q0 -177 -77.5 -270.5t-226.5 -93.5q-122 0 -194 63l-40 -53q-8 -10 -19 -2l-21 13q-10 7 -1 20l45 60q-68 92 -68 259q0 169 84.5 265.5t216.5 96.5q114 0 189 -61l47 62q9 12 21 2l20 -14q5 -6 5.5 -8t-4.5 -11l-52 -68q75 -93 75 -260zM552 349q0 114 -33 179 l-299 -395q48 -51 138 -51q54 0 93.5 21.5t60.5 60.5t30.5 84.5t9.5 100.5zM159 353q0 -112 31 -175l297 394q-46 46 -128 46q-97 0 -148.5 -75t-51.5 -190zM313 779q-9 10 4 20l144 106q13 9 22 -2l46 -64q11 -11 -2 -17l-170 -76q-15 -6 -25 4z" />
<glyph unicode="&#x1ff;" horiz-adv-x="563" d="M87 4q-9 -8 -16 -1l-19 17q-11 8 0 17l36 42q-43 64 -43 183q0 128 66.5 201t170.5 73q98 0 157 -53l37 43q7 7 18 1l18 -18q9 -6 0 -16l-41 -47q47 -71 47 -181q0 -135 -61 -205.5t-178 -70.5q-100 0 -159 53zM419 262q0 65 -15 107l-223 -257q32 -41 99 -41 q74 0 106.5 53.5t32.5 137.5zM143 265q0 -68 14 -107l222 257q-33 39 -95 39q-69 0 -105 -53t-36 -136zM260 592q-9 2 -10 5.5t4 13.5l66 158q6 14 21 10l77 -21q15 -4 7 -16l-110 -153q-9 -13 -23 -9z" />
<glyph unicode="&#x218;" horiz-adv-x="577" d="M548 190q0 -99 -69 -150t-176 -51q-156 0 -258 51q-12 5 -5 21l27 61q6 12 18 7q109 -47 200 -47q157 0 157 104q0 45 -35 73t-119 61q-120 47 -173 91.5t-53 116.5q0 85 56.5 134.5t162.5 49.5q123 0 217 -40q12 -6 7 -17l-23 -64q-4 -12 -14 -8q-99 35 -191 35 q-54 0 -82.5 -23t-28.5 -59q0 -41 36 -65.5t140 -68.5l61.5 -27t53.5 -29.5t49 -39.5t29 -49.5t13 -66.5zM298 -275q-4 -12 -7 -15t-14 -3h-33q-11 0 -16 3.5t-4 11.5l15 191q2 18 18 18h87q11 0 15.5 -5.5t2.5 -12.5z" />
<glyph unicode="&#x219;" horiz-adv-x="473" d="M433 145q0 -76 -53.5 -116t-136.5 -40q-124 0 -198 41q-16 8 -7 23l21 47q7 16 24 8q79 -36 160 -36q47 0 71.5 18t24.5 51q0 31 -27.5 50.5t-90.5 42.5q-88 32 -125 64.5t-37 90.5q0 67 48 107t134 40q85 0 158 -29q14 -6 9 -21l-21 -53q-5 -10 -17 -5q-69 25 -132 25 q-41 0 -62 -16.5t-21 -41.5q0 -29 23 -46t90 -43q37 -13 60.5 -24.5t50.5 -30.5t40.5 -45.5t13.5 -60.5zM243 -275q-4 -12 -7 -15t-14 -3h-33q-11 0 -16 3.5t-4 11.5l15 191q2 18 18 18h87q11 0 15.5 -5.5t2.5 -12.5z" />
<glyph unicode="&#x259;" horiz-adv-x="542" d="M265 -10q-111 0 -165.5 57.5t-54.5 160.5q0 86 83 86h272q-2 82 -43.5 120t-108.5 38q-66 0 -118 -29q-15 -7 -21 6l-24 47q-7 16 6 23q63 38 164 38q244 0 244 -271q0 -128 -66 -202t-168 -74zM138 216q0 -144 126 -144q59 0 93.5 42.5t38.5 101.5h-258z" />
<glyph unicode="&#x2b9;" horiz-adv-x="196" d="M61 448q-14 5 -6 19l128 283q6 14 21 10l85 -13q15 -4 7 -16l-190 -284q-10 -14 -24 -10z" />
<glyph unicode="&#x2c6;" horiz-adv-x="573" d="M438 576q-8 -7 -22 2l-130 91l-130 -94q-12 -7 -21 2l-21 22q-7 7 -1 15l132 133q19 19 41 19q25 0 44 -19l126 -131q13 -13 1 -23z" />
<glyph unicode="&#x2c7;" horiz-adv-x="573" d="M457 745q12 -10 -1 -23l-126 -131q-19 -19 -44 -19q-22 0 -41 19l-132 133q-7 9 1 15l22 20q9 9 21 2l129 -92l130 91q14 9 22 2z" />
<glyph unicode="&#x2d8;" horiz-adv-x="573" d="M282 581q-89 0 -166 108q-8 11 3 20l22 19q3 2 5 3t3.5 1.5t3.5 0t2.5 -1t3.5 -3t5 -3.5q66 -68 122 -68q54 0 123 71q10 10 21 2l22 -18q12 -11 4 -21q-84 -110 -174 -110z" />
<glyph unicode="&#x2d9;" horiz-adv-x="536" d="M328 670q0 -25 -19 -43.5t-44 -18.5q-26 0 -44.5 18.5t-18.5 43.5t18.5 43.5t44.5 18.5q25 0 44 -18.5t19 -43.5z" />
<glyph unicode="&#x2da;" horiz-adv-x="536" d="M390 676q0 -42 -29.5 -69.5t-72.5 -27.5t-72.5 27.5t-29.5 69.5t29.5 69.5t72.5 27.5t72.5 -27.5t29.5 -69.5zM340 676q0 23 -14.5 37.5t-37.5 14.5t-37.5 -14.5t-14.5 -37.5t14.5 -37.5t37.5 -14.5t37.5 14.5t14.5 37.5z" />
<glyph unicode="&#x2db;" horiz-adv-x="492" d="M259 7q11 6 17 6h33q12 -2 3 -11q-64 -70 -64 -122q0 -19 12 -26t38 -7q11 0 49 8q8 3 11 2t5 -9l7 -21q4 -12 -7 -17q-42 -20 -95 -20q-49 0 -72.5 20.5t-24.5 53.5q0 39 24.5 80t63.5 63z" />
<glyph unicode="&#x2dc;" horiz-adv-x="570" d="M354 619q-24 0 -67.5 18t-65.5 18q-26 0 -40 -27q-7 -12 -21 -6l-34 15q-10 3 -12 5.5t1 11.5q43 74 108 74q25 0 66 -19.5t58 -19.5q31 0 43 28q5 12 19 8l39 -11q16 -3 12 -15q-19 -40 -43 -60t-63 -20z" />
<glyph unicode="&#x2dd;" horiz-adv-x="548" d="M176 592q-9 2 -10 5.5t4 13.5l66 158q6 14 21 10l77 -21q15 -4 7 -16l-110 -153q-9 -13 -23 -9zM319 592q-9 2 -10 5.5t4 13.5l66 158q6 14 21 10l77 -21q15 -4 7 -16l-110 -153q-9 -13 -23 -9z" />
<glyph unicode="&#x384;" horiz-adv-x="483" d="M214 592q-9 3 -10 6t4 13l66 158q6 14 21 10l77 -21q15 -4 7 -16l-110 -153q-9 -13 -23 -9z" />
<glyph unicode="&#x385;" horiz-adv-x="553" d="M476 670q0 -25 -18.5 -43.5t-44.5 -18.5t-44.5 18.5t-18.5 43.5t18.5 43.5t44.5 18.5t44.5 -18t18.5 -44zM204 670q0 -25 -18.5 -43.5t-43.5 -18.5q-26 0 -45 18.5t-19 43.5t19 43.5t45 18.5q25 0 43.5 -18t18.5 -44zM227 582l-7.5 2.5t-5.5 2.5t-2.5 5t0.5 9l34 164 q6 13 20 13l80 -11q15 -1 10 -15l-80 -165q-6 -9 -9.5 -11.5t-12.5 -0.5z" />
<glyph unicode="&#x386;" horiz-adv-x="636" d="M-19 542q-9 3 -10 6t4 13l66 158q6 14 21 10l77 -21q15 -4 7 -16l-110 -153q-9 -13 -23 -9zM527 0q-9 0 -13 0.5t-8 4t-6 11.5l-47 142h-271l-47 -142q-6 -16 -24 -16h-77q-22 0 -14 21l222 637q9 26 20 34.5t37 9.5h33q29 0 40 -9t20 -35l223 -637q3 -9 -0.5 -15 t-12.5 -6h-75zM362 442l-45 142h-5l-42 -137l-61 -198h214z" />
<glyph unicode="&#x387;" horiz-adv-x="273" d="M216 457q0 -33 -23 -56t-57 -23q-33 0 -55.5 22.5t-22.5 56.5q0 33 22.5 56t55.5 23q35 0 57.5 -22.5t22.5 -56.5z" />
<glyph unicode="&#x388;" horiz-adv-x="558" d="M-137 542q-9 3 -10 6t4 13l66 158q6 14 21 10l77 -21q15 -4 7 -16l-110 -153q-9 -13 -23 -9zM541 23q0 -13 -4 -18t-17 -5h-278q-174 0 -174 176v348q0 76 43 126.5t131 50.5h274q13 0 17 -5t4 -18v-48q0 -13 -3.5 -17.5t-17.5 -4.5h-274q-38 0 -54.5 -16.5t-16.5 -52.5 v-123h312q12 0 16 -5t4 -18v-42q0 -12 -4 -17.5t-16 -5.5h-312v-166q0 -68 71 -68h278q14 0 17.5 -4.5t3.5 -18.5v-48z" />
<glyph unicode="&#x389;" horiz-adv-x="677" d="M-150 542q-9 3 -10 6t4 13l66 158q6 14 21 10l77 -21q15 -4 7 -16l-110 -153q-9 -13 -23 -9zM506 679q0 13 5 17t18 4h58q14 0 18.5 -3.5t4.5 -17.5v-658q0 -14 -4.5 -17.5t-18.5 -3.5h-58q-13 0 -18 4t-5 17v303h-336v-303q0 -14 -4.5 -17.5t-18.5 -3.5h-58q-13 0 -18 4 t-5 17v658q0 13 5 17t18 4h58q14 0 18.5 -3.5t4.5 -17.5v-266h336v266z" />
<glyph unicode="&#x38a;" horiz-adv-x="288" d="M-122 542q-9 3 -10 6t4 13l66 158q6 14 21 10l77 -21q15 -4 7 -16l-110 -153q-9 -13 -23 -9zM94 679q0 13 5 17t18 4h58q14 0 18.5 -3.5t4.5 -17.5v-658q0 -14 -4.5 -17.5t-18.5 -3.5h-58q-13 0 -18 4t-5 17v658z" />
<glyph unicode="&#x38c;" horiz-adv-x="722" d="M-99 542q-9 3 -10 6t4 13l66 158q6 14 21 10l77 -21q15 -4 7 -16l-110 -153q-9 -13 -23 -9zM660 353q0 -177 -77.5 -270.5t-226.5 -93.5q-147 0 -222.5 90.5t-75.5 269.5q0 169 84.5 265.5t216.5 96.5q145 0 223 -94.5t78 -263.5zM555 349q0 57 -8 101.5t-28.5 84.5 t-60 61.5t-96.5 21.5q-97 0 -148.5 -75t-51.5 -190q0 -131 44.5 -201t150.5 -70q55 0 95 22t61.5 60.5t31.5 84t10 100.5z" />
<glyph unicode="&#x38e;" horiz-adv-x="604" d="M-185 542q-9 3 -10 6t4 13l66 158q6 14 21 10l77 -21q15 -4 7 -16l-110 -153q-9 -13 -23 -9zM332 277v-261q0 -11 -3.5 -13.5t-13.5 -2.5h-66q-7 0 -10.5 1t-5.5 4.5t-2 10.5v261l-229 412q-3 4 -0.5 8t8.5 4h85q14 0 22 -14l85 -162l79 -157h4l83 164l81 155q8 14 22 14 h79q6 0 8 -4t-1 -8z" />
<glyph unicode="&#x38f;" horiz-adv-x="744" d="M-70 542q-9 3 -10 6t4 13l66 158q6 14 21 10l77 -21q15 -4 7 -16l-110 -153q-9 -13 -23 -9zM580 89h101q11 0 14.5 -4t3.5 -14v-53q0 -10 -3.5 -14t-14.5 -4h-191q-51 0 -51 46v20q0 19 7.5 28.5t33.5 29.5q97 74 97 234q0 120 -51.5 189.5t-150.5 69.5q-94 0 -148 -70.5 t-54 -186.5q0 -72 21 -129t77 -102q29 -23 35.5 -32t6.5 -28v-19q0 -50 -47 -50h-203q-11 0 -14.5 4t-3.5 14v53q0 10 3.5 14t14.5 4h102l2 3q-101 86 -101 267q0 154 85 253t224 99q142 0 224.5 -96.5t82.5 -255.5q0 -168 -104 -267z" />
<glyph unicode="&#x390;" horiz-adv-x="279" d="M334 670q0 -25 -18.5 -43.5t-44.5 -18.5t-44.5 18.5t-18.5 43.5t18.5 43.5t44.5 18.5t44.5 -18t18.5 -44zM62 670q0 -25 -18.5 -43.5t-43.5 -18.5q-26 0 -45 18.5t-19 43.5t19 43.5t45 18.5q25 0 43.5 -18t18.5 -44zM85 582l-7.5 2.5t-5.5 2.5t-2.5 5t0.5 9l34 164 q6 13 20 13l80 -11q15 -1 10 -15l-80 -165q-6 -9 -9.5 -11.5t-12.5 -0.5zM263 22q1 -9 -0.5 -12.5t-10.5 -8.5q-27 -12 -82 -12q-52 0 -73.5 24t-21.5 79v417q0 11 3 13.5t13 2.5h64q11 0 14.5 -2.5t3.5 -13.5v-390q0 -26 7 -35t26 -9q14 0 36 2q9 1 11.5 -1t3.5 -10z" />
<glyph unicode="&#x391;" horiz-adv-x="629" d="M524 0q-9 0 -13 0.5t-8 4t-6 11.5l-47 142h-271l-47 -142q-6 -16 -24 -16h-77q-22 0 -14 21l222 637q9 26 20 34.5t37 9.5h33q29 0 40 -9t20 -35l223 -637q3 -9 -0.5 -15t-12.5 -6h-75zM359 442l-45 142h-5l-42 -137l-61 -198h214z" />
<glyph unicode="&#x392;" horiz-adv-x="654" d="M492 217q0 55 -34.5 88t-99.5 33h-179v-243h178q72 0 103.5 37t31.5 85zM179 425h177q40 0 72.5 22t32.5 75q0 40 -26.5 63t-71.5 23h-184v-183zM489 385q54 -21 82 -69t28 -106q0 -92 -66.5 -151t-164.5 -59h-239q-29 0 -41.5 12.5t-12.5 41.5v593q0 29 12.5 41.5 t41.5 12.5l223 1q100 0 158.5 -42t58.5 -130q0 -44 -22.5 -81.5t-57.5 -56.5v-7z" />
<glyph unicode="&#x393;" horiz-adv-x="548" d="M178 21q0 -14 -4.5 -17.5t-18.5 -3.5h-57q-13 0 -18 4t-5 17v503q0 78 40.5 127.5t133.5 49.5h267q13 0 17 -5t4 -18v-47q0 -14 -3.5 -18.5t-17.5 -4.5h-267q-38 0 -54.5 -16t-16.5 -52v-519z" />
<glyph unicode="&#x394;" horiz-adv-x="627" d="M370 435l-56 161h-4l-56 -165l-120 -335l3 -3h354l2 3zM596 101q11 -24 11 -46v-11q0 -22 -11.5 -33t-28.5 -11h-505q-25 0 -34.5 11t-9.5 33v11q0 17 8 38l213 565q9 26 20 34.5t37 9.5h33q29 0 40 -9t20 -35z" />
<glyph unicode="&#x395;" horiz-adv-x="588" d="M548 23q0 -13 -4 -18t-17 -5h-278q-174 0 -174 176v348q0 76 43 126.5t131 50.5h274q13 0 17 -5t4 -18v-48q0 -13 -3.5 -17.5t-17.5 -4.5h-274q-38 0 -54.5 -16.5t-16.5 -52.5v-123h312q12 0 16 -5t4 -18v-42q0 -12 -4 -17.5t-16 -5.5h-312v-166q0 -68 71 -68h278 q14 0 17.5 -4.5t3.5 -18.5v-48z" />
<glyph unicode="&#x396;" horiz-adv-x="617" d="M512 701q30 0 44 -12t14 -40v-21q0 -32 -28 -65l-392 -468l2 -6h411q11 0 13.5 -3.5t2.5 -14.5v-53q0 -11 -2.5 -14.5t-13.5 -3.5h-478q-55 0 -55 49v16q0 33 24 60l407 484l-2 3h-361q-11 0 -13.5 3.5t-2.5 13.5v54q0 7 1 10.5t4.5 5.5t10.5 2h414z" />
<glyph unicode="&#x397;" horiz-adv-x="694" d="M515 679q0 13 5 17t18 4h58q14 0 18.5 -3.5t4.5 -17.5v-658q0 -14 -4.5 -17.5t-18.5 -3.5h-58q-13 0 -18 4t-5 17v303h-336v-303q0 -14 -4.5 -17.5t-18.5 -3.5h-58q-13 0 -18 4t-5 17v658q0 13 5 17t18 4h58q14 0 18.5 -3.5t4.5 -17.5v-266h336v266z" />
<glyph unicode="&#x398;" horiz-adv-x="722" d="M493 409q11 0 13.5 -3.5t2.5 -14.5v-53q0 -7 -1 -10.5t-4.5 -5.5t-10.5 -2h-261q-10 0 -13 4t-3 14v53q0 11 2.5 14.5t13.5 3.5h261zM667 353q0 -176 -79.5 -270t-229.5 -94q-148 0 -225.5 91t-77.5 269q0 169 87 265.5t219 96.5q147 0 226.5 -94.5t79.5 -263.5zM562 349 q0 56 -9.5 101.5t-31 84.5t-61.5 61t-96 22q-93 0 -149 -76.5t-56 -188.5q0 -271 200 -271q71 0 118 39t66 97t19 131z" />
<glyph unicode="&#x399;" horiz-adv-x="275" d="M86 679q0 13 5 17t18 4h58q14 0 18.5 -3.5t4.5 -17.5v-658q0 -14 -4.5 -17.5t-18.5 -3.5h-58q-13 0 -18 4t-5 17v658z" />
<glyph unicode="&#x39a;" horiz-adv-x="639" d="M75 679q0 13 5 17t18 4h56q14 0 18.5 -3.5t4.5 -17.5v-326l4 -2l104 131l169 205q13 13 34 13h85q9 0 11.5 -5t-2.5 -11l-193 -235l241 -427q12 -22 -10 -22h-72q-18 0 -25.5 3t-15.5 17l-190 343l-140 -174v-168q0 -14 -4.5 -17.5t-18.5 -3.5h-56q-13 0 -18 4t-5 17v658 z" />
<glyph unicode="&#x39b;" horiz-adv-x="636" d="M359 442l-45 142h-5l-42 -137l-135 -431q-6 -16 -24 -16h-77q-22 0 -14 21l222 637q9 26 20 34.5t37 9.5h33q29 0 40 -9t20 -35l223 -637q3 -9 -0.5 -15t-12.5 -6h-75q-9 0 -13 0.5t-8 4t-6 11.5z" />
<glyph unicode="&#x39c;" horiz-adv-x="818" d="M644 516h-6l-57 -149l-96 -241q-10 -27 -20.5 -35.5t-36.5 -8.5h-38q-26 0 -36.5 8.5t-20.5 35.5l-97 237l-56 141h-6v-483q0 -14 -4.5 -17.5t-18.5 -3.5h-53q-13 0 -18 4t-5 17v625q0 28 11.5 41.5t42.5 13.5h31q24 0 36.5 -8.5t23.5 -34.5l129 -326l58 -152h4l57 149 l130 329q11 26 23.5 34.5t36.5 8.5h31q31 0 42.5 -13.5t11.5 -41.5v-625q0 -14 -4.5 -17.5t-18.5 -3.5h-53q-13 0 -18 4t-5 17v495z" />
<glyph unicode="&#x39d;" horiz-adv-x="700" d="M524 680q0 13 5 17t18 4h55q14 0 18.5 -3.5t4.5 -17.5v-625q0 -29 -12 -42t-42 -13h-30q-22 0 -33 8.5t-27 34.5l-220 367l-82 142h-3v-531q0 -14 -4.5 -17.5t-18.5 -3.5h-55q-13 0 -18 4t-5 17v625q0 29 12 42t42 13h30q22 0 33 -8.5t27 -34.5l217 -363l85 -146h3v531z " />
<glyph unicode="&#x39e;" horiz-adv-x="594" d="M529 701q10 0 13 -4t3 -14v-60q0 -10 -2.5 -13.5t-13.5 -3.5h-467q-11 0 -13.5 3.5t-2.5 13.5v60q0 7 1 10.5t4.5 5.5t10.5 2h467zM493 417q11 0 13.5 -3.5t2.5 -14.5v-53q0 -7 -1 -10.5t-4.5 -5.5t-10.5 -2h-395q-10 0 -13 4t-3 14v53q0 11 2.5 14.5t13.5 3.5h395zM56 0 q-10 0 -13 4t-3 14v62q0 11 2.5 14.5t13.5 3.5h482q11 0 13.5 -3.5t2.5 -14.5v-62q0 -7 -1 -10.5t-4.5 -5.5t-10.5 -2h-482z" />
<glyph unicode="&#x39f;" horiz-adv-x="712" d="M657 353q0 -177 -77.5 -270.5t-226.5 -93.5q-147 0 -222.5 90.5t-75.5 269.5q0 169 84.5 265.5t216.5 96.5q145 0 223 -94.5t78 -263.5zM552 349q0 57 -8 101.5t-28.5 84.5t-60 61.5t-96.5 21.5q-97 0 -148.5 -75t-51.5 -190q0 -131 44.5 -201t150.5 -70q55 0 95 22 t61.5 60.5t31.5 84t10 100.5z" />
<glyph unicode="&#x3a0;" horiz-adv-x="692" d="M617 16q0 -11 -3.5 -13.5t-14.5 -2.5h-67q-7 0 -10.5 1t-5.5 4.5t-2 10.5v593h-335v-593q0 -11 -3.5 -13.5t-14.5 -2.5h-68q-7 0 -10.5 1t-5.5 4.5t-2 10.5v617q0 34 17.5 51t46.5 17h414q64 0 64 -68v-617z" />
<glyph unicode="&#x3a1;" horiz-adv-x="613" d="M75 648q0 29 12.5 41.5t41.5 12.5h233q97 0 158.5 -58.5t61.5 -151.5q0 -25 -5 -51t-20.5 -56.5t-39.5 -54t-65 -39.5t-94 -16h-181v-254q0 -14 -4.5 -17.5t-18.5 -3.5h-56q-13 0 -18 4t-5 17v627zM475 485q0 48 -31.5 85t-106.5 37h-159v-241h162q69 0 102 31.5t33 87.5 z" />
<glyph unicode="&#x3a3;" horiz-adv-x="580" d="M163 94h381q11 0 13.5 -3.5t2.5 -14.5v-58q0 -11 -2.5 -14.5t-13.5 -3.5h-471q-43 0 -43 42v19q0 31 31 70l189 233l-177 193q-30 31 -30 64v26q0 54 56 54h425q10 0 13 -4t3 -14v-57q0 -10 -2.5 -13.5t-13.5 -3.5h-365l-2 -4l170 -177q34 -34 35 -60q1 -25 -31 -64 l-170 -206z" />
<glyph unicode="&#x3a4;" horiz-adv-x="555" d="M222 609h-191q-11 0 -13.5 3.5t-2.5 13.5v56q0 7 1 10.5t4.5 5.5t10.5 2h493q10 0 13 -4t3 -14v-56q0 -10 -2.5 -13.5t-13.5 -3.5h-196v-588q0 -14 -4.5 -17.5t-18.5 -3.5h-60q-13 0 -18 4t-5 17v588z" />
<glyph unicode="&#x3a5;" horiz-adv-x="578" d="M342 277v-261q0 -11 -3.5 -13.5t-13.5 -2.5h-66q-7 0 -10.5 1t-5.5 4.5t-2 10.5v261l-229 412q-3 4 -0.5 8t8.5 4h85q14 0 22 -14l85 -162l79 -157h4l83 164l81 155q8 14 22 14h79q6 0 8 -4t-1 -8z" />
<glyph unicode="&#x3a6;" horiz-adv-x="838" d="M468 143q106 8 161 67t55 150t-53.5 150t-162.5 68v-435zM364 577q-98 -12 -154 -71.5t-56 -145.5q0 -90 53 -148.5t157 -67.5v433zM468 16q0 -11 -3.5 -13.5t-14.5 -2.5h-68q-7 0 -10.5 1t-5.5 4.5t-2 10.5v42q-149 14 -229 93t-80 209q0 127 84.5 207t224.5 95v22 q0 10 4 13t14 3h68q11 0 14.5 -2.5t3.5 -13.5v-22q152 -13 233.5 -91.5t81.5 -210.5q0 -127 -87 -207t-228 -95v-42z" />
<glyph unicode="&#x3a7;" horiz-adv-x="571" d="M559 14q6 -14 -9 -14h-82q-20 0 -30 15l-154 263l-155 -263q-10 -15 -30 -15h-79q-16 0 -8 14l214 345l-201 329q-3 4 -1 8.5t10 4.5h79q14 0 19.5 -2.5t10.5 -12.5l144 -243l143 243q9 15 30 15h75q8 0 10 -5t-2 -10l-199 -324z" />
<glyph unicode="&#x3a8;" horiz-adv-x="804" d="M640 684q0 10 4 13t14 3h68q11 0 14.5 -2.5t3.5 -13.5v-207q0 -135 -80.5 -212.5t-213.5 -87.5v-161q0 -11 -3.5 -13.5t-14.5 -2.5h-67q-7 0 -10.5 1t-5.5 4.5t-2 10.5v161q-139 8 -213 86t-74 216v205q0 10 4 13t14 3h68q11 0 14.5 -2.5t3.5 -13.5v-223q0 -85 45 -135.5 t138 -56.5v415q0 10 4 13t14 3h67q11 0 14.5 -2.5t3.5 -13.5v-416q92 8 141 56.5t49 134.5v225z" />
<glyph unicode="&#x3a9;" horiz-adv-x="744" d="M580 89h101q11 0 14.5 -4t3.5 -14v-53q0 -10 -3.5 -14t-14.5 -4h-191q-51 0 -51 46v20q0 19 7.5 28.5t33.5 29.5q97 74 97 234q0 120 -51.5 189.5t-150.5 69.5q-94 0 -148 -70.5t-54 -186.5q0 -72 21 -129t77 -102q29 -23 35.5 -32t6.5 -28v-19q0 -50 -47 -50h-203 q-11 0 -14.5 4t-3.5 14v53q0 10 3.5 14t14.5 4h102l2 3q-101 86 -101 267q0 154 85 253t224 99q142 0 224.5 -96.5t82.5 -255.5q0 -168 -104 -267z" />
<glyph unicode="&#x3aa;" horiz-adv-x="275" d="M86 679q0 13 5 17t18 4h58q14 0 18.5 -3.5t4.5 -17.5v-658q0 -14 -4.5 -17.5t-18.5 -3.5h-58q-13 0 -18 4t-5 17v658zM291 814q0 -23 -18 -41t-41 -18q-24 0 -42.5 18t-18.5 41q0 22 18.5 40.5t41.5 18.5t41.5 -18t18.5 -41zM107 814q0 -23 -18.5 -41t-41.5 -18t-41.5 18 t-18.5 41q0 22 18.5 40.5t41.5 18.5t41.5 -18t18.5 -41z" />
<glyph unicode="&#x3ab;" horiz-adv-x="578" d="M342 277v-261q0 -11 -3.5 -13.5t-13.5 -2.5h-66q-7 0 -10.5 1t-5.5 4.5t-2 10.5v261l-229 412q-3 4 -0.5 8t8.5 4h85q14 0 22 -14l85 -162l79 -157h4l83 164l81 155q8 14 22 14h79q6 0 8 -4t-1 -8zM445 796q0 -23 -18 -41t-41 -18q-24 0 -42.5 18t-18.5 41 q0 22 18.5 40.5t41.5 18.5t41.5 -18t18.5 -41zM261 796q0 -23 -18.5 -41t-41.5 -18t-41.5 18t-18.5 41q0 22 18.5 40.5t41.5 18.5t41.5 -18t18.5 -41z" />
<glyph unicode="&#x3ac;" horiz-adv-x="565" d="M263 592q-9 3 -10 6t4 13l66 158q6 14 21 10l77 -21q15 -4 7 -16l-110 -153q-9 -13 -23 -9zM45 254q0 58 13.5 107t42.5 89.5t80.5 63t120.5 22.5q84 0 173 -22q17 -5 21 -11.5t4 -19.5v-439q0 -15 -13 -19q-86 -36 -208 -36q-234 0 -234 265zM147 254q0 -97 36 -139 t112 -42q70 0 106 16v349q-44 13 -105 13q-68 0 -108.5 -47.5t-40.5 -149.5z" />
<glyph unicode="&#x3ad;" horiz-adv-x="465" d="M197 592q-9 3 -10 6t4 13l66 158q6 14 21 10l77 -21q15 -4 7 -16l-110 -153q-9 -13 -23 -9zM253 536q94 0 159 -36q15 -7 7 -23l-23 -48q-3 -7 -5.5 -8.5t-14.5 2.5q-66 27 -120 27q-51 0 -75.5 -20t-24.5 -43q0 -37 28 -51t93 -20q20 -2 28.5 -8t8.5 -21v-20 q0 -27 -37 -29q-62 -3 -97.5 -26.5t-34.5 -65.5q0 -32 26 -54.5t89 -22.5q30 0 71.5 11.5t62.5 23.5q14 8 21 -6l21 -43q11 -15 -5 -23q-79 -43 -180 -43t-153 41t-52 108q0 47 29.5 86t70.5 50v2q-87 21 -89 109q0 64 50.5 107.5t145.5 43.5z" />
<glyph unicode="&#x3ae;" horiz-adv-x="568" d="M229 592q-9 3 -10 6t4 13l66 158q6 14 21 10l77 -21q15 -4 7 -16l-110 -153q-9 -13 -23 -9zM503 16q0 -11 -3.5 -13.5t-14.5 -2.5h-62q-7 0 -10.5 1t-5.5 4.5t-2 10.5v264q0 89 -33.5 129t-122.5 40q-45 0 -86 -7v-426q0 -11 -3.5 -13.5t-14.5 -2.5h-62q-7 0 -10.5 1 t-5.5 4.5t-2 10.5v428q0 74 70 84q72 8 122 8q129 0 187.5 -59t58.5 -194v-267z" />
<glyph unicode="&#x3af;" horiz-adv-x="279" d="M92 592q-9 3 -10 6t4 13l66 158q6 14 21 10l77 -21q15 -4 7 -16l-110 -153q-9 -13 -23 -9zM263 22q1 -9 -0.5 -12.5t-10.5 -8.5q-27 -12 -82 -12q-52 0 -73.5 24t-21.5 79v417q0 11 3 13.5t13 2.5h64q11 0 14.5 -2.5t3.5 -13.5v-390q0 -26 7 -35t26 -9q14 0 36 2 q9 1 11.5 -1t3.5 -10z" />
<glyph unicode="&#x3b0;" horiz-adv-x="579" d="M416 509q0 10 4 13t14 3h62q11 0 14.5 -2.5t3.5 -13.5v-285q0 -116 -57.5 -175.5t-163.5 -59.5q-228 0 -228 221v299q0 10 4 13t14 3h62q11 0 14.5 -2.5t3.5 -13.5v-309q0 -129 122 -129q131 0 131 130v308zM500 670q0 -25 -18.5 -43.5t-44.5 -18.5t-44.5 18.5 t-18.5 43.5t18.5 43.5t44.5 18.5t44.5 -18t18.5 -44zM228 670q0 -25 -18.5 -43.5t-43.5 -18.5q-26 0 -45 18.5t-19 43.5t19 43.5t45 18.5q25 0 43.5 -18t18.5 -44zM251 582l-7.5 2.5t-5.5 2.5t-2.5 5t0.5 9l34 164q6 13 20 13l80 -11q15 -1 10 -15l-80 -165 q-6 -9 -9.5 -11.5t-12.5 -0.5z" />
<glyph unicode="&#x3b1;" horiz-adv-x="565" d="M45 254q0 58 13.5 107t42.5 89.5t80.5 63t120.5 22.5q84 0 173 -22q17 -5 21 -11.5t4 -19.5v-439q0 -15 -13 -19q-86 -36 -208 -36q-234 0 -234 265zM147 254q0 -97 36 -139t112 -42q70 0 106 16v349q-44 13 -105 13q-68 0 -108.5 -47.5t-40.5 -149.5z" />
<glyph unicode="&#x3b2;" horiz-adv-x="559" d="M273 733q101 0 152 -53t51 -127q0 -39 -21 -79.5t-64 -58.5v-3q56 -14 89.5 -66.5t33.5 -119.5q0 -112 -68 -174.5t-177 -62.5q-114 0 -190 34q-14 8 -14 24v456q0 108 55.5 169t152.5 61zM273 652q-58 0 -83.5 -39.5t-25.5 -93.5v-432q44 -15 114 -15q66 0 101.5 39.5 t35.5 105.5q0 138 -136 147q-12 2 -18.5 4t-11 8.5t-4.5 17.5v17q0 30 31 33q102 11 102 103q0 41 -25.5 73t-79.5 32z" />
<glyph unicode="&#x3b3;" horiz-adv-x="502" d="M312 294l75 217q5 14 17 14h74q12 0 8 -16l-184 -504v-188q0 -18 -19 -18h-61q-11 0 -15 3.5t-4 14.5v188l-144 425q-6 15 -13 17q-5 1 -14 1q-5 -1 -9 -1t-6.5 2t-3.5 6l-8 49q-3 13 11 18q31 12 57 12q32 0 44.5 -12.5t25.5 -51.5l58 -181l51 -166h3z" />
<glyph unicode="&#x3b4;" horiz-adv-x="563" d="M145 241q0 -76 33.5 -123t103.5 -47q66 0 101.5 48t35.5 119q0 145 -137 194q-58 -9 -97.5 -69t-39.5 -122zM292 734q85 0 158 -29q14 -6 9 -21l-21 -53q-5 -10 -17 -5q-69 25 -132 25q-36 0 -54.5 -16.5t-18.5 -41.5q0 -29 22.5 -45.5t89.5 -45.5q74 -30 131.5 -96.5 t57.5 -165.5q0 -113 -63 -182t-175 -69q-111 0 -172 64.5t-61 178.5q0 73 36.5 141t102.5 102v3q-65 43 -65 109q0 67 45 107t127 40z" />
<glyph unicode="&#x3b5;" horiz-adv-x="465" d="M253 536q94 0 159 -36q15 -7 7 -23l-23 -48q-3 -7 -5.5 -8.5t-14.5 2.5q-66 27 -120 27q-51 0 -75.5 -20t-24.5 -43q0 -37 28 -51t93 -20q20 -2 28.5 -8t8.5 -21v-20q0 -27 -37 -29q-62 -3 -97.5 -26.5t-34.5 -65.5q0 -32 26 -54.5t89 -22.5q30 0 71.5 11.5t62.5 23.5 q14 8 21 -6l21 -43q11 -15 -5 -23q-79 -43 -180 -43t-153 41t-52 108q0 47 29.5 86t70.5 50v2q-87 21 -89 109q0 64 50.5 107.5t145.5 43.5z" />
<glyph unicode="&#x3b6;" horiz-adv-x="447" d="M144 224q0 -40 25 -60.5t94 -46.5q78 -31 116 -52.5t50 -38t12 -40.5q0 -56 -99 -151q-12 -12 -21 -4l-37 29q-10 7 -1 19q3 6 30.5 39t27.5 43q0 30 -103 68q-108 41 -151 79.5t-43 101.5q0 81 80 190.5t243 239.5l-1 3h-273q-11 0 -14 3.5t-3 12.5v48q0 16 17 16h337 q26 0 36.5 -10.5t10.5 -34.5v-16q0 -33 -24 -52q-165 -138 -237 -234.5t-72 -151.5z" />
<glyph unicode="&#x3b7;" horiz-adv-x="568" d="M503 16q0 -11 -3.5 -13.5t-14.5 -2.5h-62q-7 0 -10.5 1t-5.5 4.5t-2 10.5v264q0 89 -33.5 129t-122.5 40q-45 0 -86 -7v-426q0 -11 -3.5 -13.5t-14.5 -2.5h-62q-7 0 -10.5 1t-5.5 4.5t-2 10.5v428q0 74 70 84q72 8 122 8q129 0 187.5 -59t58.5 -194v-267z" />
<glyph unicode="&#x3b8;" horiz-adv-x="563" d="M518 363q0 -374 -239 -374q-118 0 -176 91t-58 281q0 184 61 277t174 93q238 0 238 -368zM423 415q-2 112 -38 173t-106 61q-66 0 -102 -63.5t-38 -170.5h284zM139 335q2 -138 35 -202.5t107 -64.5q142 0 142 267h-284z" />
<glyph unicode="&#x3b9;" horiz-adv-x="279" d="M263 22q1 -9 -0.5 -12.5t-10.5 -8.5q-27 -12 -82 -12q-52 0 -73.5 24t-21.5 79v417q0 11 3 13.5t13 2.5h64q11 0 14.5 -2.5t3.5 -13.5v-390q0 -26 7 -35t26 -9q14 0 36 2q9 1 11.5 -1t3.5 -10z" />
<glyph unicode="&#x3ba;" horiz-adv-x="498" d="M167 291l188 226q6 8 19 8h87q5 0 6.5 -4.5t-1.5 -8.5l-163 -192l184 -308q7 -12 -8 -12h-79q-16 0 -23 11l-136 237l-79 -93v-139q0 -11 -3.5 -13.5t-14.5 -2.5h-62q-7 0 -10.5 1t-5.5 4.5t-2 10.5v493q0 10 4 13t14 3h62q11 0 14.5 -2.5t3.5 -13.5v-216z" />
<glyph unicode="&#x3bb;" horiz-adv-x="563" d="M498 16q0 -10 -4 -13t-14 -3h-63q-11 0 -14.5 2.5t-3.5 13.5v344q-45 15 -104 15q-72 0 -104.5 -33.5t-32.5 -109.5v-216q0 -11 -3.5 -13.5t-14.5 -2.5h-62q-7 0 -10.5 1t-5.5 4.5t-2 10.5v217q0 105 55.5 166.5t167.5 61.5q64 0 116 -15v40q0 77 -47.5 117.5 t-154.5 52.5q-11 2 -10 11l10 64q3 12 15 10q142 -13 214 -74.5t72 -194.5v-456z" />
<glyph unicode="&#x3bc;" horiz-adv-x="558" d="M65 510q0 11 3.5 13.5t14.5 2.5h62q7 0 10.5 -1t5.5 -4.5t2 -10.5v-328q0 -30 4 -47t19 -32t44.5 -20.5t78.5 -5.5q45 0 86 7v426q0 11 3.5 13.5t14.5 2.5h62q7 0 10.5 -1t5.5 -4.5t2 -10.5v-428q0 -72 -70 -84q-42 -8 -122 -8q-92 0 -139 23v-199q0 -11 -3.5 -13.5 t-14.5 -2.5h-61q-7 0 -10.5 1t-5.5 4.5t-2 10.5v696z" />
<glyph unicode="&#x3bd;" horiz-adv-x="505" d="M333 42q-9 -28 -20 -37.5t-36 -9.5h-44q-22 0 -33.5 9t-22.5 37l-161 473q-3 11 9 11h76q11 0 15 -10l85 -257l52 -171h6l50 169l82 259q4 10 15 10h74q12 0 9 -11z" />
<glyph unicode="&#x3be;" horiz-adv-x="423" d="M140 207q0 -26 12 -46t37.5 -35.5t47.5 -25t58 -22.5q69 -24 107.5 -50.5t38.5 -68.5q0 -58 -90 -145q-12 -12 -21 -4l-40 31q-10 7 -1 19q4 7 16 22t20.5 28t8.5 20q0 37 -103 71q-31 11 -52.5 20t-50 26.5t-46 37.5t-30 51t-12.5 69q0 55 32 109t86 71v4 q-100 38 -100 148q0 86 59.5 140t161.5 54q94 0 159 -36q15 -7 7 -23l-21 -48q-3 -7 -5.5 -8.5t-14.5 2.5q-66 27 -122 27t-90.5 -27t-34.5 -82q0 -27 8.5 -45.5t21.5 -29t39 -16.5t48 -8t62 -4q38 -2 38 -35v-15q0 -31 -38 -33q-98 -4 -147 -35t-49 -108z" />
<glyph unicode="&#x3bf;" horiz-adv-x="563" d="M518 265q0 -135 -61 -205.5t-178 -70.5q-115 0 -174.5 69t-59.5 204q0 128 66.5 201t170.5 73q115 0 175.5 -70.5t60.5 -200.5zM419 262q0 192 -135 192q-69 0 -105 -53t-36 -136q0 -94 31 -144t106 -50q74 0 106.5 53.5t32.5 137.5z" />
<glyph unicode="&#x3c0;" horiz-adv-x="578" d="M163 16q0 -11 -3.5 -13.5t-14.5 -2.5h-62q-7 0 -10.5 1t-5.5 4.5t-2 10.5v466q0 15 11 29t33 14h359q23 0 34 -13.5t11 -29.5v-466q0 -11 -3.5 -13.5t-14.5 -2.5h-62q-7 0 -10.5 1t-5.5 4.5t-2 10.5v424h-252v-424z" />
<glyph unicode="&#x3c1;" horiz-adv-x="576" d="M429 262q0 190 -145 190q-62 0 -91 -40t-29 -103v-219q41 -16 107 -16q158 0 158 188zM163 -186q0 -11 -3.5 -13.5t-14.5 -2.5h-62q-7 0 -10.5 1t-5.5 4.5t-2 10.5v487q0 65 19 112.5t52.5 73t72 37.5t83.5 12q113 0 176 -70.5t63 -203.5q0 -119 -64 -196t-178 -77 q-81 0 -125 16z" />
<glyph unicode="&#x3c2;" horiz-adv-x="471" d="M282 536q86 0 149 -35q15 -8 6 -23l-23 -48q-6 -13 -21 -6q-60 25 -109 24q-70 -2 -105 -53t-35 -125q0 -64 22 -97t85 -61q111 -49 142 -70t31 -53q0 -58 -90 -145q-12 -12 -21 -4l-40 32q-10 7 -1 19q4 7 16 22t20.5 28t8.5 20q0 14 -18.5 24.5t-80.5 37.5 q-100 42 -136.5 98.5t-36.5 148.5q0 119 64 192.5t173 73.5z" />
<glyph unicode="&#x3c3;" horiz-adv-x="586" d="M420 257q0 186 -138 186q-65 0 -102 -50t-37 -133q0 -190 142 -190q66 0 100.5 51.5t34.5 135.5zM545 525q16 0 16 -16v-52q0 -6 -1 -9t-4.5 -5t-10.5 -2h-80l-3 -5q57 -65 57 -176q0 -128 -64 -199.5t-176 -71.5q-116 0 -175 69t-59 199q0 127 67.5 197.5t172.5 70.5 h260z" />
<glyph unicode="&#x3c4;" horiz-adv-x="412" d="M231 135q0 -33 14.5 -46.5t47.5 -13.5q29 0 76 7q15 4 17 -9l10 -52q2 -14 -9 -18q-44 -14 -111 -14q-77 0 -110 33.5t-33 106.5v312h-102q-16 0 -16 16v50q0 6 1 9.5t4.5 6t10.5 2.5h330q16 0 16 -16v-52q0 -6 -1 -9t-4.5 -5t-10.5 -2h-130v-306z" />
<glyph unicode="&#x3c5;" horiz-adv-x="579" d="M416 509q0 10 4 13t14 3h62q11 0 14.5 -2.5t3.5 -13.5v-285q0 -116 -57.5 -175.5t-163.5 -59.5q-228 0 -228 221v299q0 10 4 13t14 3h62q11 0 14.5 -2.5t3.5 -13.5v-309q0 -129 122 -129q131 0 131 130v308z" />
<glyph unicode="&#x3c6;" horiz-adv-x="704" d="M299 455q0 64 59 73q42 6 74 6q117 0 172 -70t55 -191q0 -122 -69 -199t-191 -85v-175q0 -11 -3.5 -13.5t-14.5 -2.5h-64q-7 0 -10.5 1t-5.5 4.5t-2 10.5v175q-127 8 -190.5 81.5t-63.5 192.5q0 101 50.5 169t115.5 89q15 5 20 -7l25 -49q6 -12 -11 -23 q-104 -56 -104 -181q0 -77 37 -128.5t121 -60.5v383zM563 268q0 94 -34 137.5t-109 43.5q-12 0 -21 -1v-376q87 8 125.5 62t38.5 134z" />
<glyph unicode="&#x3c7;" horiz-adv-x="482" d="M297 282l174 -266q9 -16 -7 -16h-82q-17 0 -25 13l-118 191l-121 -190q-11 -14 -26 -14h-73q-16 0 -7 17l173 260l-151 231q-4 5 -2.5 11t9.5 6h76q18 0 26 -13l100 -163l103 163q8 13 24 13h73q9 0 10.5 -5.5t-1.5 -8.5z" />
<glyph unicode="&#x3c8;" horiz-adv-x="724" d="M659 251q0 -243 -248 -261v-176q0 -11 -3.5 -13.5t-14.5 -2.5h-62q-7 0 -10.5 1t-5.5 4.5t-2 10.5v176q-134 14 -191 79.5t-57 186.5v253q0 10 4 13t14 3h63q11 0 14.5 -2.5t3.5 -13.5v-252q0 -166 149 -180v432q0 10 4 13t14 3h62q11 0 14.5 -2.5t3.5 -13.5v-433 q149 15 149 172v261q0 10 4 13t14 3h63q11 0 14.5 -2.5t3.5 -13.5v-258z" />
<glyph unicode="&#x3c9;" horiz-adv-x="794" d="M446 174q0 -46 25.5 -73.5t70.5 -27.5q52 0 80.5 49t28.5 141q0 64 -25 112.5t-70 68.5q-18 7 -10 22l21 50q6 14 17 11q77 -22 121 -93t44 -180q0 -130 -58 -198t-141 -68q-57 0 -92.5 18.5t-58.5 61.5h-4q-45 -80 -151 -80q-92 0 -145.5 64t-53.5 199q0 106 44.5 180 t120.5 96q11 3 17 -11l18 -48q3 -12 1 -15.5t-11 -6.5q-92 -41 -92 -194q0 -85 28 -132t81 -47q45 0 70.5 27.5t25.5 73.5v164q0 11 4 14t14 3h62q10 0 14 -3t4 -14v-164z" />
<glyph unicode="&#x3ca;" horiz-adv-x="279" d="M281 670q0 -23 -18 -41t-41 -18q-24 0 -42.5 18t-18.5 41q0 22 18.5 40.5t41.5 18.5t41.5 -18t18.5 -41zM97 670q0 -23 -18.5 -41t-41.5 -18t-41.5 18t-18.5 41q0 22 18.5 40.5t41.5 18.5t41.5 -18t18.5 -41zM263 22q1 -9 -0.5 -12.5t-10.5 -8.5q-27 -12 -82 -12 q-52 0 -73.5 24t-21.5 79v417q0 11 3 13.5t13 2.5h64q11 0 14.5 -2.5t3.5 -13.5v-390q0 -26 7 -35t26 -9q14 0 36 2q9 1 11.5 -1t3.5 -10z" />
<glyph unicode="&#x3cb;" horiz-adv-x="579" d="M445 670q0 -23 -18 -41t-41 -18q-24 0 -42.5 18t-18.5 41q0 22 18.5 40.5t41.5 18.5t41.5 -18t18.5 -41zM261 670q0 -23 -18.5 -41t-41.5 -18t-41.5 18t-18.5 41q0 22 18.5 40.5t41.5 18.5t41.5 -18t18.5 -41zM416 509q0 10 4 13t14 3h62q11 0 14.5 -2.5t3.5 -13.5v-285 q0 -116 -57.5 -175.5t-163.5 -59.5q-228 0 -228 221v299q0 10 4 13t14 3h62q11 0 14.5 -2.5t3.5 -13.5v-309q0 -129 122 -129q131 0 131 130v308z" />
<glyph unicode="&#x3cc;" horiz-adv-x="563" d="M518 265q0 -135 -61 -205.5t-178 -70.5q-115 0 -174.5 69t-59.5 204q0 128 66.5 201t170.5 73q115 0 175.5 -70.5t60.5 -200.5zM419 262q0 192 -135 192q-69 0 -105 -53t-36 -136q0 -94 31 -144t106 -50q74 0 106.5 53.5t32.5 137.5zM260 592q-9 3 -10 6t4 13l66 158 q6 14 21 10l77 -21q15 -4 7 -16l-110 -153q-9 -13 -23 -9z" />
<glyph unicode="&#x3cd;" horiz-adv-x="579" d="M416 509q0 10 4 13t14 3h62q11 0 14.5 -2.5t3.5 -13.5v-285q0 -116 -57.5 -175.5t-163.5 -59.5q-228 0 -228 221v299q0 10 4 13t14 3h62q11 0 14.5 -2.5t3.5 -13.5v-309q0 -129 122 -129q131 0 131 130v308zM261 592q-9 3 -10 6t4 13l66 158q6 14 21 10l77 -21 q15 -4 7 -16l-110 -153q-9 -13 -23 -9z" />
<glyph unicode="&#x3ce;" horiz-adv-x="794" d="M446 174q0 -46 25.5 -73.5t70.5 -27.5q52 0 80.5 49t28.5 141q0 64 -25 112.5t-70 68.5q-18 7 -10 22l21 50q6 14 17 11q77 -22 121 -93t44 -180q0 -130 -58 -198t-141 -68q-57 0 -92.5 18.5t-58.5 61.5h-4q-45 -80 -151 -80q-92 0 -145.5 64t-53.5 199q0 106 44.5 180 t120.5 96q11 3 17 -11l18 -48q3 -12 1 -15.5t-11 -6.5q-92 -41 -92 -194q0 -85 28 -132t81 -47q45 0 70.5 27.5t25.5 73.5v164q0 11 4 14t14 3h62q10 0 14 -3t4 -14v-164zM364 592q-9 3 -10 6t4 13l66 158q6 14 21 10l77 -21q15 -4 7 -16l-110 -153q-9 -13 -23 -9z" />
<glyph unicode="&#x401;" horiz-adv-x="588" d="M548 23q0 -13 -4 -18t-17 -5h-278q-174 0 -174 176v348q0 76 43 126.5t131 50.5h274q13 0 17 -5t4 -18v-48q0 -13 -3.5 -17.5t-17.5 -4.5h-274q-38 0 -54.5 -16.5t-16.5 -52.5v-123h312q12 0 16 -5t4 -18v-42q0 -12 -4 -17.5t-16 -5.5h-312v-166q0 -68 71 -68h278 q14 0 17.5 -4.5t3.5 -18.5v-48zM480 813q0 -23 -18 -41t-41 -18q-24 0 -42.5 18t-18.5 41q0 22 18.5 40.5t41.5 18.5t41.5 -18t18.5 -41zM296 813q0 -23 -18.5 -41t-41.5 -18t-41.5 18t-18.5 41q0 22 18.5 40.5t41.5 18.5t41.5 -18t18.5 -41z" />
<glyph unicode="&#x402;" horiz-adv-x="786" d="M741 230q0 -31 -5.5 -63.5t-20.5 -74t-48 -81.5t-81 -70q-6 -4 -11 -3.5t-10 7.5l-35 52q-5 11 5 17q104 63 104 215q0 76 -44 116.5t-115 40.5q-73 0 -154 -28v-342q0 -11 -3 -13.5t-13 -2.5h-71q-7 0 -10.5 1t-5.5 4.5t-2 10.5v592h-190q-11 0 -13.5 3.5t-2.5 13.5v57 q0 7 1 10.5t4.5 5.5t10.5 2h553q11 0 13.5 -3.5t2.5 -13.5v-57q0 -10 -2.5 -13.5t-13.5 -3.5l-258 -1v-161q88 25 171 25q115 0 179.5 -64t64.5 -178z" />
<glyph unicode="&#x403;" horiz-adv-x="548" d="M178 21q0 -14 -4.5 -17.5t-18.5 -3.5h-57q-13 0 -18 4t-5 17v503q0 78 40.5 127.5t133.5 49.5h267q13 0 17 -5t4 -18v-47q0 -14 -3.5 -18.5t-17.5 -4.5h-267q-38 0 -54.5 -16t-16.5 -52v-519zM252 779q-9 10 4 20l144 106q13 9 22 -2l46 -64q11 -11 -2 -17l-170 -76 q-15 -6 -25 4z" />
<glyph unicode="&#x404;" horiz-adv-x="606" d="M375 86q75 0 154 34q19 8 26 -9l21 -48q5 -15 4 -18.5t-9 -9.5q-75 -46 -214 -46q-146 0 -224 89t-78 268q0 164 85.5 264t224.5 100q106 0 186 -41q14 -7 5 -25l-25 -52q-7 -13 -20 -8q-70 29 -142 29q-88 0 -141 -57t-62 -146h282q11 0 13.5 -3.5t2.5 -14.5v-53 q0 -7 -1 -10.5t-4.5 -5.5t-10.5 -2h-287q5 -235 214 -235z" />
<glyph unicode="&#x405;" horiz-adv-x="577" d="M548 190q0 -99 -69 -150t-176 -51q-156 0 -258 51q-12 5 -5 21l27 61q6 12 18 7q109 -47 200 -47q157 0 157 104q0 45 -35 73t-119 61q-120 47 -173 91.5t-53 116.5q0 85 56.5 134.5t162.5 49.5q123 0 217 -40q12 -6 7 -17l-23 -64q-4 -12 -14 -8q-99 35 -191 35 q-54 0 -82.5 -23t-28.5 -59q0 -41 36 -65.5t140 -68.5l61.5 -27t53.5 -29.5t49 -39.5t29 -49.5t13 -66.5z" />
<glyph unicode="&#x406;" horiz-adv-x="275" d="M86 679q0 13 5 17t18 4h58q14 0 18.5 -3.5t4.5 -17.5v-658q0 -14 -4.5 -17.5t-18.5 -3.5h-58q-13 0 -18 4t-5 17v658z" />
<glyph unicode="&#x407;" horiz-adv-x="275" d="M86 679q0 13 5 17t18 4h58q14 0 18.5 -3.5t4.5 -17.5v-658q0 -14 -4.5 -17.5t-18.5 -3.5h-58q-13 0 -18 4t-5 17v658zM289 811q0 -23 -18 -41t-41 -18q-24 0 -42.5 18t-18.5 41q0 22 18.5 40.5t41.5 18.5t41.5 -18t18.5 -41zM105 811q0 -23 -18.5 -41t-41.5 -18t-41.5 18 t-18.5 41q0 22 18.5 40.5t41.5 18.5t41.5 -18t18.5 -41z" />
<glyph unicode="&#x408;" horiz-adv-x="567" d="M384 679q0 13 5 17t18 4h58q14 0 18.5 -3.5t4.5 -17.5q0 -130 -0.5 -231.5t-0.5 -172.5q0 -286 -263 -286q-123 0 -208 49q-8 6 -9.5 9.5t3.5 16.5l26 52q8 14 24 5q80 -38 167 -38q84 0 121 48t37 149z" />
<glyph unicode="&#x409;" horiz-adv-x="1000" d="M483 701q64 0 64 -68v-198h175q63 0 109.5 -16.5t71.5 -39.5t39.5 -55.5t18.5 -57t4 -51.5q0 -93 -68 -154t-165 -61h-236q-29 0 -41.5 12.5t-12.5 41.5v555h-177l-7 -98q-16 -236 -35 -316q-31 -135 -115 -184q-28 -17 -63 -26q-19 -5 -25 15l-12 48q-5 18 10 24 q1 1 2 1q24 10 41.5 24t30.5 28.5t22.5 42.5t15.5 51t11 69.5t8 82t8 105.5q0 6 0.5 9.5t1 8.5t0.5 10l10 129q6 68 64 68h250zM858 222q0 56 -35 91t-99 35h-177v-253h174q72 0 104.5 39t32.5 88z" />
<glyph unicode="&#x40a;" horiz-adv-x="1030" d="M526 0q-29 0 -41.5 12.5t-12.5 41.5v283h-291v-321q0 -11 -3.5 -13.5t-14.5 -2.5h-70q-7 0 -10.5 1t-5.5 4.5t-2 10.5v668q0 10 4 13t14 3h70q11 0 14.5 -2.5t3.5 -13.5v-260h291v261q0 10 4 13t14 3h69q11 0 14.5 -2.5t3.5 -13.5v-261h175q63 0 109.5 -15.5t71.5 -38 t39.5 -54t18.5 -55.5t4 -51q0 -92 -67.5 -151t-165.5 -59h-236zM888 217q0 55 -34.5 87.5t-99.5 32.5h-177v-242h174q72 0 104.5 37.5t32.5 84.5z" />
<glyph unicode="&#x40b;" horiz-adv-x="785" d="M326 16q0 -11 -3 -13.5t-13 -2.5h-70q-7 0 -10.5 1t-5.5 4.5t-2 10.5v593h-191q-11 0 -13.5 3.5t-2.5 13.5v56q0 7 1 10.5t4.5 5.5t10.5 2h546q10 0 13 -4t3 -14v-56q0 -10 -2.5 -13.5t-13.5 -3.5h-251v-163q84 26 166 26q117 0 176.5 -59.5t59.5 -174.5v-222 q0 -10 -4 -13t-14 -3h-66q-11 0 -14.5 2.5t-3.5 13.5v217q0 153 -151 153q-65 0 -149 -29v-341z" />
<glyph unicode="&#x40c;" horiz-adv-x="625" d="M435 375q48 -17 67.5 -44t33.5 -79l62 -232q4 -5 0.5 -12.5t-14.5 -7.5h-70q-16 0 -20 14l-59 221q-14 53 -43.5 73t-83.5 20h-132l1 -312q0 -11 -3.5 -13.5t-14.5 -2.5h-66q-7 0 -10.5 1t-5.5 4.5t-2 10.5v668q0 10 4 13t14 3h67q7 0 10.5 -1t5.5 -4.5t0 -10.5v-264h124 q93 0 120 99l43 169q3 14 20 14h63q11 0 14.5 -7.5t-0.5 -12.5l-43 -179q-19 -85 -82 -123v-5zM237 782q-9 10 4 20l144 106q13 9 22 -2l46 -64q11 -11 -2 -17l-170 -76q-15 -6 -25 4z" />
<glyph unicode="&#x40e;" horiz-adv-x="577" d="M346 104q-27 -73 -67 -99t-110 -26q-40 0 -78 11q-10 3 -12.5 6t-0.5 11l11 57q2 8 5.5 9.5t13.5 0.5q45 -5 65 -4q31 2 49 14.5t30 43.5l25 64h-18q-14 0 -21 1.5t-16 10.5t-16 28l-189 456q-6 13 11 13h80q16 0 21 -15l100 -254l66 -173h7l67 183l93 246q5 13 20 13h74 q16 0 10 -14zM295 731q-89 0 -166 108q-8 11 3 20l22 19q3 2 5 3t3.5 1.5t3.5 0t2.5 -1t3.5 -3t5 -3.5q66 -68 122 -68q54 0 123 71q10 10 21 2l22 -18q12 -11 4 -21q-84 -110 -174 -110z" />
<glyph unicode="&#x40f;" horiz-adv-x="692" d="M617 68q0 -68 -63 -68h-151l-10 -140q0 -17 -13 -17h-63q-13 0 -13 17l-8 140h-157q-29 0 -46.5 17t-17.5 51v617q0 10 4 13t14 3h68q11 0 14.5 -2.5t3.5 -13.5v-594h335v594q0 10 4 13t14 3h67q11 0 14.5 -2.5t3.5 -13.5v-617z" />
<glyph unicode="&#x410;" horiz-adv-x="629" d="M524 0q-9 0 -13 0.5t-8 4t-6 11.5l-47 142h-271l-47 -142q-6 -16 -24 -16h-77q-22 0 -14 21l222 637q9 26 20 34.5t37 9.5h33q29 0 40 -9t20 -35l223 -637q3 -9 -0.5 -15t-12.5 -6h-75zM359 442l-45 142h-5l-42 -137l-61 -198h214z" />
<glyph unicode="&#x411;" horiz-adv-x="633" d="M129 0q-29 0 -41.5 12.5t-12.5 41.5v578q0 68 64 68h369q10 0 13 -4t3 -14v-56q0 -10 -2.5 -13.5t-13.5 -3.5h-328v-174h175q63 0 109.5 -16.5t71.5 -39.5t39.5 -55.5t18.5 -57t4 -51.5q0 -93 -68 -154t-165 -61h-236zM491 222q0 56 -35 91t-99 35h-177v-253h174 q72 0 104.5 39t32.5 88z" />
<glyph unicode="&#x412;" horiz-adv-x="654" d="M492 217q0 55 -34.5 88t-99.5 33h-179v-243h178q72 0 103.5 37t31.5 85zM179 425h177q40 0 72.5 22t32.5 75q0 40 -26.5 63t-71.5 23h-184v-183zM489 385q54 -21 82 -69t28 -106q0 -92 -66.5 -151t-164.5 -59h-239q-29 0 -41.5 12.5t-12.5 41.5v593q0 29 12.5 41.5 t41.5 12.5l223 1q100 0 158.5 -42t58.5 -130q0 -44 -22.5 -81.5t-57.5 -56.5v-7z" />
<glyph unicode="&#x413;" horiz-adv-x="548" d="M178 21q0 -14 -4.5 -17.5t-18.5 -3.5h-57q-13 0 -18 4t-5 17v503q0 78 40.5 127.5t133.5 49.5h267q13 0 17 -5t4 -18v-47q0 -14 -3.5 -18.5t-17.5 -4.5h-267q-38 0 -54.5 -16t-16.5 -52v-519z" />
<glyph unicode="&#x414;" horiz-adv-x="725" d="M121 0l-12 -149q-2 -17 -13 -17h-58q-13 0 -14 17l-15 195q-5 43 34 47l36 2q32 37 44.5 80.5t25.5 142.5l41 315q5 36 22 52t52 16h296q35 0 51 -16.5t16 -51.5v-540l36 -2q17 -1 26 -10.5t9.5 -15.5t0.5 -17l-12 -197q-1 -17 -14 -17h-56q-11 0 -13 17l-7 149h-476z M524 609h-238l-25 -202q-21 -173 -33 -224t-35 -89h331v515z" />
<glyph unicode="&#x415;" horiz-adv-x="588" d="M548 23q0 -13 -4 -18t-17 -5h-278q-174 0 -174 176v348q0 76 43 126.5t131 50.5h274q13 0 17 -5t4 -18v-48q0 -13 -3.5 -17.5t-17.5 -4.5h-274q-38 0 -54.5 -16.5t-16.5 -52.5v-123h312q12 0 16 -5t4 -18v-42q0 -12 -4 -17.5t-16 -5.5h-312v-166q0 -68 71 -68h278 q14 0 17.5 -4.5t3.5 -18.5v-48z" />
<glyph unicode="&#x416;" horiz-adv-x="969" d="M195 380q-63 38 -82 123l-43 179q-4 5 -0.5 12.5t14.5 7.5h63q17 0 20 -14l43 -169q27 -99 120 -99h104v264q-2 10 1.5 13t14.5 3h67q7 0 10.5 -1t5.5 -4.5t2 -10.5v-264h104q93 0 120 99l43 169q3 14 20 14h63q11 0 14.5 -7.5t-0.5 -12.5l-43 -179q-19 -85 -82 -123v-5 q48 -17 67.5 -44t33.5 -79l62 -232q4 -5 0.5 -12.5t-14.5 -7.5h-70q-16 0 -20 14l-59 221q-14 53 -43.5 73t-83.5 20h-112v-312q0 -10 -4 -13t-14 -3h-66q-11 0 -14.5 2.5t-3.5 13.5l1 312h-112q-55 0 -84 -19.5t-43 -73.5l-59 -221q-4 -14 -20 -14h-70q-11 0 -14.5 7.5 t0.5 12.5l62 232q14 52 33.5 79t67.5 44v5z" />
<glyph unicode="&#x417;" horiz-adv-x="589" d="M277 618q-86 0 -174 -38q-19 -8 -26 9l-17 45q-4 15 -3.5 18.5t8.5 9.5q85 50 217 50q108 0 173 -46.5t65 -131.5q0 -56 -32.5 -98.5t-84.5 -61.5v-5q59 -8 99.5 -53.5t40.5 -108.5q0 -95 -74.5 -156.5t-200.5 -61.5q-143 0 -238 47q-9 4 -10 9t5 19l21 44q7 16 27 9 q90 -37 181 -37q182 0 182 135q0 47 -40 79.5t-121 32.5h-55q-20 0 -28 6.5t-8 25.5v20q0 34 32 34h57q68 0 105 30.5t37 82.5q0 46 -37.5 69t-100.5 23z" />
<glyph unicode="&#x418;" horiz-adv-x="704" d="M523 561l-88 -154l-214 -364q-16 -26 -27 -34.5t-33 -8.5h-32q-30 0 -42 13t-12 42v630q0 10 4 13t14 3h67q11 0 14.5 -2.5t3.5 -13.5v-541h3l82 141l220 373q16 26 27 34.5t33 8.5h32q30 0 42 -13t12 -42v-630q0 -10 -4 -13t-14 -3h-67q-11 0 -14.5 2.5t-3.5 13.5v545 h-3z" />
<glyph unicode="&#x419;" horiz-adv-x="704" d="M523 561l-88 -154l-214 -364q-16 -26 -27 -34.5t-33 -8.5h-32q-30 0 -42 13t-12 42v630q0 10 4 13t14 3h67q11 0 14.5 -2.5t3.5 -13.5v-541h3l82 141l220 373q16 26 27 34.5t33 8.5h32q30 0 42 -13t12 -42v-630q0 -10 -4 -13t-14 -3h-67q-11 0 -14.5 2.5t-3.5 13.5v545 h-3zM344 731q-89 0 -166 108q-8 11 3 20l22 19q3 2 5 3t3.5 1.5t3.5 0t2.5 -1t3.5 -3t5 -3.5q66 -68 122 -68q54 0 123 71q10 10 21 2l22 -18q12 -11 4 -21q-84 -110 -174 -110z" />
<glyph unicode="&#x41a;" horiz-adv-x="625" d="M435 375q48 -17 67.5 -44t33.5 -79l62 -232q4 -5 0.5 -12.5t-14.5 -7.5h-70q-16 0 -20 14l-59 221q-14 53 -43.5 73t-83.5 20h-132l1 -312q0 -11 -3.5 -13.5t-14.5 -2.5h-66q-7 0 -10.5 1t-5.5 4.5t-2 10.5v668q0 10 4 13t14 3h67q7 0 10.5 -1t5.5 -4.5t0 -10.5v-264h124 q93 0 120 99l43 169q3 14 20 14h63q11 0 14.5 -7.5t-0.5 -12.5l-43 -179q-19 -85 -82 -123v-5z" />
<glyph unicode="&#x41b;" horiz-adv-x="681" d="M169 633q6 68 64 68h309q64 0 64 -68v-617q0 -11 -3.5 -13.5t-14.5 -2.5h-69q-7 0 -10.5 1t-5.5 4.5t-2 10.5v593h-236l-7 -98q-16 -236 -35 -316q-31 -135 -115 -184q-28 -17 -63 -26q-19 -5 -25 15l-12 48q-5 18 10 24q1 1 2 1q24 10 41.5 24t30.5 28.5t22.5 42.5 t15.5 51t11 69.5t8 82t8 105.5q0 6 0.5 9.5t1 8.5t0.5 10z" />
<glyph unicode="&#x41c;" horiz-adv-x="818" d="M644 516h-6l-57 -149l-96 -241q-10 -27 -20.5 -35.5t-36.5 -8.5h-38q-26 0 -36.5 8.5t-20.5 35.5l-97 237l-56 141h-6v-483q0 -14 -4.5 -17.5t-18.5 -3.5h-53q-13 0 -18 4t-5 17v625q0 28 11.5 41.5t42.5 13.5h31q24 0 36.5 -8.5t23.5 -34.5l129 -326l58 -152h4l57 149 l130 329q11 26 23.5 34.5t36.5 8.5h31q31 0 42.5 -13.5t11.5 -41.5v-625q0 -14 -4.5 -17.5t-18.5 -3.5h-53q-13 0 -18 4t-5 17v495z" />
<glyph unicode="&#x41d;" horiz-adv-x="694" d="M515 679q0 13 5 17t18 4h58q14 0 18.5 -3.5t4.5 -17.5v-658q0 -14 -4.5 -17.5t-18.5 -3.5h-58q-13 0 -18 4t-5 17v303h-336v-303q0 -14 -4.5 -17.5t-18.5 -3.5h-58q-13 0 -18 4t-5 17v658q0 13 5 17t18 4h58q14 0 18.5 -3.5t4.5 -17.5v-266h336v266z" />
<glyph unicode="&#x41e;" horiz-adv-x="712" d="M657 353q0 -177 -77.5 -270.5t-226.5 -93.5q-147 0 -222.5 90.5t-75.5 269.5q0 169 84.5 265.5t216.5 96.5q145 0 223 -94.5t78 -263.5zM552 349q0 57 -8 101.5t-28.5 84.5t-60 61.5t-96.5 21.5q-97 0 -148.5 -75t-51.5 -190q0 -131 44.5 -201t150.5 -70q55 0 95 22 t61.5 60.5t31.5 84t10 100.5z" />
<glyph unicode="&#x41f;" horiz-adv-x="692" d="M617 16q0 -11 -3.5 -13.5t-14.5 -2.5h-67q-7 0 -10.5 1t-5.5 4.5t-2 10.5v593h-335v-593q0 -11 -3.5 -13.5t-14.5 -2.5h-68q-7 0 -10.5 1t-5.5 4.5t-2 10.5v617q0 34 17.5 51t46.5 17h414q64 0 64 -68v-617z" />
<glyph unicode="&#x420;" horiz-adv-x="613" d="M75 648q0 29 12.5 41.5t41.5 12.5h233q97 0 158.5 -58.5t61.5 -151.5q0 -25 -5 -51t-20.5 -56.5t-39.5 -54t-65 -39.5t-94 -16h-181v-254q0 -14 -4.5 -17.5t-18.5 -3.5h-56q-13 0 -18 4t-5 17v627zM475 485q0 48 -31.5 85t-106.5 37h-159v-241h162q69 0 102 31.5t33 87.5 z" />
<glyph unicode="&#x421;" horiz-adv-x="606" d="M375 86q75 0 154 34q19 8 26 -9l21 -48q5 -15 4 -18.5t-9 -9.5q-75 -46 -214 -46q-145 0 -223.5 87t-78.5 264q0 167 85.5 268.5t224.5 101.5q106 0 186 -41q14 -7 5 -25l-25 -52q-7 -13 -20 -8q-70 29 -142 29q-70 0 -118.5 -41t-69 -100.5t-20.5 -131.5 q0 -254 214 -254z" />
<glyph unicode="&#x422;" horiz-adv-x="555" d="M222 609h-191q-11 0 -13.5 3.5t-2.5 13.5v56q0 7 1 10.5t4.5 5.5t10.5 2h493q10 0 13 -4t3 -14v-56q0 -10 -2.5 -13.5t-13.5 -3.5h-196v-588q0 -14 -4.5 -17.5t-18.5 -3.5h-60q-13 0 -18 4t-5 17v588z" />
<glyph unicode="&#x423;" horiz-adv-x="577" d="M346 104q-27 -73 -67 -99t-110 -26q-40 0 -78 11q-10 3 -12.5 6t-0.5 11l11 57q2 8 5.5 9.5t13.5 0.5q45 -5 65 -4q31 2 49 14.5t30 43.5l25 64h-18q-14 0 -21 1.5t-16 10.5t-16 28l-189 456q-6 13 11 13h80q16 0 21 -15l100 -254l66 -173h7l67 183l93 246q5 13 20 13h74 q16 0 10 -14z" />
<glyph unicode="&#x424;" horiz-adv-x="838" d="M468 143q106 8 161 67t55 150t-53.5 150t-162.5 68v-435zM364 577q-98 -12 -154 -71.5t-56 -145.5q0 -90 53 -148.5t157 -67.5v433zM468 16q0 -11 -3.5 -13.5t-14.5 -2.5h-68q-7 0 -10.5 1t-5.5 4.5t-2 10.5v42q-149 14 -229 93t-80 209q0 127 84.5 207t224.5 95v22 q0 10 4 13t14 3h68q11 0 14.5 -2.5t3.5 -13.5v-22q152 -13 233.5 -91.5t81.5 -210.5q0 -127 -87 -207t-228 -95v-42z" />
<glyph unicode="&#x425;" horiz-adv-x="571" d="M559 14q6 -14 -9 -14h-82q-20 0 -30 15l-154 263l-155 -263q-10 -15 -30 -15h-79q-16 0 -8 14l214 345l-201 329q-3 4 -1 8.5t10 4.5h79q14 0 19.5 -2.5t10.5 -12.5l144 -243l143 243q9 15 30 15h75q8 0 10 -5t-2 -10l-199 -324z" />
<glyph unicode="&#x426;" horiz-adv-x="710" d="M649 92q17 -1 25.5 -9.5t9 -14t0.5 -18.5l-12 -199q-1 -17 -14 -17h-56q-11 0 -13 17l-7 149h-443q-29 0 -46.5 17t-17.5 51v617q0 10 4 13t14 3h68q11 0 14.5 -2.5t3.5 -13.5v-594h335v594q0 10 4 13t14 3h67q11 0 14.5 -2.5t3.5 -13.5v-591z" />
<glyph unicode="&#x427;" horiz-adv-x="632" d="M36 685q0 11 3.5 13.5t14.5 2.5h66q7 0 10.5 -1t5.5 -4.5t2 -10.5v-180q0 -81 46.5 -117t148.5 -36q70 0 122 13v320q0 11 3.5 13.5t14.5 2.5h66q7 0 10.5 -1t5.5 -4.5t2 -10.5v-669q0 -10 -4 -13t-14 -3h-66q-11 0 -14.5 2.5t-3.5 13.5v259q-57 -11 -130 -11 q-289 0 -289 231v190z" />
<glyph unicode="&#x428;" horiz-adv-x="974" d="M899 68q0 -34 -16.5 -51t-42.5 -17h-707q-26 0 -42 17t-16 51v617q0 10 4 13t14 3h71q11 0 14.5 -2.5t3.5 -13.5v-594h259v594q0 10 4 13t14 3h66q11 0 14.5 -2.5t3.5 -13.5v-594h252v594q0 10 4 13t14 3h68q11 0 14.5 -2.5t3.5 -13.5v-617z" />
<glyph unicode="&#x429;" horiz-adv-x="992" d="M133 0q-26 0 -42 17t-16 51v617q0 10 4 13t14 3h71q11 0 14.5 -2.5t3.5 -13.5v-594h259v594q0 10 4 13t14 3h66q11 0 14.5 -2.5t3.5 -13.5v-594h252v594q0 10 4 13t14 3h68q11 0 14.5 -2.5t3.5 -13.5v-588l32 -2q18 -2 26 -10.5t8.5 -13.5t0.5 -18l-12 -202 q-1 -17 -14 -17h-56q-11 0 -13 17l-7 149h-731z" />
<glyph unicode="&#x42a;" horiz-adv-x="816" d="M301 700q64 0 64 -68v-197h173q63 0 109.5 -16.5t71.5 -39.5t39.5 -55.5t18.5 -57t4 -51.5q0 -93 -68 -154t-165 -61h-234q-29 0 -41.5 12.5t-12.5 41.5v555h-239q-11 0 -13.5 3.5t-2.5 13.5v56q0 7 1 10.5t4.5 5.5t10.5 2h280zM674 222q0 56 -35 91t-99 35h-175v-253 h172q72 0 104.5 39t32.5 88z" />
<glyph unicode="&#x42b;" horiz-adv-x="844" d="M129 0q-29 0 -41.5 12.5t-12.5 41.5v631q0 10 4 13t14 3h69q11 0 14.5 -2.5t3.5 -13.5v-250h175q63 0 109.5 -16.5t71.5 -39.5t39.5 -55.5t18.5 -57t4 -51.5q0 -93 -68 -154t-165 -61h-236zM491 222q0 56 -35 91t-99 35h-177v-253h174q72 0 104.5 39t32.5 88zM769 16 q0 -11 -3.5 -13.5t-14.5 -2.5h-69q-7 0 -10.5 1t-5.5 4.5t-2 10.5v668q0 10 4 13t14 3h69q11 0 14.5 -2.5t3.5 -13.5v-668z" />
<glyph unicode="&#x42c;" horiz-adv-x="633" d="M129 0q-29 0 -41.5 12.5t-12.5 41.5v631q0 10 4 13t14 3h69q11 0 14.5 -2.5t3.5 -13.5v-250h175q63 0 109.5 -16.5t71.5 -39.5t39.5 -55.5t18.5 -57t4 -51.5q0 -93 -68 -154t-165 -61h-236zM491 222q0 56 -35 91t-99 35h-177v-253h174q72 0 104.5 39t32.5 88z" />
<glyph unicode="&#x42d;" horiz-adv-x="611" d="M236 86q111 0 158 61.5t54 175.5h-285q-10 0 -13 4t-3 14v53q0 11 2.5 14.5t13.5 3.5h285q-9 92 -56.5 146.5t-139.5 54.5q-82 0 -152 -29q-14 -6 -20 8l-22 52q-8 18 5 25q80 41 196 41q141 0 219 -87t78 -256q0 -187 -78.5 -282.5t-223.5 -95.5q-139 0 -214 46 q-8 6 -9 9.5t4 18.5l21 48q7 17 26 9q79 -34 154 -34z" />
<glyph unicode="&#x42e;" horiz-adv-x="924" d="M869 350q0 -169 -76.5 -265t-212.5 -96q-76 0 -132 27t-87.5 75t-47.5 105t-19 127h-117v-307q0 -11 -3.5 -13.5t-14.5 -2.5h-66q-7 0 -10.5 1t-5.5 4.5t-2 10.5v668q0 10 4 13t14 3h66q11 0 14.5 -2.5t3.5 -13.5v-271h120q14 137 91.5 217.5t198.5 80.5q134 0 208 -97.5 t74 -263.5zM764 350q0 268 -177 268q-93 0 -141 -73.5t-48 -194.5q0 -123 45 -196t137 -73q93 0 138.5 73.5t45.5 195.5z" />
<glyph unicode="&#x42f;" horiz-adv-x="641" d="M170 496q0 -48 32 -79t99 -31h158v221h-166q-69 0 -96 -34t-27 -77zM460 297h-132q-54 0 -87 -20.5t-48 -73.5l-51 -189q-4 -14 -20 -14h-74q-11 0 -14.5 7.5t0.5 12.5l54 200q21 78 91 104q-113 49 -113 176q0 88 60 145t156 57h230q29 0 41.5 -12.5t12.5 -41.5v-632 q0 -10 -4 -13t-14 -3h-70q-11 0 -14.5 2.5t-3.5 13.5v281z" />
<glyph unicode="&#x430;" horiz-adv-x="545" d="M480 52q0 -21 -17 -29q-76 -34 -200 -34q-218 0 -218 167q0 76 52.5 127.5t169.5 51.5h114v18q0 49 -24 73.5t-89 24.5q-63 0 -138 -20q-19 -6 -22 8l-13 49q-5 14 9 19q73 29 181 29q195 0 195 -178v-306zM380 251h-107q-129 0 -129 -95q0 -86 118 -86q68 0 118 17v164z " />
<glyph unicode="&#x431;" horiz-adv-x="565" d="M312 490q110 0 159 -68.5t49 -178.5q0 -45 -12.5 -87.5t-39.5 -81t-77.5 -62t-118.5 -23.5q-70 0 -117.5 22t-70.5 61.5t-31.5 79.5t-8.5 91q0 106 7.5 174t30 126t63.5 92.5t107 55.5q32 10 104 24.5t76 15.5q20 4 23 -11l13 -45q1 -4 2 -7t0 -5.5t-1.5 -4t-2.5 -3 t-3 -2t-3.5 -1.5t-3.5 -1l-124 -28q-52 -11 -83.5 -24.5t-50.5 -35.5t-27 -47t-15 -69q1 0 2 -1q65 44 154 44zM276 71q40 0 69.5 15.5t45 41t22.5 53.5t7 58q0 76 -29 123.5t-94 47.5q-83 0 -150 -50q-7 -81 -7 -124q0 -165 136 -165z" />
<glyph unicode="&#x432;" horiz-adv-x="559" d="M432 282q82 -30 82 -127q0 -69 -50 -112t-123 -43h-232q-21 0 -32.5 12t-11.5 31v439q0 43 44 43h220q75 0 119 -33t44 -99q0 -72 -60 -105v-6zM163 318h163q23 0 44 15.5t21 48.5q0 25 -17 42t-44 17h-167v-123zM413 160q0 38 -24 60t-69 22h-157v-166h156q51 0 72.5 25 t21.5 59z" />
<glyph unicode="&#x433;" horiz-adv-x="463" d="M230 441q-36 0 -51.5 -15t-15.5 -50v-356q0 -12 -4.5 -16t-17.5 -4h-54q-12 0 -17 4t-5 16v338q0 167 164 167h205q12 0 15.5 -5t3.5 -16v-43q0 -12 -3.5 -16t-15.5 -4h-204z" />
<glyph unicode="&#x434;" horiz-adv-x="613" d="M65 80q25 27 35.5 59.5t21.5 101.5l35 232q4 28 20 40t48 12h243q33 0 43.5 -12.5t10.5 -39.5v-394l30 -3q33 -3 30 -35l-11 -185q-1 -13 -12 -13h-63q-10 0 -11 13l-7 144h-366l-10 -145q-1 -13 -12 -13h-61q-10 0 -11 13l-12 185q-2 33 31 37zM424 439h-181l-19 -135 q-18 -126 -26.5 -162t-26.5 -62h253v359z" />
<glyph unicode="&#x435;" horiz-adv-x="542" d="M279 536q111 0 165.5 -57.5t54.5 -160.5q0 -86 -83 -86h-272q2 -82 43.5 -120t108.5 -38q66 0 118 29q15 7 21 -6l24 -47q7 -16 -6 -23q-63 -38 -164 -38q-244 0 -244 271q0 128 66 202t168 74zM406 310q0 144 -126 144q-58 0 -94 -43.5t-38 -100.5h258z" />
<glyph unicode="&#x436;" horiz-adv-x="760" d="M331 242h-62q-33 0 -59.5 -16.5t-37.5 -49.5l-49 -164q-3 -12 -17 -12h-67q-16 0 -13 18l51 173q12 38 28 59.5t52 32.5l-1 2q-46 21 -65 92l-37 131q-2 17 12 17h63q14 0 17 -13l38 -122q22 -70 95 -70h52v189q0 11 3.5 13.5t14.5 2.5h62q7 0 10.5 -1t5.5 -4.5t2 -10.5 v-189h52q73 0 95 70l38 122q3 13 17 13h63q14 0 12 -17l-37 -131q-19 -71 -65 -92l-1 -2q36 -11 52 -32.5t28 -59.5l51 -173q3 -18 -13 -18h-67q-14 0 -17 12l-49 164q-11 33 -37.5 49.5t-59.5 16.5h-62v-226q0 -10 -4 -13t-14 -3h-62q-11 0 -14.5 2.5t-3.5 13.5v226z" />
<glyph unicode="&#x437;" horiz-adv-x="481" d="M348 277q41 -12 67 -43.5t26 -75.5q0 -73 -57 -120.5t-159 -47.5q-125 0 -195 37q-16 8 -8 23l22 44q7 13 22 6q72 -30 144 -30q69 0 102.5 25t33.5 66q0 80 -146 80q-19 0 -27.5 6t-8.5 22v18q0 28 35 30q64 2 95.5 18t31.5 51q0 65 -108 65q-60 0 -129 -27 q-15 -7 -22 6l-17 43q-8 17 5 23q75 39 177 39q87 0 139 -36.5t52 -101.5q0 -78 -75 -116v-4z" />
<glyph unicode="&#x438;" horiz-adv-x="580" d="M65 510q0 10 4 13t14 3h62q11 0 14.5 -2.5t3.5 -13.5v-368h4l74 119l147 231q12 20 22 26.5t32 6.5h28q45 0 45 -43v-466q0 -11 -3.5 -13.5t-14.5 -2.5h-62q-7 0 -10.5 1t-5.5 4.5t-2 10.5v362h-6l-71 -114l-150 -231q-21 -33 -54 -33h-26q-45 0 -45 43v467z" />
<glyph unicode="&#x439;" horiz-adv-x="580" d="M65 510q0 10 4 13t14 3h62q11 0 14.5 -2.5t3.5 -13.5v-368h4l74 119l147 231q12 20 22 26.5t32 6.5h28q45 0 45 -43v-466q0 -11 -3.5 -13.5t-14.5 -2.5h-62q-7 0 -10.5 1t-5.5 4.5t-2 10.5v362h-6l-71 -114l-150 -231q-21 -33 -54 -33h-26q-45 0 -45 43v467zM285 579 q-89 0 -166 108q-8 11 3 20l22 19q3 2 5 3t3.5 1.5t3.5 0t2.5 -1t3.5 -3t5 -3.5q66 -68 122 -68q54 0 123 71q10 10 21 2l22 -18q12 -11 4 -21q-84 -110 -174 -110z" />
<glyph unicode="&#x43a;" horiz-adv-x="513" d="M162 16q0 -11 -3.5 -13.5t-14.5 -2.5h-62q-7 0 -10.5 1t-5.5 4.5t-2 10.5v493q0 10 4 13t14 3h62q11 0 14.5 -2.5t3.5 -13.5v-189h72q73 0 95 70l38 122q3 13 17 13h63q14 0 12 -17l-37 -131q-19 -71 -65 -92l-1 -2q36 -11 52 -32.5t28 -59.5l51 -173q3 -18 -13 -18h-67 q-14 0 -17 12l-49 164q-11 33 -37.5 49.5t-59.5 16.5h-82v-226z" />
<glyph unicode="&#x43b;" horiz-adv-x="560" d="M442 525q31 0 42 -13t11 -41v-454q0 -11 -4.5 -14t-16.5 -3h-56q-21 0 -21 17v423h-177l-6 -70q-7 -75 -12 -120t-14 -90t-19 -70t-27 -47.5t-39 -34.5t-54 -21q-11 -4 -17 -3t-9 10l-15 47q-3 12 -1 15t15 9q35 16 51.5 39.5t28 82t21.5 181.5l8 103q4 54 56 54h255z " />
<glyph unicode="&#x43c;" horiz-adv-x="705" d="M160 359v-343q0 -11 -3.5 -13.5t-14.5 -2.5h-59q-7 0 -10.5 1t-5.5 4.5t-2 10.5v468q0 17 11 29t34 12h36q20 0 30.5 -6.5t19.5 -25.5l96 -201l59 -129h3l66 143l90 187q10 20 19.5 26t30.5 6h35q23 0 34 -12.5t11 -28.5v-468q0 -11 -3.5 -13.5t-14.5 -2.5h-59 q-7 0 -10.5 1t-5.5 4.5t-2 10.5v352h-5l-53 -117l-74 -156q-9 -20 -18.5 -26.5t-29.5 -6.5h-25q-20 0 -29.5 7t-18.5 26l-71 145l-56 119h-5z" />
<glyph unicode="&#x43d;" horiz-adv-x="568" d="M164 20q0 -12 -4.5 -16t-16.5 -4h-56q-12 0 -17 4t-5 16v486q0 11 5 15t17 4h56q12 0 16.5 -3.5t4.5 -15.5v-182h242v182q0 12 4.5 15.5t16.5 3.5h56q12 0 16 -3.5t4 -15.5v-486q0 -13 -4 -16.5t-16 -3.5h-56q-12 0 -16.5 4t-4.5 16v221h-242v-221z" />
<glyph unicode="&#x43e;" horiz-adv-x="563" d="M518 265q0 -135 -61 -205.5t-178 -70.5q-115 0 -174.5 69t-59.5 204q0 128 66.5 201t170.5 73q115 0 175.5 -70.5t60.5 -200.5zM419 262q0 192 -135 192q-69 0 -105 -53t-36 -136q0 -94 31 -144t106 -50q74 0 106.5 53.5t32.5 137.5z" />
<glyph unicode="&#x43f;" horiz-adv-x="578" d="M163 16q0 -11 -3.5 -13.5t-14.5 -2.5h-62q-7 0 -10.5 1t-5.5 4.5t-2 10.5v466q0 15 11 29t33 14h359q23 0 34 -13.5t11 -29.5v-466q0 -11 -3.5 -13.5t-14.5 -2.5h-62q-7 0 -10.5 1t-5.5 4.5t-2 10.5v424h-252v-424z" />
<glyph unicode="&#x440;" horiz-adv-x="565" d="M520 263q0 -118 -60.5 -196t-172.5 -78q-63 0 -123 15v-190q0 -11 -3.5 -13.5t-14.5 -2.5h-63q-7 0 -10.5 1t-5.5 4.5t-2 10.5v666q0 15 13 19q87 37 206 37q117 0 176.5 -75.5t59.5 -197.5zM418 263q0 189 -150 189q-65 0 -104 -17v-346q59 -15 107 -15q147 0 147 189z " />
<glyph unicode="&#x441;" horiz-adv-x="482" d="M285 74q67 0 119 28q14 8 21 -6l23 -48q9 -15 -6 -23q-63 -36 -171 -36q-110 0 -168 68t-58 200q0 127 64 203t173 76q86 0 149 -35q15 -8 6 -23l-23 -48q-6 -13 -21 -6q-57 24 -109 24q-70 0 -105 -54.5t-35 -136.5q0 -183 141 -183z" />
<glyph unicode="&#x442;" horiz-adv-x="463" d="M276 20q0 -12 -4 -16t-16 -4h-55q-12 0 -16.5 4t-4.5 16v421h-150q-12 0 -16 4.5t-4 14.5v44q0 21 20 21h403q20 0 20 -21v-44q0 -10 -4 -14.5t-16 -4.5h-157v-421z" />
<glyph unicode="&#x443;" horiz-adv-x="499" d="M290 -84q-23 -68 -60.5 -96.5t-98.5 -28.5q-42 0 -82 11q-16 4 -12 17l12 50q3 14 18 10q32 -7 49 -7q37 0 57.5 14.5t32.5 50.5l23 69h-21q-13 0 -20 1.5t-15 11t-14 27.5l-148 468q-3 11 9 11h77q11 0 15 -10l76 -247l54 -185h6l60 186l82 246q4 10 15 10h74 q12 0 9 -11z" />
<glyph unicode="&#x444;" horiz-adv-x="710" d="M405 531q117 -4 188.5 -74t71.5 -194q0 -119 -67 -192.5t-193 -81.5v-175q0 -11 -3.5 -13.5t-14.5 -2.5h-64q-7 0 -10.5 1t-5.5 4.5t-2 10.5v175q-126 8 -193 81.5t-67 192.5q0 123 72.5 193.5t187.5 74.5v184q0 10 4 13t14 3h64q11 0 14.5 -2.5t3.5 -13.5v-184zM572 261 q0 84 -43 133t-124 54v-379q84 8 125.5 61t41.5 131zM138 261q0 -77 43.5 -130.5t123.5 -61.5v379q-81 -5 -124 -54t-43 -133z" />
<glyph unicode="&#x445;" horiz-adv-x="482" d="M297 282l174 -266q9 -16 -7 -16h-82q-17 0 -25 13l-118 191l-121 -190q-11 -14 -26 -14h-73q-16 0 -7 17l173 260l-151 231q-4 5 -2.5 11t9.5 6h76q18 0 26 -13l100 -163l103 163q8 13 24 13h73q9 0 10.5 -5.5t-1.5 -8.5z" />
<glyph unicode="&#x446;" horiz-adv-x="594" d="M503 82l30 -3q33 -3 30 -35l-11 -188q-1 -13 -12 -13h-63q-10 0 -11 13l-7 144h-343q-51 0 -51 58v448q0 12 4.5 15.5t16.5 3.5h56q13 0 17 -3.5t4 -15.5v-426h242v426q0 11 5 15t17 4h55q12 0 16.5 -3.5t4.5 -15.5v-424z" />
<glyph unicode="&#x447;" horiz-adv-x="529" d="M35 509q0 10 4 13t14 3h63q11 0 14.5 -2.5t3.5 -13.5v-115q0 -71 27.5 -94t92.5 -23q67 0 112 19v213q0 11 3.5 13.5t14.5 2.5h62q7 0 10.5 -1t5.5 -4.5t2 -10.5v-493q0 -10 -4 -13t-14 -3h-62q-11 0 -14.5 2.5t-3.5 13.5v197q-56 -22 -129 -22q-103 0 -152.5 49.5 t-49.5 155.5v113z" />
<glyph unicode="&#x448;" horiz-adv-x="847" d="M782 58q0 -58 -52 -58h-614q-51 0 -51 58v448q0 12 4.5 15.5t16.5 3.5h56q13 0 17 -3.5t4 -15.5v-426h213v426q0 12 4.5 15.5t16.5 3.5h54q12 0 17 -4t5 -15v-426h211v426q0 11 5 15t17 4h55q12 0 16.5 -3.5t4.5 -15.5v-448z" />
<glyph unicode="&#x449;" horiz-adv-x="873" d="M812 77q33 -3 30 -35l-11 -186q-1 -13 -12 -13h-63q-10 0 -11 13l-7 144h-622q-51 0 -51 58v448q0 12 4.5 15.5t16.5 3.5h56q13 0 17 -3.5t4 -15.5v-426h213v426q0 12 4.5 15.5t16.5 3.5h54q12 0 17 -4t5 -15v-426h211v426q0 11 5 15t17 4h55q12 0 16.5 -3.5t4.5 -15.5 v-426z" />
<glyph unicode="&#x44a;" horiz-adv-x="670" d="M444 346q46 0 81.5 -13t55.5 -32t33 -43.5t17 -45t4 -39.5q0 -73 -51.5 -123t-124.5 -50h-218q-51 0 -51 58v383h-164q-11 0 -13.5 3.5t-2.5 14.5v48q0 7 1 10.5t4.5 5.5t10.5 2h220q18 0 30.5 -10.5t12.5 -33.5l-1 -135h156zM538 173q0 39 -26 66t-72 27h-152v-186h151 q55 0 77 29t22 64z" />
<glyph unicode="&#x44b;" horiz-adv-x="731" d="M666 20q0 -12 -4.5 -16t-16.5 -4h-56q-12 0 -16 4t-4 16v486q0 12 4 15.5t16 3.5h56q12 0 16.5 -3.5t4.5 -15.5v-486zM163 346h156q46 0 81.5 -13t55.5 -32t33 -43.5t17 -45t4 -39.5q0 -73 -51.5 -123t-124.5 -50h-218q-51 0 -51 58v448q0 19 20 19h57q12 0 16.5 -3.5 t4.5 -15.5v-160zM413 173q0 39 -26 66t-72 27h-152v-186h151q55 0 77 29t22 64z" />
<glyph unicode="&#x44c;" horiz-adv-x="545" d="M163 346h156q46 0 81.5 -13t55.5 -32t33 -43.5t17 -45t4 -39.5q0 -73 -51.5 -123t-124.5 -50h-218q-51 0 -51 58v448q0 19 20 19h57q12 0 16.5 -3.5t4.5 -15.5v-160zM413 173q0 39 -26 66t-72 27h-152v-186h151q55 0 77 29t22 64z" />
<glyph unicode="&#x44d;" horiz-adv-x="475" d="M207 536q109 0 167.5 -66.5t58.5 -194.5q0 -142 -60 -214t-177 -72q-105 0 -164 34q-14 8 -7 23l23 50q7 14 21 6q62 -28 119 -28q141 0 146 163h-187q-10 0 -10 14v55v6.5t2.5 3.5t7.5 2h183q-4 62 -36 96t-92 34t-117 -24q-15 -7 -21 6l-19 47q-6 17 5 23q65 36 157 36 z" />
<glyph unicode="&#x44e;" horiz-adv-x="753" d="M708 265q0 -130 -59.5 -203t-169.5 -73q-216 0 -229 246h-87v-215q0 -12 -4.5 -16t-17.5 -4h-55q-21 0 -21 20v486q0 19 21 19h55q13 0 17.5 -3.5t4.5 -15.5v-189h90q14 103 74.5 161t153.5 58q110 0 168.5 -72t58.5 -199zM609 262q0 192 -126 192q-62 0 -98.5 -52 t-36.5 -137q0 -94 30 -144t102 -50q67 0 98 53.5t31 137.5z" />
<glyph unicode="&#x44f;" horiz-adv-x="548" d="M150 367q0 -77 94 -77h141v152h-148q-46 0 -66.5 -23.5t-20.5 -51.5zM385 211h-117q-42 0 -65.5 -14t-35.5 -53l-40 -129q-4 -15 -19 -15h-68q-11 0 -14 6.5t0 11.5l46 141q10 31 25.5 50t46.5 27q-91 32 -91 132q0 68 48 112.5t129 44.5h208q19 0 32 -10.5t13 -32.5 v-467q0 -15 -19 -15h-61q-18 0 -18 16v195z" />
<glyph unicode="&#x451;" horiz-adv-x="542" d="M279 536q111 0 165.5 -57.5t54.5 -160.5q0 -86 -83 -86h-272q2 -82 43.5 -120t108.5 -38q66 0 118 29q15 7 21 -6l24 -47q7 -16 -6 -23q-63 -38 -164 -38q-244 0 -244 271q0 128 66 202t168 74zM406 310q0 144 -126 144q-58 0 -94 -43.5t-38 -100.5h258zM431 677 q0 -23 -18 -41t-41 -18q-24 0 -42.5 18t-18.5 41q0 22 18.5 40.5t41.5 18.5t41.5 -18t18.5 -41zM247 677q0 -23 -18.5 -41t-41.5 -18t-41.5 18t-18.5 41q0 22 18.5 40.5t41.5 18.5t41.5 -18t18.5 -41z" />
<glyph unicode="&#x452;" horiz-adv-x="557" d="M73 648v67q0 10 4 13t14 3h62q11 0 14.5 -2.5t3.5 -13.5v-67h193q9 0 11 -3t2 -12v-29q0 -9 -2 -12t-11 -3h-193v-102q57 20 130 20q60 0 105 -22t69 -60t35.5 -82t11.5 -94q0 -93 -45.5 -179t-125.5 -130q-13 -6 -21 4l-30 42q-7 10 5 17q117 83 117 238 q0 92 -33.5 136.5t-107.5 44.5q-62 0 -110 -18v-388q0 -11 -3.5 -13.5t-14.5 -2.5h-62q-7 0 -10.5 1t-5.5 4.5t-2 10.5v573h-40q-9 0 -11 3t-2 12v29q0 9 2 12t11 3h40z" />
<glyph unicode="&#x453;" horiz-adv-x="463" d="M230 441q-36 0 -51.5 -15t-15.5 -50v-356q0 -12 -4.5 -16t-17.5 -4h-54q-12 0 -17 4t-5 16v338q0 167 164 167h205q12 0 15.5 -5t3.5 -16v-43q0 -12 -3.5 -16t-15.5 -4h-204zM202 607q-9 2 -10 5.5t4 13.5l66 158q6 14 21 10l77 -21q15 -4 7 -16l-110 -153q-9 -13 -23 -9 z" />
<glyph unicode="&#x454;" horiz-adv-x="482" d="M285 74q67 0 119 28q14 8 21 -6l23 -48q9 -15 -6 -23q-63 -36 -171 -36q-110 0 -168 68t-58 200q0 127 63.5 201t173.5 78q85 2 149 -35q15 -8 6 -23l-23 -48q-6 -13 -21 -6q-60 25 -109 24q-59 -2 -94 -39.5t-42 -96.5h183q4 0 6 -0.5t3 -3t1 -3v-5.5v-55q0 -14 -10 -14 h-186q5 -157 140 -157z" />
<glyph unicode="&#x455;" horiz-adv-x="473" d="M433 145q0 -76 -53.5 -116t-136.5 -40q-124 0 -198 41q-16 8 -7 23l21 47q7 16 24 8q79 -36 160 -36q47 0 71.5 18t24.5 51q0 31 -27.5 50.5t-90.5 42.5q-88 32 -125 64.5t-37 90.5q0 67 48 107t134 40q85 0 158 -29q14 -6 9 -21l-21 -53q-5 -10 -17 -5q-69 25 -132 25 q-41 0 -62 -16.5t-21 -41.5q0 -29 23 -46t90 -43q37 -13 60.5 -24.5t50.5 -30.5t40.5 -45.5t13.5 -60.5z" />
<glyph unicode="&#x456;" horiz-adv-x="270" d="M200 662q0 -27 -19 -46t-46 -19t-46 19t-19 46t19 46t46 19t46 -19t19 -46zM183 16q0 -11 -3.5 -13.5t-14.5 -2.5h-62q-7 0 -10.5 1t-5.5 4.5t-2 10.5v493q0 10 4 13t14 3h62q11 0 14.5 -2.5t3.5 -13.5v-493z" />
<glyph unicode="&#x457;" horiz-adv-x="274" d="M289 670q0 -23 -18 -41t-41 -18q-24 0 -42.5 18t-18.5 41q0 22 18.5 40.5t41.5 18.5t41.5 -18t18.5 -41zM105 670q0 -23 -18.5 -41t-41.5 -18t-41.5 18t-18.5 41q0 22 18.5 40.5t41.5 18.5t41.5 -18t18.5 -41zM186 16q0 -11 -3.5 -13.5t-14.5 -2.5h-62q-7 0 -10.5 1 t-5.5 4.5t-2 10.5v493q0 10 4 13t14 3h62q11 0 14.5 -2.5t3.5 -13.5v-493z" />
<glyph unicode="&#x458;" horiz-adv-x="285" d="M210 662q0 -27 -19 -46t-46 -19t-46 19t-19 46t19 46t46 19t46 -19t19 -46zM195 78q0 -135 -46 -202t-130 -96q-13 -4 -18 8l-20 60q-3 12 11 18q62 29 83 76t21 115v452q0 10 4 13t14 3h63q11 0 14.5 -2.5t3.5 -13.5v-431z" />
<glyph unicode="&#x459;" horiz-adv-x="827" d="M214 370q-7 -75 -12 -120t-14 -90t-19 -70t-27 -47.5t-39 -34.5t-54 -21q-11 -4 -17 -3t-9 10l-15 47q-3 12 -1 15t15 9q35 16 51.5 39.5t28 82t21.5 181.5l8 103q4 54 56 54h213q45 0 45 -43v-136h156q58 0 98.5 -18.5t59 -48t26 -55.5t7.5 -51q0 -74 -50.5 -123.5 t-125.5 -49.5h-218q-51 0 -51 58v382h-127zM695 173q0 41 -25.5 67t-72.5 26h-152v-186h151q56 0 77.5 28t21.5 65z" />
<glyph unicode="&#x45a;" horiz-adv-x="841" d="M469 325h153q44 0 78.5 -11.5t53.5 -28.5t31.5 -40t16.5 -42t4 -38q0 -73 -48 -119t-121 -46h-215q-51 0 -51 58v186h-207v-224q0 -12 -4.5 -16t-16.5 -4h-56q-12 0 -17 4t-5 16v486q0 11 5 15t17 4h56q12 0 16.5 -3.5t4.5 -15.5v-181h207v181q0 19 20 19h57 q12 0 16.5 -3.5t4.5 -15.5v-181zM709 165q0 37 -23.5 58.5t-67.5 21.5h-149v-165h148q52 0 72 25.5t20 59.5z" />
<glyph unicode="&#x45b;" horiz-adv-x="568" d="M25 590q-9 0 -11 3t-2 12v29q0 9 2 12t11 3h40v66q0 10 4 13t14 3h62q11 0 14.5 -2.5t3.5 -13.5v-66h200q9 0 11 -3t2 -12v-29q0 -9 -2 -12t-11 -3h-200v-106q56 21 130 21q211 0 211 -239v-250q0 -10 -4 -13t-14 -3h-63q-11 0 -14.5 2.5t-3.5 13.5v249q0 154 -129 154 q-70 0 -113 -18v-385q0 -11 -3.5 -13.5t-14.5 -2.5h-62q-7 0 -10.5 1t-5.5 4.5t-2 10.5v574h-40z" />
<glyph unicode="&#x45c;" horiz-adv-x="513" d="M206 592q-9 2 -10 5.5t4 13.5l66 158q6 14 21 10l77 -21q15 -4 7 -16l-110 -153q-9 -13 -23 -9zM162 16q0 -11 -3.5 -13.5t-14.5 -2.5h-62q-7 0 -10.5 1t-5.5 4.5t-2 10.5v493q0 10 4 13t14 3h62q11 0 14.5 -2.5t3.5 -13.5v-189h72q73 0 95 70l38 122q3 13 17 13h63 q14 0 12 -17l-37 -131q-19 -71 -65 -92l-1 -2q36 -11 52 -32.5t28 -59.5l51 -173q3 -18 -13 -18h-67q-14 0 -17 12l-49 164q-11 33 -37.5 49.5t-59.5 16.5h-82v-226z" />
<glyph unicode="&#x45e;" horiz-adv-x="499" d="M290 -84q-23 -68 -60.5 -96.5t-98.5 -28.5q-42 0 -82 11q-16 4 -12 17l12 50q3 14 18 10q32 -7 49 -7q37 0 57.5 14.5t32.5 50.5l23 69h-21q-13 0 -20 1.5t-15 11t-14 27.5l-148 468q-3 11 9 11h77q11 0 15 -10l76 -247l54 -185h6l60 186l82 246q4 10 15 10h74 q12 0 9 -11zM253 581q-89 0 -166 108q-8 11 3 20l22 19q3 2 5 3t3.5 1.5t3.5 0t2.5 -1t3.5 -3t5 -3.5q66 -68 122 -68q54 0 123 71q10 10 21 2l22 -18q12 -11 4 -21q-84 -110 -174 -110z" />
<glyph unicode="&#x45f;" horiz-adv-x="577" d="M414 80v426q0 11 5 15t17 4h55q12 0 16.5 -3.5t4.5 -15.5v-448q0 -58 -52 -58h-119l-9 -143q0 -16 -12 -16h-63q-13 0 -13 16l-7 143h-121q-51 0 -51 58v448q0 12 4.5 15.5t16.5 3.5h56q13 0 17 -3.5t4 -15.5v-426h251z" />
<glyph unicode="&#x490;" horiz-adv-x="559" d="M178 21q0 -14 -4.5 -17.5t-18.5 -3.5h-57q-13 0 -18 4t-5 17v503q0 78 40.5 127.5t133.5 49.5l196 1v114q0 11 3.5 13.5t13.5 2.5h56q7 0 10.5 -1t5.5 -4.5t2 -10.5v-144q0 -64 -68 -64h-219q-38 0 -54.5 -16t-16.5 -52v-519z" />
<glyph unicode="&#x491;" horiz-adv-x="481" d="M163 20q0 -12 -4.5 -16t-17.5 -4h-54q-12 0 -17 4t-5 16v338q0 74 38.5 120.5t125.5 46.5l154 1v112q0 15 16 15h55q17 0 17 -15v-137q0 -60 -64 -60h-177q-36 0 -51.5 -15t-15.5 -50v-356z" />
<glyph unicode="&#x4d9;" horiz-adv-x="542" d="M265 -10q-111 0 -165.5 57.5t-54.5 160.5q0 86 83 86h272q-2 82 -43.5 120t-108.5 38q-66 0 -118 -29q-15 -7 -21 6l-24 47q-7 16 6 23q63 38 164 38q244 0 244 -271q0 -128 -66 -202t-168 -74zM138 216q0 -144 126 -144q59 0 93.5 42.5t38.5 101.5h-258z" />
<glyph unicode="&#x1e80;" horiz-adv-x="836" d="M417 584l-32 -160l-80 -375q-11 -49 -48 -49h-49q-26 0 -39 8t-18 33l-135 646q-5 14 9 14h81q16 0 19 -13l73 -405l28 -161h6l32 159l77 370q9 50 59 50h43q43 0 55 -50l74 -365l32 -164h6l30 165l74 401q3 13 19 13h78q12 0 9 -14l-135 -646q-5 -25 -18 -33t-39 -8h-49 q-37 0 -48 49l-79 376l-31 159h-4zM455 750q-10 -10 -25 -4l-170 76q-13 6 -2 17l46 64q9 11 22 2l144 -106q13 -10 4 -20z" />
<glyph unicode="&#x1e81;" horiz-adv-x="751" d="M373 393l-46 -176l-54 -178q-7 -23 -18 -33.5t-36 -10.5h-43q-21 0 -33.5 9.5t-18.5 38.5l-103 473q-3 11 9 11h76q11 0 15 -10l50 -270l27 -145h6l38 131l64 232q4 13 8.5 20.5t16.5 14.5t30 7h34q22 0 31.5 -10.5t16.5 -34.5l60 -213l44 -156h6l27 154l50 270 q4 10 15 10h76q12 0 9 -11l-104 -473q-6 -28 -20 -38t-36 -10h-40q-26 0 -36 8.5t-18 35.5l-54 184l-45 170h-4zM370 580q-14 -4 -23 9l-110 153q-8 12 7 16l77 21q15 4 21 -10l66 -158q5 -10 4 -13.5t-10 -5.5z" />
<glyph unicode="&#x1e82;" horiz-adv-x="836" d="M417 584l-32 -160l-80 -375q-11 -49 -48 -49h-49q-26 0 -39 8t-18 33l-135 646q-5 14 9 14h81q16 0 19 -13l73 -405l28 -161h6l32 159l77 370q9 50 59 50h43q43 0 55 -50l74 -365l32 -164h6l30 165l74 401q3 13 19 13h78q12 0 9 -14l-135 -646q-5 -25 -18 -33t-39 -8h-49 q-37 0 -48 49l-79 376l-31 159h-4zM371 779q-9 10 4 20l144 106q13 9 22 -2l46 -64q11 -11 -2 -17l-170 -76q-15 -6 -25 4z" />
<glyph unicode="&#x1e83;" horiz-adv-x="751" d="M373 393l-46 -176l-54 -178q-7 -23 -18 -33.5t-36 -10.5h-43q-21 0 -33.5 9.5t-18.5 38.5l-103 473q-3 11 9 11h76q11 0 15 -10l50 -270l27 -145h6l38 131l64 232q4 13 8.5 20.5t16.5 14.5t30 7h34q22 0 31.5 -10.5t16.5 -34.5l60 -213l44 -156h6l27 154l50 270 q4 10 15 10h76q12 0 9 -11l-104 -473q-6 -28 -20 -38t-36 -10h-40q-26 0 -36 8.5t-18 35.5l-54 184l-45 170h-4zM339 592q-9 2 -10 5.5t4 13.5l66 158q6 14 21 10l77 -21q15 -4 7 -16l-110 -153q-9 -13 -23 -9z" />
<glyph unicode="&#x1e84;" horiz-adv-x="836" d="M417 584l-32 -160l-80 -375q-11 -49 -48 -49h-49q-26 0 -39 8t-18 33l-135 646q-5 14 9 14h81q16 0 19 -13l73 -405l28 -161h6l32 159l77 370q9 50 59 50h43q43 0 55 -50l74 -365l32 -164h6l30 165l74 401q3 13 19 13h78q12 0 9 -14l-135 -646q-5 -25 -18 -33t-39 -8h-49 q-37 0 -48 49l-79 376l-31 159h-4zM570 820q0 -23 -18 -41t-41 -18q-24 0 -42.5 18t-18.5 41q0 22 18.5 40.5t41.5 18.5t41.5 -18t18.5 -41zM386 820q0 -23 -18.5 -41t-41.5 -18t-41.5 18t-18.5 41q0 22 18.5 40.5t41.5 18.5t41.5 -18t18.5 -41z" />
<glyph unicode="&#x1e85;" horiz-adv-x="751" d="M373 393l-46 -176l-54 -178q-7 -23 -18 -33.5t-36 -10.5h-43q-21 0 -33.5 9.5t-18.5 38.5l-103 473q-3 11 9 11h76q11 0 15 -10l50 -270l27 -145h6l38 131l64 232q4 13 8.5 20.5t16.5 14.5t30 7h34q22 0 31.5 -10.5t16.5 -34.5l60 -213l44 -156h6l27 154l50 270 q4 10 15 10h76q12 0 9 -11l-104 -473q-6 -28 -20 -38t-36 -10h-40q-26 0 -36 8.5t-18 35.5l-54 184l-45 170h-4zM523 670q0 -23 -18 -41t-41 -18q-24 0 -42.5 18t-18.5 41q0 22 18.5 40.5t41.5 18.5t41.5 -18t18.5 -41zM339 670q0 -23 -18.5 -41t-41.5 -18t-41.5 18 t-18.5 41q0 22 18.5 40.5t41.5 18.5t41.5 -18t18.5 -41z" />
<glyph unicode="&#x1ef2;" horiz-adv-x="578" d="M342 277v-261q0 -11 -3.5 -13.5t-13.5 -2.5h-66q-7 0 -10.5 1t-5.5 4.5t-2 10.5v261l-229 412q-3 4 -0.5 8t8.5 4h85q14 0 22 -14l85 -162l79 -157h4l83 164l81 155q8 14 22 14h79q6 0 8 -4t-1 -8zM348 750q-10 -10 -25 -4l-170 76q-13 6 -2 17l46 64q9 11 22 2l144 -106 q13 -10 4 -20z" />
<glyph unicode="&#x1ef3;" horiz-adv-x="499" d="M290 -84q-23 -68 -60.5 -96.5t-98.5 -28.5q-42 0 -82 11q-16 4 -12 17l12 50q3 14 18 10q32 -7 49 -7q37 0 57.5 14.5t32.5 50.5l23 69h-21q-13 0 -20 1.5t-15 11t-14 27.5l-148 468q-3 11 9 11h77q11 0 15 -10l76 -247l54 -185h6l60 186l82 246q4 10 15 10h74 q12 0 9 -11zM255 580q-14 -4 -23 9l-110 153q-8 12 7 16l77 21q15 4 21 -10l66 -158q5 -10 4 -13.5t-10 -5.5z" />
<glyph unicode="&#x2013;" horiz-adv-x="500" d="M39 256q-11 0 -13.5 3.5t-2.5 14.5v53q0 7 1 10.5t4.5 5.5t10.5 2h421q10 0 13 -4t3 -14v-53q0 -11 -2.5 -14.5t-13.5 -3.5h-421z" />
<glyph unicode="&#x2014;" horiz-adv-x="1000" d="M36 256q-11 0 -13.5 3.5t-2.5 14.5v53q0 7 1 10.5t4.5 5.5t10.5 2h928q10 0 13 -4t3 -14v-53q0 -11 -2.5 -14.5t-13.5 -3.5h-928z" />
<glyph unicode="&#x2015;" horiz-adv-x="1000" d="M36 256q-11 0 -13.5 3.5t-2.5 14.5v53q0 7 1 10.5t4.5 5.5t10.5 2h928q10 0 13 -4t3 -14v-53q0 -11 -2.5 -14.5t-13.5 -3.5h-928z" />
<glyph unicode="&#x2018;" horiz-adv-x="302" d="M129 705q3 12 6.5 15t14.5 3h34q20 0 20 -15l-16 -242q0 -18 -17 -18h-97q-11 0 -15.5 5.5t-2.5 12.5z" />
<glyph unicode="&#x2019;" horiz-adv-x="302" d="M154 466q-3 -12 -6.5 -15t-14.5 -3h-34q-10 0 -15 3.5t-4 11.5l15 242q2 18 17 18h97q11 0 16 -6t3 -12z" />
<glyph unicode="&#x201a;" horiz-adv-x="251" d="M134 -108q-4 -12 -7 -15t-14 -3h-34q-11 0 -16 3.5t-4 11.5l15 242q2 18 18 18h97q11 0 15.5 -5.5t2.5 -12.5z" />
<glyph unicode="&#x201c;" horiz-adv-x="449" d="M129 705q3 12 6.5 15t14.5 3h34q20 0 20 -15l-16 -242q0 -18 -17 -18h-97q-11 0 -15.5 5.5t-2.5 12.5zM317 705q3 12 6.5 15t14.5 3h34q10 0 15 -4t4 -11l-15 -242q-2 -18 -17 -18h-97q-11 0 -16 6t-3 12z" />
<glyph unicode="&#x201d;" horiz-adv-x="449" d="M318 466q-3 -12 -6.5 -15t-14.5 -3h-34q-20 0 -20 15l16 242q0 18 17 18h97q11 0 15.5 -5.5t2.5 -12.5zM130 466q-3 -12 -6.5 -15t-14.5 -3h-34q-10 0 -15 3.5t-4 11.5l15 242q2 18 17 18h97q11 0 16 -6t3 -12z" />
<glyph unicode="&#x201e;" horiz-adv-x="423" d="M134 -108q-4 -12 -7 -15t-14 -3h-34q-11 0 -16 3.5t-4 11.5l15 242q2 18 18 18h97q11 0 15.5 -5.5t2.5 -12.5zM304 -108q-4 -12 -7 -15t-14 -3h-34q-11 0 -16 3.5t-4 11.5l15 242q2 18 18 18h97q11 0 15.5 -5.5t2.5 -12.5z" />
<glyph unicode="&#x2020;" horiz-adv-x="565" d="M525 411q0 -10 -2.5 -13.5t-13.5 -3.5h-170v-485q0 -11 -3 -13.5t-13 -2.5h-67q-7 0 -10.5 1t-5.5 4.5t-2 10.5v485h-168q-11 0 -13.5 3.5t-2.5 13.5v53q0 7 1 10.5t4.5 5.5t10.5 2h168v204q0 10 4 13t14 3h67q10 0 13 -2.5t3 -13.5v-204h170q10 0 13 -4t3 -14v-53z" />
<glyph unicode="&#x2021;" horiz-adv-x="565" d="M238 414h-168q-11 0 -13.5 3.5t-2.5 13.5v53q0 7 1 10.5t4.5 5.5t10.5 2h168v184q0 10 4 13t14 3h67q10 0 13 -2.5t3 -13.5v-184h170q10 0 13 -4t3 -14v-53q0 -10 -2.5 -13.5t-13.5 -3.5h-170v-126h170q10 0 13 -4t3 -14v-53q0 -10 -2.5 -13.5t-13.5 -3.5h-170v-291 q0 -11 -3 -13.5t-13 -2.5h-67q-7 0 -10.5 1t-5.5 4.5t-2 10.5v291h-168q-11 0 -13.5 3.5t-2.5 13.5v53q0 7 1 10.5t4.5 5.5t10.5 2h168v126z" />
<glyph unicode="&#x2022;" horiz-adv-x="420" d="M344 299q0 -56 -38 -94t-94 -38t-94 38t-38 94t38 94.5t94 38.5t94 -38.5t38 -94.5z" />
<glyph unicode="&#x2023;" horiz-adv-x="455" d="M427 260l-354 -190v370z" />
<glyph unicode="&#x2026;" horiz-adv-x="776" d="M721 67q0 -33 -22.5 -56t-56.5 -23t-57 22.5t-23 56.5t23 57t57 23t56.5 -22.5t22.5 -57.5zM468 67q0 -33 -23 -56t-57 -23q-33 0 -56 22.5t-23 56.5t23 57t56 23q35 0 57.5 -22.5t22.5 -57.5zM214 67q0 -33 -22.5 -56t-57.5 -23q-33 0 -56 22.5t-23 56.5t23 57t56 23 q35 0 57.5 -22.5t22.5 -57.5z" />
<glyph unicode="&#x2030;" horiz-adv-x="1299" d="M862 203q0 -97 -44.5 -153t-134.5 -56q-88 0 -132.5 55t-44.5 153q0 97 45 153t134 56q177 0 177 -208zM780 202q0 62 -22.5 102t-74.5 40q-50 0 -72 -40t-22 -101q0 -143 96 -143q50 0 72.5 41t22.5 101zM393 470q0 -97 -44.5 -153t-134.5 -56q-88 0 -132.5 55 t-44.5 153q0 97 45 153t134 56q177 0 177 -208zM311 469q0 62 -22.5 102t-74.5 40q-50 0 -72 -40t-22 -101q0 -143 96 -143q50 0 72.5 41t22.5 101zM279 -6q-9 -16 -24 -16h-35q-19 0 -10 16l409 684q9 16 22 16h39q17 0 8 -16zM1260 203q0 -97 -44.5 -153t-134.5 -56 q-88 0 -132.5 55t-44.5 153q0 97 45 153t134 56q177 0 177 -208zM1178 202q0 62 -22.5 102t-74.5 40q-50 0 -72 -40t-22 -101q0 -143 96 -143q50 0 72.5 41t22.5 101z" />
<glyph unicode="&#x2039;" horiz-adv-x="323" d="M158 242l121 -192q12 -22 -13 -22h-58q-26 0 -37 21l-96 154q-15 24 -15 41q0 18 17 45l93 153q13 21 37 21h56q11 0 15 -7t-2 -15z" />
<glyph unicode="&#x203a;" horiz-adv-x="323" d="M47 441q-5 8 -1.5 15t14.5 7h56q24 0 37 -21l93 -153q17 -27 17 -45q0 -17 -15 -41l-96 -154q-11 -21 -37 -21h-58q-25 0 -13 22l121 192z" />
<glyph unicode="&#x2044;" horiz-adv-x="201" d="M-77 -6q-9 -16 -24 -16h-35q-19 0 -10 16l409 684q9 16 22 16h39q17 0 8 -16z" />
<glyph unicode="&#x2070;" horiz-adv-x="387" d="M371 560q0 -97 -44.5 -153t-134.5 -56q-88 0 -132.5 55t-44.5 153q0 97 45 153t134 56q177 0 177 -208zM289 559q0 62 -22.5 102t-74.5 40q-50 0 -72 -40t-22 -101q0 -143 96 -143q50 0 72.5 41t22.5 101z" />
<glyph unicode="&#x2074;" horiz-adv-x="387" d="M49 442q-40 0 -40 34v13q0 19 17 40l179 212q21 29 46 29h24q22 0 31 -8.5t9 -29.5v-222h38q12 0 14.5 -4.5t2.5 -15.5v-28q0 -7 -0.5 -10t-4.5 -6t-12 -3h-38v-69q0 -11 -4.5 -14t-16.5 -3h-40q-12 0 -16 3t-4 14v68h-185zM116 510h118v144l-3 1l-116 -141z" />
<glyph unicode="&#x2075;" horiz-adv-x="387" d="M357 494q0 -67 -47 -105.5t-127 -38.5q-97 0 -152 40q-13 9 -4 23l23 35q8 10 28 -1q43 -25 103 -25q45 0 70 18.5t25 50.5q0 30 -22.5 44.5t-56.5 14.5q-39 0 -66 -10q-29 -12 -40 -14.5t-26 2.5l-15 6q-22 10 -18 35l16 150q4 42 47 42h216q9 0 13 -3t4 -5v-9v-34 q0 -11 -4 -14.5t-13 -3.5h-186l-9 -83q31 11 93 11q65 0 106.5 -35t41.5 -91z" />
<glyph unicode="&#x2076;" horiz-adv-x="387" d="M370 490q0 -68 -49.5 -103.5t-118.5 -35.5q-87 0 -134.5 50t-47.5 140q0 102 51 166t162 64q41 0 76 -12q17 -6 13 -20l-11 -39q-3 -8 -8.5 -9.5t-17.5 2.5q-21 7 -51 7q-51 0 -82.5 -24.5t-41.5 -67.5q41 10 99 10q71 0 116 -32.5t45 -95.5zM287 485q0 28 -20 45.5 t-58 17.5q-56 0 -107 -13v-13q0 -45 28 -74t73 -29q39 0 61.5 17.5t22.5 48.5z" />
<glyph unicode="&#x2077;" horiz-adv-x="337" d="M307 761q18 0 27.5 -6t9.5 -25v-17q0 -17 -10 -36l-180 -306q-11 -14 -25 -14h-55q-24 0 -11 21l188 314h-213q-16 0 -16 20v30q0 12 3.5 15.5t13.5 3.5h268z" />
<glyph unicode="&#x2078;" horiz-adv-x="387" d="M298 575q62 -25 62 -101q0 -47 -43 -85t-124 -38q-83 0 -125.5 34t-42.5 89q0 32 16 59.5t46 41.5v2q-46 20 -46 76q0 53 43 85t109 32q70 0 110.5 -31.5t40.5 -81.5q0 -56 -47 -80zM276 483q0 28 -24 44.5t-60 16.5q-34 0 -59 -17.5t-25 -46.5q0 -27 20 -44.5t64 -17.5 t64 19.5t20 45.5zM262 653q0 23 -18 36.5t-52 13.5q-33 0 -51 -14.5t-18 -36.5q0 -20 20 -34t49 -14q32 0 51 14t19 35z" />
<glyph unicode="&#x2079;" horiz-adv-x="387" d="M15 632q0 68 49.5 103.5t118.5 35.5q87 0 134.5 -50t47.5 -140q0 -102 -51 -166t-162 -64q-41 0 -76 12q-17 6 -13 20l11 39q3 8 8.5 9.5t17.5 -2.5q21 -7 51 -7q51 0 82.5 24.5t41.5 67.5q-41 -10 -99 -10q-71 0 -116 32.5t-45 95.5zM98 637q0 -28 20 -45.5t58 -17.5 q56 0 107 13v13q0 45 -28 74t-73 29q-39 0 -61.5 -17.5t-22.5 -48.5z" />
<glyph unicode="&#x207a;" horiz-adv-x="387" d="M48 536q-12 0 -15.5 3.5t-3.5 13.5v36q0 9 3.5 13t15.5 4h107v100q0 16 19 16h40q11 0 14.5 -2.5t3.5 -13.5v-100h108q11 0 14.5 -4t3.5 -13v-36q0 -10 -3.5 -13.5t-14.5 -3.5h-108v-100q0 -11 -4 -14t-14 -3h-40q-19 0 -19 17v100h-107z" />
<glyph unicode="&#x207b;" horiz-adv-x="218" d="M31 534q-11 0 -14 3.5t-3 14.5v43q0 10 3 13.5t14 3.5h149q11 0 14 -3.5t3 -13.5v-43q0 -11 -3 -14.5t-14 -3.5h-149z" />
<glyph unicode="&#x207c;" horiz-adv-x="387" d="M342 609q0 -10 -3.5 -13.5t-14.5 -3.5h-261q-11 0 -14 3.5t-3 13.5v37q0 10 3 13.5t14 3.5h261q11 0 14.5 -3.5t3.5 -13.5v-37zM342 496q0 -10 -3.5 -14t-14.5 -4h-261q-11 0 -14 4t-3 14v36q0 10 3 14t14 4h261q11 0 14.5 -4t3.5 -14v-36z" />
<glyph unicode="&#x207d;" horiz-adv-x="192" d="M155 314q-13 -12 -22 -4q-120 100 -120 240q0 137 118 239q13 12 21 6l24 -17q10 -8 10 -11t-6 -11q-42 -60 -60.5 -103t-18.5 -100q0 -59 19 -103t59 -98q9 -13 -4 -22z" />
<glyph unicode="&#x207e;" horiz-adv-x="195" d="M22 330q-13 9 -4 22q40 54 59 98t19 103q0 57 -18.5 100t-60.5 103q-5 6 -6 7.5t1 5.5t9 9l24 17q8 6 21 -6q118 -102 118 -239q0 -140 -120 -240q-9 -8 -22 4z" />
<glyph unicode="&#x207f;" horiz-adv-x="392" d="M351 282q0 -11 -3 -13t-16 -2h-42h-9t-6 1.5t-5 4.5t-1 9v171q0 53 -20 76t-76 23q-26 0 -51 -3v-267q0 -11 -3.5 -13t-16.5 -2h-42h-7t-5 0.5t-4.5 2l-1.5 4.5t-1 8v275q0 53 53 61q33 5 83 5q93 0 133.5 -39t40.5 -129v-173z" />
<glyph unicode="&#x2080;" horiz-adv-x="387" d="M371 113q0 -97 -44.5 -153t-134.5 -56q-88 0 -132.5 55t-44.5 153q0 97 45 153t134 56q177 0 177 -208zM289 112q0 62 -22.5 102t-74.5 40q-50 0 -72 -40t-22 -101q0 -143 96 -143q50 0 72.5 41t22.5 101z" />
<glyph unicode="&#x2081;" horiz-adv-x="320" d="M324 -72q0 -12 -3 -15t-17 -3h-213q-13 0 -16 3t-3 15v35q0 11 3 14t16 3h65v259l-64 -11q-17 -6 -17 13v32q0 8 0.5 11t4 6t10.5 5l98 25q20 6 34.5 -0.5t14.5 -25.5v-314h67q14 0 17 -2.5t3 -14.5v-35z" />
<glyph unicode="&#x2082;" horiz-adv-x="373" d="M90 -90q-34 0 -47 12t-13 41q0 48 58 103q27 27 99 72q39 21 54 35.5t15 32.5q0 44 -73 44q-41 0 -89 -29q-21 -13 -29 0l-20 33q-8 14 7 25q65 42 135 42q64 0 108 -29t44 -83q0 -41 -28 -72t-81 -60q-83 -44 -109 -97h202q8 0 12 -2t4.5 -4t0.5 -8v-3v-36v-2 q0 -5 -0.5 -7.5t-4.5 -5t-12 -2.5h-233z" />
<glyph unicode="&#x2083;" horiz-adv-x="362" d="M280 125q59 -20 59 -92q0 -56 -44.5 -92.5t-118.5 -36.5q-97 0 -149 40q-14 11 -5 22l22 34q9 10 25 1q49 -26 103 -26q43 0 63.5 18t20.5 45q0 55 -77 55h-23q-9 0 -13.5 1t-7.5 6t-3 15v17q0 14 5.5 19t17.5 5h19q35 0 54 14t19 38q0 21 -20.5 31.5t-48.5 10.5 q-49 0 -93 -23q-1 -1 -3 -2q-17 -7 -23 -1l-2 3l-19 34q-8 13 5 22q57 39 148 39q61 0 100 -29t39 -79q0 -59 -50 -86v-3z" />
<glyph unicode="&#x2084;" horiz-adv-x="387" d="M49 -5q-40 0 -40 34v13q0 19 17 40l179 212q21 29 46 29h24q22 0 31 -8.5t9 -29.5v-222h38q12 0 14.5 -4.5t2.5 -15.5v-28q0 -7 -0.5 -10t-4.5 -6t-12 -3h-38v-69q0 -11 -4.5 -14t-16.5 -3h-40q-12 0 -16 3t-4 14v68h-185zM116 63h118l-1 144l-3 1l-115 -141z" />
<glyph unicode="&#x2085;" horiz-adv-x="387" d="M361 47q0 -67 -47 -105.5t-127 -38.5q-97 0 -152 40q-13 9 -4 23l23 35q8 10 28 -1q43 -25 103 -25q45 0 70 18.5t25 50.5q0 30 -22.5 44.5t-56.5 14.5q-39 0 -66 -10q-29 -12 -40 -14.5t-26 2.5l-15 6q-22 10 -18 35l16 150q4 42 47 42h216q9 0 13 -3t4 -5v-9v-34 q0 -11 -4 -14.5t-13 -3.5h-186l-9 -83q31 11 93 11q65 0 106.5 -35t41.5 -91z" />
<glyph unicode="&#x2086;" horiz-adv-x="387" d="M370 43q0 -68 -49.5 -103.5t-118.5 -35.5q-87 0 -134.5 50t-47.5 140q0 102 51 166t162 64q41 0 76 -12q17 -6 13 -20l-11 -39q-3 -8 -8.5 -9.5t-17.5 2.5q-21 7 -51 7q-51 0 -82.5 -24.5t-41.5 -67.5q41 10 99 10q71 0 116 -32.5t45 -95.5zM287 38q0 28 -20 45.5 t-58 17.5q-56 0 -107 -13v-13q0 -45 28 -74t73 -29q39 0 61.5 17.5t22.5 48.5z" />
<glyph unicode="&#x2087;" horiz-adv-x="337" d="M307 314q18 0 27.5 -6t9.5 -25v-17q0 -17 -10 -36l-180 -306q-11 -14 -25 -14h-55q-24 0 -11 21l188 314h-213q-16 0 -16 20v30q0 12 3.5 15.5t13.5 3.5h268z" />
<glyph unicode="&#x2088;" horiz-adv-x="387" d="M298 128q62 -25 62 -101q0 -47 -43 -85t-124 -38q-83 0 -125.5 34t-42.5 89q0 32 16 59.5t46 41.5v2q-46 20 -46 76q0 53 43 85t109 32q70 0 110.5 -31.5t40.5 -81.5q0 -56 -47 -80zM276 36q0 28 -24 44.5t-60 16.5q-34 0 -59 -17.5t-25 -46.5q0 -27 20 -44.5t64 -17.5 t64 19.5t20 45.5zM262 206q0 23 -18 36.5t-52 13.5q-33 0 -51 -14.5t-18 -36.5q0 -20 20 -34t49 -14q32 0 51 14t19 35z" />
<glyph unicode="&#x2089;" horiz-adv-x="387" d="M15 185q0 68 49.5 103.5t118.5 35.5q87 0 134.5 -50t47.5 -140q0 -102 -51 -166t-162 -64q-41 0 -76 12q-17 6 -13 20l11 39q3 8 8.5 9.5t17.5 -2.5q21 -7 51 -7q51 0 82.5 24.5t41.5 67.5q-41 -10 -99 -10q-71 0 -116 32.5t-45 95.5zM98 190q0 -28 20 -45.5t58 -17.5 q56 0 107 13v13q0 45 -28 74t-73 29q-39 0 -61.5 -17.5t-22.5 -48.5z" />
<glyph unicode="&#x208a;" horiz-adv-x="387" d="M48 82q-12 0 -15.5 3.5t-3.5 13.5v36q0 9 3.5 13t15.5 4h107v100q0 16 19 16h40q11 0 14.5 -2.5t3.5 -13.5v-100h108q11 0 14.5 -4t3.5 -13v-36q0 -10 -3.5 -13.5t-14.5 -3.5h-108v-100q0 -11 -4 -14t-14 -3h-40q-19 0 -19 17v100h-107z" />
<glyph unicode="&#x208b;" horiz-adv-x="218" d="M31 80q-11 0 -14 3.5t-3 14.5v43q0 10 3 13.5t14 3.5h149q11 0 14 -3.5t3 -13.5v-43q0 -11 -3 -14.5t-14 -3.5h-149z" />
</font>
</defs>
</svg>
